<svg width="28" height="14" viewBox="0 0 28 14" fill="none" xmlns="http://www.w3.org/2000/svg">
<path d="M13.978 13.9953C13.5116 13.9962 13.0595 13.8335 12.7003 13.5355L0.721242 3.54068C0.313523 3.20137 0.0571225 2.7138 0.00844822 2.18522C-0.0402261 1.65664 0.122812 1.13035 0.461696 0.72213C0.80058 0.313908 1.28755 0.0571929 1.81548 0.00845866C2.34341 -0.0402756 2.86905 0.122963 3.27677 0.462265L13.978 9.41764L24.6793 0.782101C24.8835 0.616055 25.1185 0.492055 25.3707 0.417231C25.623 0.342406 25.8875 0.318231 26.1491 0.346095C26.4107 0.373959 26.6642 0.453311 26.8951 0.579594C27.126 0.705876 27.3296 0.876598 27.4944 1.08195C27.6772 1.28748 27.8157 1.52861 27.9011 1.79022C27.9866 2.05183 28.0171 2.32829 27.9909 2.60228C27.9646 2.87626 27.8822 3.14187 27.7486 3.38246C27.6151 3.62305 27.4334 3.83343 27.2149 4.00044L15.2358 13.6554C14.8663 13.9063 14.4235 14.026 13.978 13.9953Z" fill="black"/>
</svg>
