<svg width="162" height="103" viewBox="0 0 162 103" fill="none" xmlns="http://www.w3.org/2000/svg">
<path d="M150.66 43.4433L146.464 26.6625C147.611 26.4189 148.472 25.4013 148.472 24.1822V21.4766C148.472 15.6021 143.693 10.8231 137.818 10.8231H118.71V5.24226C118.71 2.35155 116.358 0 113.468 0H16.0637C13.173 0 10.8215 2.35155 10.8215 5.24226V51.2386C10.8215 52.6394 11.9571 53.7753 13.3581 53.7753C14.7589 53.7753 15.8948 52.6397 15.8948 51.2386V5.24226C15.8948 5.14892 15.9704 5.0733 16.0637 5.0733H113.467C113.561 5.0733 113.636 5.14892 113.636 5.24226V51.2393C113.636 52.64 114.772 53.7759 116.173 53.7759C117.574 53.7759 118.71 52.6403 118.71 51.2393V48.3637H148.632C148.635 48.3637 148.637 48.3644 148.639 48.3644C148.641 48.3644 148.643 48.364 148.646 48.364C152.328 48.3666 155.454 50.7833 156.528 54.1135H148.641C147.24 54.1135 146.104 55.2491 146.104 56.6502V62.0614C146.104 66.444 149.669 70.0093 154.052 70.0093H156.927V81.1699H150.294C148.115 74.8788 142.135 70.3472 135.112 70.3472C128.09 70.3472 122.109 74.8788 119.93 81.1699H118.709V62.0611C118.709 60.6603 117.573 59.5244 116.172 59.5244C114.772 59.5244 113.636 60.66 113.636 62.0611V81.1693H61.008C58.8292 74.8782 52.8488 70.3465 45.8261 70.3465C38.8034 70.3465 32.8226 74.8782 30.6442 81.1693H16.0637C15.9704 81.1693 15.8948 81.0937 15.8948 81.0004V75.4198H26.8865C28.2872 75.4198 29.4231 74.2843 29.4231 72.8832C29.4231 71.4821 28.2876 70.3465 26.8865 70.3465H2.53567C1.13493 70.3465 -0.000976562 71.4821 -0.000976562 72.8832C-0.000976562 74.2843 1.13461 75.4198 2.53567 75.4198H10.8218V81.0004C10.8218 83.8911 13.1733 86.2426 16.064 86.2426H29.7658C29.7652 86.2989 29.7614 86.3549 29.7614 86.4116C29.7614 95.2698 36.9682 102.476 45.8261 102.476C54.684 102.476 61.8908 95.2698 61.8908 86.4116C61.8908 86.3546 61.887 86.2989 61.8864 86.2426H119.052C119.051 86.2989 119.048 86.3549 119.048 86.4116C119.048 95.2698 126.254 102.476 135.112 102.476C143.97 102.476 151.177 95.2698 151.177 86.4116C151.177 86.3546 151.173 86.2989 151.173 86.2426H159.463C160.864 86.2426 162 85.107 162 83.706V56.6495C162 49.9695 157.072 44.4194 150.66 43.4433ZM118.71 15.8961H137.818C140.896 15.8961 143.399 18.3995 143.399 21.4766V21.6455H118.71V15.8961ZM118.71 43.2907V26.7185H141.249L145.392 43.2907H118.71ZM45.8261 97.4039C39.7653 97.4039 34.8344 92.4733 34.8344 86.4122C34.8344 80.3511 39.7653 75.4205 45.8261 75.4205C51.8869 75.4205 56.8178 80.3511 56.8178 86.4122C56.8178 92.4733 51.8869 97.4039 45.8261 97.4039ZM135.113 97.4039C129.052 97.4039 124.121 92.4733 124.121 86.4122C124.121 80.3511 129.052 75.4205 135.113 75.4205C141.174 75.4205 146.105 80.3511 146.105 86.4122C146.105 92.4733 141.174 97.4039 135.113 97.4039ZM156.927 64.936H154.052C152.467 64.936 151.178 63.6463 151.178 62.0611V59.1862H156.927V64.936H156.927Z" fill="#1D1F1E"/>
<path d="M45.8262 81.1699C42.9355 81.1699 40.584 83.5215 40.584 86.4122C40.584 89.3029 42.9355 91.6545 45.8262 91.6545C48.717 91.6545 51.0685 89.3029 51.0685 86.4122C51.0685 83.5215 48.717 81.1699 45.8262 81.1699Z" fill="#1D1F1E"/>
<path d="M135.113 81.1699C132.223 81.1699 129.871 83.5215 129.871 86.4122C129.871 89.3029 132.223 91.6545 135.113 91.6545C138.004 91.6545 140.356 89.3029 140.356 86.4122C140.356 83.5215 138.004 81.1699 135.113 81.1699Z" fill="#1D1F1E"/>
<path d="M105.35 70.3475H67.4712C66.0705 70.3475 64.9346 71.4831 64.9346 72.8842C64.9346 74.2852 66.0702 75.4208 67.4712 75.4208H105.35C106.751 75.4208 107.887 74.2852 107.887 72.8842C107.887 71.4831 106.751 70.3475 105.35 70.3475Z" fill="#1D1F1E"/>
<path d="M40.4148 59.5247H7.94681C6.54606 59.5247 5.41016 60.6602 5.41016 62.0613C5.41016 63.4624 6.54575 64.598 7.94681 64.598H40.4148C41.8155 64.598 42.9514 63.4624 42.9514 62.0613C42.9514 60.6602 41.8155 59.5247 40.4148 59.5247Z" fill="#1D1F1E"/>
</svg>
