<svg width="103" height="103" viewBox="0 0 103 103" fill="none" xmlns="http://www.w3.org/2000/svg">
<path d="M81.8845 77.4953C80.9714 76.862 79.7179 77.0898 79.0852 78.0029C78.4721 78.888 77.7772 79.7486 77.019 80.5612C76.511 81.1061 75.8122 81.7632 75.0517 82.4101C74.2056 83.1303 74.1034 84.3999 74.8234 85.2463C75.2213 85.7138 75.7872 85.954 76.3565 85.954C76.8174 85.954 77.2807 85.7965 77.6595 85.4742C78.5467 84.719 79.3431 83.969 79.9615 83.305C80.8511 82.3518 81.6691 81.3389 82.3925 80.2944C83.0252 79.3813 82.7978 78.128 81.8845 77.4953Z" fill="black"/>
<path d="M73.121 86.5154C72.6491 85.5096 71.4517 85.0766 70.4455 85.5484L70.3825 85.5768C69.366 86.0252 68.9057 87.2129 69.3545 88.2294C69.6865 88.9818 70.4231 89.4294 71.1958 89.4294C71.4672 89.4294 71.743 89.3741 72.007 89.2576C72.0561 89.2361 72.1047 89.2139 72.1536 89.1912C73.1595 88.7193 73.5926 87.5217 73.121 86.5154Z" fill="black"/>
<path d="M96.99 5.23071H6.01C2.6959 5.23071 0 7.92701 0 11.2407V67.6194C0 70.9329 2.6959 73.629 6.01 73.629H48.3739C50.1698 81.2273 54.2308 86.6086 57.7801 90.0563C62.9606 95.0892 68.8992 97.7694 71.1944 97.7694C73.4893 97.7694 79.4279 95.0894 84.6087 90.0565C88.158 86.6086 92.2192 81.2273 94.0149 73.6292H96.99C100.304 73.6292 103 70.9331 103 67.6196V11.2407C103 7.92701 100.304 5.23071 96.99 5.23071ZM90.9295 65.3846C90.9297 75.9839 86.037 83.0147 81.9323 87.0464C77.0634 91.8288 72.0689 93.689 71.1944 93.7456C70.3197 93.689 65.325 91.829 60.4561 87.0464C56.3518 83.0147 51.4591 75.9839 51.4591 65.3846V55.4777C58.3854 53.4747 64.8663 50.7333 71.195 47.1307C77.381 50.6418 84.1525 53.505 90.9295 55.4765V65.3846ZM98.9766 67.6194C98.9766 68.7146 98.0852 69.6056 96.99 69.6056H94.7146C94.8687 68.2575 94.9531 66.8518 94.9531 65.3846V53.9524C94.9531 53.0443 94.3448 52.2491 93.4687 52.0111C86.1636 50.0274 78.8126 46.9362 72.2105 43.0719C71.5829 42.7045 70.8059 42.7049 70.1779 43.0723C63.3887 47.0462 56.4352 49.9698 48.9201 52.0111C48.044 52.2493 47.4356 53.0446 47.4356 53.9524V65.3846C47.4356 66.8518 47.5199 68.2575 47.6742 69.6056H6.01C4.91462 69.6056 4.02343 68.7144 4.02343 67.6194V33.3943H98.9766V67.6194ZM98.9766 29.3711H4.02343V21.3246H98.9766V29.3711ZM98.9766 17.301H4.02343V11.2407C4.02343 10.1453 4.91462 9.25414 6.01 9.25414H96.99C98.0852 9.25414 98.9766 10.1453 98.9766 11.2407V17.301Z" fill="black"/>
<path d="M24.1398 47.4771C22.9269 47.4771 21.7293 47.7223 20.6209 48.1898C19.538 47.7309 18.3479 47.4771 17.0998 47.4771C12.1081 47.4771 8.04688 51.5379 8.04688 56.5294C8.04688 61.5208 12.1079 65.5821 17.0998 65.5821C18.3479 65.5821 19.538 65.3282 20.6207 64.8693C21.7293 65.3369 22.9269 65.5821 24.1398 65.5821C29.1316 65.5821 33.1929 61.5208 33.1929 56.5294C33.1929 51.5379 29.1316 47.4771 24.1398 47.4771ZM17.0998 61.5587C14.3264 61.5587 12.0703 59.3027 12.0703 56.5294C12.0703 53.7562 14.3264 51.5005 17.0998 51.5005C19.8727 51.5005 22.1289 53.7562 22.1289 56.5294C22.1289 59.3025 19.8727 61.5587 17.0998 61.5587ZM24.6385 61.5341C25.594 60.0996 26.1523 58.3785 26.1523 56.5296C26.1523 54.6806 25.594 52.96 24.6387 51.5254C27.1785 51.7765 29.1693 53.925 29.1693 56.5296C29.1693 59.1341 27.1785 61.2829 24.6385 61.5341Z" fill="black"/>
<path d="M20.4062 38.4241H10.0586C8.94752 38.4241 8.04688 39.3247 8.04688 40.4358C8.04688 41.5467 8.94752 42.4475 10.0586 42.4475H20.4062C21.5173 42.4475 22.418 41.5465 22.418 40.4358C22.418 39.3247 21.5173 38.4241 20.4062 38.4241Z" fill="black"/>
<path d="M26.3522 38.4241H26.2568C25.1458 38.4241 24.2451 39.3247 24.2451 40.4358C24.2451 41.5467 25.1458 42.4475 26.2568 42.4475H26.3522C27.4631 42.4475 28.3639 41.5465 28.3639 40.4358C28.3639 39.3247 27.4631 38.4241 26.3522 38.4241Z" fill="black"/>
<path d="M82.2372 60.759C81.452 59.9738 80.1784 59.9734 79.3924 60.7588L68.6343 71.516L62.9969 65.8782C62.2111 65.0932 60.9373 65.0928 60.1518 65.8782C59.3662 66.664 59.366 67.9378 60.1518 68.7234L67.2119 75.7837C67.6048 76.1766 68.1196 76.3731 68.6343 76.3731C69.1491 76.3731 69.6641 76.1766 70.0566 75.7837L82.237 63.6041C83.0227 62.8188 83.0227 61.545 82.2372 60.759Z" fill="black"/>
</svg>
