<svg width="103" height="103" viewBox="0 0 103 103" fill="none" xmlns="http://www.w3.org/2000/svg">
<path d="M101.956 22.2757L61.8414 0.248125C61.2387 -0.0827084 60.5079 -0.0827084 59.9051 0.248125L44.785 8.5504C44.466 8.63448 44.1681 8.79479 43.9214 9.02504L19.791 22.2757C19.1474 22.6285 18.7474 23.3043 18.7474 24.0391V50.6802C14.6768 51.9533 10.9465 54.1984 7.84482 57.3008C-0.239773 65.3846 -2.301 77.7143 2.71573 87.9811C3.20294 88.9791 4.40761 89.3932 5.40561 88.9052C6.4044 88.4172 6.81775 87.2126 6.33053 86.2146C2.0682 77.4911 3.81981 67.0152 10.6895 60.1455C14.9856 55.8494 20.697 53.4833 26.7723 53.4833C32.8475 53.4833 38.5589 55.8494 42.855 60.1455C47.1504 64.4408 49.5165 70.1522 49.5165 76.2275C49.5165 82.3027 47.1504 88.0141 42.8542 92.3102C35.9845 99.1799 25.5087 100.932 16.7852 96.6692C15.7872 96.1812 14.5825 96.5954 14.0953 97.5934C13.6073 98.5921 14.0206 99.7968 15.0194 100.284C18.7592 102.112 22.7716 103 26.755 103C33.7041 102.999 40.5604 100.294 45.6997 95.1549C48.0564 92.7982 49.9188 90.0793 51.2367 87.1238L59.9051 91.8835C60.2069 92.0493 60.5401 92.1319 60.8733 92.1319C61.2065 92.1319 61.5404 92.0493 61.8414 91.8835L101.956 69.8568C102.6 69.5031 103 68.8273 103 68.0934V54.1127C103 53.0015 102.099 52.101 100.988 52.101C99.8771 52.101 98.9765 53.0015 98.9765 54.1127V66.9028L62.8913 86.7175V47.2532L74.8005 40.7136V51.0802C74.8005 51.7922 75.1761 52.4507 75.7883 52.8122C76.1042 52.9984 76.4578 53.0919 76.8122 53.0919C77.1454 53.0919 77.4794 53.0094 77.7819 52.8428L86.3781 48.1113C87.0209 47.7577 87.4193 47.0827 87.4193 46.3495V33.7841L98.9765 27.4386V38.0197C98.9765 39.1309 99.8771 40.0315 100.988 40.0315C102.099 40.0315 103 39.1309 103 38.0197V24.0391C103 23.3051 102.6 22.6285 101.956 22.2757ZM60.8733 4.30614L96.8084 24.0391L85.4728 30.2636L49.5377 10.5307L60.8733 4.30614ZM60.8733 43.7712L24.9382 24.0391L36.6894 17.5858L72.6253 37.318L60.8733 43.7712ZM76.8044 35.0234L40.8692 15.2912L45.3579 12.8261L81.2938 32.5582L76.8044 35.0234ZM45.6997 57.3008C40.6437 52.2448 33.9217 49.4606 26.7723 49.4606C25.4199 49.4606 24.084 49.5604 22.7708 49.7561V27.4386L58.8686 47.2603V86.7246L52.6032 83.2842C53.2201 81.0132 53.5391 78.6447 53.5391 76.2275C53.5391 69.078 50.755 62.356 45.6997 57.3008ZM83.3967 45.1606L78.8239 47.6776V38.5046L83.3967 35.9939V45.1606Z" fill="black"/>
<path d="M100.988 44.0439C100.459 44.0439 99.94 44.2593 99.5659 44.6333C99.1919 45.0074 98.9766 45.526 98.9766 46.0557C98.9766 46.5845 99.1919 47.1032 99.5659 47.4772C99.94 47.8521 100.459 48.0666 100.988 48.0666C101.517 48.0666 102.037 47.8521 102.411 47.4772C102.785 47.1032 103 46.5845 103 46.0557C103 45.526 102.785 45.0074 102.411 44.6333C102.037 44.2593 101.517 44.0439 100.988 44.0439Z" fill="black"/>
<path d="M20.0072 78.2384C20.5219 78.2384 21.0374 78.042 21.4296 77.6499C22.2154 76.864 22.2154 75.5902 21.4296 74.8044L20.0363 73.4103H31.9259C34.8099 73.4103 37.1563 75.7568 37.1563 78.6408C37.1563 81.5248 34.8099 83.8713 31.9259 83.8713H24.8809C23.7698 83.8713 22.8692 84.7718 22.8692 85.883C22.8692 86.9934 23.7698 87.8939 24.8809 87.8939H31.9259C37.0283 87.8939 41.1798 83.7432 41.1798 78.6408C41.1798 73.5384 37.0283 69.3877 31.9259 69.3877H20.0363L21.4296 67.9936C22.2154 67.2078 22.2154 65.9339 21.4296 65.1481C20.6445 64.3631 19.3707 64.3631 18.5849 65.1481L13.7568 69.9762C12.9717 70.7621 12.9717 72.0359 13.7568 72.8217L18.5849 77.6491C18.9778 78.042 19.4925 78.2384 20.0072 78.2384Z" fill="black"/>
<path d="M9.26883 95.7468C8.69675 95.7468 8.1286 95.5032 7.73175 95.0309L7.72782 95.0262C7.01272 94.1759 7.12274 92.9076 7.973 92.1925C8.82327 91.4766 10.0924 91.5866 10.8075 92.4369C11.5218 93.2879 11.4141 94.5586 10.5639 95.2737C10.1859 95.5912 9.72618 95.7468 9.26883 95.7468Z" fill="black"/>
</svg>
