<svg width="36" height="22" viewBox="0 0 36 22" fill="none" xmlns="http://www.w3.org/2000/svg">
<path d="M33.9779 0H1.17136C0.524437 0 0 0.525219 0 1.17311V20.8269C0 21.4748 0.524437 22 1.17136 22H33.9779C34.6249 22 35.1493 21.4748 35.1493 20.8269V1.17311C35.1493 0.525219 34.6249 0 33.9779 0Z" fill="#E2E2E2"/>
<path d="M16.1748 14.3046H14.457L15.5303 7.70093H17.2481L16.1748 14.3046Z" fill="#0066B2"/>
<path d="M13.0132 7.70079L11.3767 12.2417L11.1833 11.265L10.6033 8.29577C10.5696 8.11125 10.4666 7.94668 10.3154 7.83599C10.1642 7.72529 9.97635 7.6769 9.79059 7.70079H7.08356L7.05273 7.81305C7.68649 7.97131 8.29228 8.22591 8.84901 8.56799L10.3398 14.3129H12.1305L14.8515 7.70079H13.0132Z" fill="#0066B2"/>
<path d="M26.5177 14.313H28.0953L26.7222 7.70939H25.3407C25.1736 7.69644 25.0067 7.73705 24.8641 7.82533C24.7216 7.91362 24.6107 8.04501 24.5476 8.20052L21.9863 14.313H23.777L24.1357 13.3336H26.3187L26.5177 14.313ZM24.6289 11.978L25.5312 9.50554L26.0385 11.978H24.6289Z" fill="#0066B2"/>
<path d="M22.1211 9.28935L22.3677 7.85804C21.871 7.68344 21.3499 7.58872 20.8236 7.57739C19.9689 7.57739 17.9344 7.95627 17.9344 9.76925C17.9344 11.4756 20.3108 11.4952 20.3108 12.3933C20.3108 13.2914 18.181 13.1286 17.4777 12.5617L17.2227 14.0463C17.8353 14.3038 18.4947 14.4309 19.1591 14.4196C20.3304 14.4196 22.0987 13.8106 22.0987 12.1576C22.0987 10.44 19.7027 10.28 19.7027 9.53351C19.7027 8.78699 21.3869 8.88241 22.1211 9.28935Z" fill="#0066B2"/>
<path d="M11.1833 11.265L10.6033 8.29577C10.5696 8.11125 10.4666 7.94668 10.3154 7.83599C10.1642 7.72529 9.97635 7.6769 9.79059 7.70079H7.08356L7.05273 7.81305C7.9842 8.05027 8.85325 8.48688 9.60003 9.09281C10.3102 9.66402 10.8565 10.4135 11.1833 11.265Z" fill="#F9A533"/>
</svg>
