<svg width="36" height="22" viewBox="0 0 36 22" fill="none" xmlns="http://www.w3.org/2000/svg">
<path d="M34.0014 0H1.1948C0.547873 0 0.0234375 0.525219 0.0234375 1.17311V20.8269C0.0234375 21.4748 0.547873 22 1.1948 22H34.0014C34.6483 22 35.1727 21.4748 35.1727 20.8269V1.17311C35.1727 0.525219 34.6483 0 34.0014 0Z" fill="#E2E2E2"/>
<path d="M21.7778 17.3187L22.1029 17.3103L22.4252 17.2851L22.739 17.2458L23.0501 17.1896L23.3583 17.1195L23.6582 17.0353L23.9496 16.9342L24.2383 16.8192L24.5185 16.6929L24.7903 16.5554L25.0565 16.4038L25.3115 16.2354L25.5581 16.0614L25.7991 15.8734L26.0289 15.6741L26.2475 15.4636L26.4549 15.2447L26.6538 15.0146L26.8416 14.7761L27.0181 14.5291L27.1835 14.2709L27.3348 14.0043L27.4749 13.732L27.601 13.4514L27.7131 13.1651L27.814 12.8705L27.8981 12.5702L27.9681 12.2643L28.0242 11.9527L28.0634 11.6356L28.0886 11.3129L28.097 10.9873L28.0886 10.6646L28.0634 10.3446L28.0242 10.0303L27.9681 9.71878L27.8981 9.41568L27.814 9.1182L27.7131 8.82352L27.601 8.53726L27.4749 8.25941L27.3348 7.98719L27.1835 7.72338L27.0181 7.46799L26.8416 7.22102L26.6538 6.97966L26.4549 6.75233L26.2475 6.53343L26.0289 6.32575L25.7991 6.12649L25.5581 5.93846L25.3115 5.76165L25.0565 5.59887L24.7903 5.44732L24.5185 5.30419L24.2383 5.1779L23.9496 5.06564L23.6582 4.96741L23.3583 4.88041L23.0501 4.81025L22.739 4.75412L22.4252 4.71483L22.1029 4.68957L21.7778 4.68115L21.4528 4.68957L21.1305 4.71483L20.8166 4.75412L20.5056 4.81025L20.1973 4.88041L19.9003 4.96741L19.6061 5.06564L19.3202 5.1779L19.04 5.30419L18.7682 5.44732L18.5048 5.59887L18.2469 5.76165L18.0003 5.93846L17.7621 6.12649L17.5352 6.32575L17.3166 6.53343L17.1064 6.75233L16.9074 6.97966L16.7225 7.22102L16.5459 7.46799L16.3806 7.72338L16.2293 7.98719L16.092 8.25941L15.9659 8.53726L15.8538 8.82352L15.7529 9.1182L15.6716 9.41568L15.5988 9.71878L15.5427 10.0303L15.5035 10.3446L15.4783 10.6646L15.4727 10.9873L15.4783 11.3129L15.5035 11.6356L15.5427 11.9527L15.5988 12.2643L15.6716 12.5702L15.7529 12.8705L15.8538 13.1651L15.9659 13.4514L16.092 13.732L16.2293 14.0043L16.3806 14.2709L16.5459 14.5291L16.7225 14.7761L16.9074 15.0146L17.1064 15.2447L17.3166 15.4636L17.5352 15.6741L17.7621 15.8734L18.0003 16.0614L18.2469 16.2354L18.5048 16.4038L18.7682 16.5554L19.04 16.6929L19.3202 16.8192L19.6061 16.9342L19.9003 17.0353L20.1973 17.1195L20.5056 17.1896L20.8166 17.2458L21.1305 17.2851L21.4528 17.3103L21.7778 17.3187Z" fill="#EC1C2E"/>
<path d="M13.411 17.3187L13.7361 17.3103L14.0583 17.2851L14.3722 17.2458L14.6832 17.1896L14.9915 17.1195L15.2913 17.0353L15.5856 16.9342L15.8714 16.8192L16.1488 16.6929L16.4207 16.5554L16.6841 16.4038L16.9419 16.2354L17.1885 16.0614L17.4267 15.8734L17.6565 15.6741L17.8751 15.4636L18.0824 15.2447L18.2814 15.0146L18.4692 14.7761L18.6429 14.5291L18.8082 14.2709L18.9596 14.0043L19.0969 13.732L19.2258 13.4514L19.3379 13.1651L19.436 12.8705L19.52 12.5702L19.5901 12.2643L19.6461 11.9527L19.6854 11.6356L19.7106 11.3129L19.719 10.9873L19.7106 10.6646L19.6854 10.3446L19.6461 10.0303L19.5901 9.71878L19.52 9.41568L19.436 9.1182L19.3379 8.82352L19.2258 8.53726L19.0969 8.25941L18.9596 7.98719L18.8082 7.72338L18.6429 7.46799L18.4692 7.22102L18.2814 6.97966L18.0824 6.75233L17.8751 6.53343L17.6565 6.32575L17.4267 6.12649L17.1885 5.93846L16.9419 5.76165L16.6841 5.59887L16.4207 5.44732L16.1488 5.30419L15.8714 5.1779L15.5856 5.06564L15.2913 4.96741L14.9915 4.88041L14.6832 4.81025L14.3722 4.75412L14.0583 4.71483L13.7361 4.68957L13.411 4.68115L13.0859 4.68957L12.7637 4.71483L12.4498 4.75412L12.1388 4.81025L11.8333 4.88041L11.5306 4.96741L11.2392 5.06564L10.9506 5.1779L10.6703 5.30419L10.3985 5.44732L10.1351 5.59887L9.88009 5.76165L9.63068 5.93846L9.3925 6.12649L9.1599 6.32575L8.94413 6.53343L8.73395 6.75233L8.53498 6.97966L8.34723 7.22102L8.17069 7.46799L8.00535 7.72338L7.85402 7.98719L7.71391 8.25941L7.58781 8.53726L7.47571 8.82352L7.37764 9.1182L7.29077 9.41568L7.22071 9.71878L7.16466 10.0303L7.12542 10.3446L7.1002 10.6646L7.0918 10.9873L7.1002 11.3129L7.12542 11.6356L7.16466 11.9527L7.22071 12.2643L7.29077 12.5702L7.37764 12.8705L7.47571 13.1651L7.58781 13.4514L7.71391 13.732L7.85402 14.0043L8.00535 14.2709L8.17069 14.5291L8.34723 14.7761L8.53498 15.0146L8.73395 15.2447L8.94413 15.4636L9.1599 15.6741L9.3925 15.8734L9.63068 16.0614L9.88009 16.2354L10.1351 16.4038L10.3985 16.5554L10.6703 16.6929L10.9506 16.8192L11.2392 16.9342L11.5306 17.0353L11.8333 17.1195L12.1388 17.1896L12.4498 17.2458L12.7637 17.2851L13.0859 17.3103L13.411 17.3187Z" fill="#0084C4"/>
<path d="M16.8184 7.08921H20.0158V6.7356H17.1266L16.8184 7.08921Z" fill="#EC1C2E"/>
<path d="M16.3184 7.83567H20.0174V7.48486H16.5425L16.3184 7.83567Z" fill="#EC1C2E"/>
<path d="M15.9434 8.59605H20.0179V8.24243H16.1143L15.9434 8.59605Z" fill="#EC1C2E"/>
<path d="M15.6953 9.34275H20.0165V8.99194H15.8046L15.6953 9.34275Z" fill="#EC1C2E"/>
<path d="M15.5371 10.092H20.018V9.74121H15.6016L15.5371 10.092Z" fill="#EC1C2E"/>
<path d="M15.5035 11.5432H20.0152V11.1924H15.4727L15.5035 11.5432Z" fill="#EC1C2E"/>
<path d="M15.6113 12.3345H20.0165V11.9836H15.5469L15.6113 12.3345Z" fill="#EC1C2E"/>
<path d="M15.8252 12.9771H20.0175V12.6235H15.7188L15.8252 12.9771Z" fill="#EC1C2E"/>
<path d="M16.1447 13.7572H20.0175V13.4036H15.9766L16.1447 13.7572Z" fill="#EC1C2E"/>
<path d="M16.5948 14.5487H20.0164V14.1951H16.3594L16.5948 14.5487Z" fill="#EC1C2E"/>
<path d="M17.1579 15.3094H19.9854V14.9558H16.8496L17.1579 15.3094Z" fill="#EC1C2E"/>
<path d="M27.0605 14.8687L27.0802 14.8125L27.111 14.7592L27.1502 14.7143L27.1979 14.6778L27.2483 14.6498L27.3043 14.6301L27.3632 14.6245L27.4277 14.6301L27.4837 14.6498L27.5369 14.6778L27.5818 14.7143L27.6182 14.7592L27.649 14.8125L27.6659 14.8687H27.6042L27.5902 14.8294L27.5678 14.7845L27.5369 14.748L27.5033 14.7199L27.4613 14.6975L27.4136 14.6806L27.3632 14.6778L27.3156 14.6806L27.2651 14.6975L27.2259 14.7199L27.1867 14.748L27.1586 14.7845L27.1362 14.8294L27.1222 14.8687H27.0605Z" fill="#EC1C2E"/>
<path d="M27.2539 14.8687V14.793H27.3716L27.3996 14.7958L27.422 14.7986L27.4417 14.8042L27.4585 14.8126L27.4725 14.8238L27.4809 14.8351L27.4865 14.8491L27.4893 14.8687H27.4361L27.4332 14.8575L27.4305 14.8491L27.4248 14.8407L27.4164 14.8351L27.4052 14.8323L27.394 14.8295L27.3856 14.8266H27.3716H27.3072V14.8687H27.2539Z" fill="#EC1C2E"/>
<path d="M27.0566 14.9222L27.0594 14.8717V14.8689H27.1211V14.8801L27.1155 14.9222H27.0566Z" fill="#EC1C2E"/>
<path d="M27.2539 14.9222V14.8689H27.3072V14.911H27.3604H27.38H27.3968H27.408L27.4192 14.9054L27.4248 14.9026L27.4305 14.8942L27.4361 14.8829V14.8689H27.4893L27.4865 14.8885L27.4837 14.9054L27.4781 14.9166L27.4725 14.9222H27.2539Z" fill="#EC1C2E"/>
<path d="M27.6091 14.9222L27.6035 14.8801V14.8689H27.6652V14.8717L27.6736 14.9222H27.6091Z" fill="#EC1C2E"/>
<path d="M27.0555 14.9221L27.0527 14.9333L27.0583 14.9951L27.078 15.054L27.1088 15.1017L27.148 15.1494L27.1957 15.1831L27.2461 15.2112L27.3021 15.228L27.361 15.2336L27.4254 15.228L27.4815 15.2112L27.5347 15.1831L27.5796 15.1494L27.616 15.1017L27.6468 15.054L27.6636 14.9951L27.672 14.9333V14.9221H27.6076V14.9333L27.602 14.9867L27.588 15.0372L27.5655 15.0793L27.5347 15.1186L27.5011 15.1494L27.4591 15.1719L27.4114 15.1859L27.361 15.1915L27.3133 15.1859L27.2629 15.1719L27.2237 15.1494L27.1844 15.1186L27.1564 15.0793L27.134 15.0372L27.12 14.9867L27.1144 14.9333V14.9221H27.0555Z" fill="#EC1C2E"/>
<path d="M27.2539 14.9221V15.0512H27.3072V14.9446H27.3604L27.4248 15.0512H27.4809L27.4024 14.9446H27.422L27.4389 14.9418L27.4557 14.9362L27.4669 14.9277L27.4725 14.9221H27.2539Z" fill="#EC1C2E"/>
<path d="M20.4129 10.4571L20.3736 10.4543L20.3316 10.4515L20.2952 10.4431L20.2559 10.4403L20.2195 10.4346L20.1831 10.429L20.1439 10.4206L20.1018 10.415L20.057 10.4094L20.0121 10.4066L19.9589 10.4038L19.9029 10.401H19.8412L19.7739 10.4038L19.6955 10.4066L19.6142 10.4122L19.5526 10.4206L19.4965 10.4346L19.4461 10.4515L19.4012 10.4683L19.3592 10.4908L19.3228 10.516L19.2892 10.5469L19.2667 10.575L19.2471 10.6086L19.2359 10.6423L19.2275 10.6788V10.7153L19.2359 10.7546L19.2499 10.7939L19.2723 10.8332L19.3032 10.8753L19.362 10.9286L19.4321 10.9707L19.5161 11.01L19.6058 11.0408L19.6983 11.0717L19.7964 11.1026L19.8972 11.1391L19.9925 11.1784L20.0794 11.2289L20.1663 11.2906L20.2391 11.3664L20.3008 11.459L20.3512 11.5685L20.3821 11.7032L20.3905 11.8603L20.3821 12.0484L20.3568 12.1859L20.3204 12.3122L20.2728 12.4244L20.2139 12.5227L20.1439 12.6097L20.0654 12.6854L19.9813 12.75L19.8888 12.8061L19.7936 12.851L19.6955 12.8875L19.5946 12.9184L19.4909 12.9408L19.39 12.9577L19.2892 12.9689L19.1967 12.9745L19.1014 12.9773H18.9725L18.8576 12.9745H18.7511L18.6558 12.9717L18.5662 12.9661L18.4849 12.9633L18.412 12.9577L18.3448 12.9493L18.2831 12.9408L18.2243 12.9296L18.171 12.9184L18.1178 12.9044L18.0673 12.8903L18.0169 12.8763L17.9693 12.8566L17.916 12.837L18.0449 12.1859L18.0729 12.1915L18.1094 12.2027L18.1514 12.214L18.1991 12.2252L18.2551 12.2364L18.3195 12.2504L18.384 12.2617L18.4541 12.2757L18.5297 12.2869L18.6082 12.2953L18.6895 12.3038L18.7735 12.3122L18.8604 12.3178H18.9473H19.0341L19.1238 12.315L19.2051 12.301L19.2723 12.2785L19.3256 12.2448L19.3676 12.2083L19.3984 12.1634L19.4209 12.1185L19.4405 12.0736L19.4517 12.0259L19.4573 11.9782V11.9361L19.4461 11.8968L19.4293 11.8631L19.4068 11.8323L19.3788 11.8014L19.3424 11.7761L19.3032 11.7509L19.2583 11.7284L19.2107 11.7032L19.1602 11.6807L19.107 11.6611L19.051 11.6414L18.9949 11.6162L18.9361 11.5937L18.8772 11.5685L18.8184 11.5432L18.7595 11.5179L18.7007 11.4871L18.6446 11.4534L18.5914 11.4169L18.5409 11.3776L18.4961 11.3327L18.4513 11.285L18.412 11.2317L18.3756 11.1728L18.3476 11.1082L18.3224 11.0408L18.3055 10.9623L18.2943 10.8809V10.7883L18.2999 10.69L18.3055 10.6311L18.3139 10.5722L18.3224 10.516L18.3336 10.4627L18.3476 10.4094L18.3616 10.3589L18.3812 10.3112L18.398 10.2635L18.4232 10.2185L18.4457 10.1764L18.4709 10.1372L18.5017 10.0979L18.5325 10.0614L18.5662 10.0249L18.5998 9.99122L18.639 9.96035L18.681 9.93229L18.7259 9.90422L18.7735 9.87896L18.8212 9.85371L18.8744 9.83406L18.9305 9.81441L18.9893 9.79758L19.051 9.78074L19.1154 9.7667L19.1855 9.75267L19.2555 9.74145L19.3312 9.73303L19.4096 9.72741L19.4909 9.72461L19.5778 9.71899H19.6647H19.7768L19.8748 9.7218L19.9645 9.72461L20.0458 9.72741L20.1186 9.73303L20.1859 9.73583L20.2475 9.74145L20.298 9.74706L20.3456 9.75267L20.3877 9.75828L20.4269 9.7639L20.4605 9.76951L20.4885 9.77512L20.5166 9.77793L20.5418 9.78074L20.5642 9.78354L20.4129 10.4571Z" fill="white"/>
<path d="M20.4129 10.4571L20.3736 10.4543L20.3316 10.4515L20.2952 10.4431L20.2559 10.4403L20.2195 10.4346L20.1831 10.429L20.1439 10.4206L20.1018 10.415L20.057 10.4094L20.0121 10.4066L19.9589 10.4038L19.9029 10.401H19.8412L19.7739 10.4038L19.6955 10.4066L19.6142 10.4122L19.5526 10.4206L19.4965 10.4346L19.4461 10.4515L19.4012 10.4683L19.3592 10.4908L19.3228 10.516L19.2892 10.5469L19.2667 10.575L19.2471 10.6086L19.2359 10.6423L19.2275 10.6788V10.7153L19.2359 10.7546L19.2499 10.7939L19.2723 10.8332L19.3032 10.8753L19.362 10.9286L19.4321 10.9707L19.5161 11.01L19.6058 11.0408L19.6983 11.0717L19.7964 11.1026L19.8972 11.1391L19.9925 11.1784L20.0794 11.2289L20.1663 11.2906L20.2391 11.3664L20.3008 11.459L20.3512 11.5685L20.3821 11.7032L20.3905 11.8603L20.3821 12.0484L20.3568 12.1859L20.3204 12.3122L20.2728 12.4244L20.2139 12.5227L20.1439 12.6097L20.0654 12.6854L19.9813 12.75L19.8888 12.8061L19.7936 12.851L19.6955 12.8875L19.5946 12.9184L19.4909 12.9408L19.39 12.9577L19.2892 12.9689L19.1967 12.9745L19.1014 12.9773H18.9725L18.8576 12.9745H18.7511L18.6558 12.9717L18.5662 12.9661L18.4849 12.9633L18.412 12.9577L18.3448 12.9493L18.2831 12.9408L18.2243 12.9296L18.171 12.9184L18.1178 12.9044L18.0673 12.8903L18.0169 12.8763L17.9693 12.8566L17.916 12.837L18.0449 12.1859L18.0729 12.1915L18.1094 12.2027L18.1514 12.214L18.1991 12.2252L18.2551 12.2364L18.3195 12.2504L18.384 12.2617L18.4541 12.2757L18.5297 12.2869L18.6082 12.2953L18.6895 12.3038L18.7735 12.3122L18.8604 12.3178H18.9473H19.0341L19.1238 12.315L19.2051 12.301L19.2723 12.2785L19.3256 12.2448L19.3676 12.2083L19.3984 12.1634L19.4209 12.1185L19.4405 12.0736L19.4517 12.0259L19.4573 11.9782V11.9361L19.4461 11.8968L19.4293 11.8631L19.4068 11.8323L19.3788 11.8014L19.3424 11.7761L19.3032 11.7509L19.2583 11.7284L19.2107 11.7032L19.1602 11.6807L19.107 11.6611L19.051 11.6414L18.9949 11.6162L18.9361 11.5937L18.8772 11.5685L18.8184 11.5432L18.7595 11.5179L18.7007 11.4871L18.6446 11.4534L18.5914 11.4169L18.5409 11.3776L18.4961 11.3327L18.4513 11.285L18.412 11.2317L18.3756 11.1728L18.3476 11.1082L18.3224 11.0408L18.3055 10.9623L18.2943 10.8809V10.7883L18.2999 10.69L18.3055 10.6311L18.3139 10.5722L18.3224 10.516L18.3336 10.4627L18.3476 10.4094L18.3616 10.3589L18.3812 10.3112L18.398 10.2635L18.4232 10.2185L18.4457 10.1764L18.4709 10.1372L18.5017 10.0979L18.5325 10.0614L18.5662 10.0249L18.5998 9.99122L18.639 9.96035L18.681 9.93229L18.7259 9.90422L18.7735 9.87896L18.8212 9.85371L18.8744 9.83406L18.9305 9.81441L18.9893 9.79758L19.051 9.78074L19.1154 9.7667L19.1855 9.75267L19.2555 9.74145L19.3312 9.73303L19.4096 9.72741L19.4909 9.72461L19.5778 9.71899H19.6647H19.7768L19.8748 9.7218L19.9645 9.72461L20.0458 9.72741L20.1186 9.73303L20.1859 9.73583L20.2475 9.74145L20.298 9.74706L20.3456 9.75267L20.3877 9.75828L20.4269 9.7639L20.4605 9.76951L20.4885 9.77512L20.5166 9.77793L20.5418 9.78074L20.5642 9.78354L20.4129 10.4571Z" stroke="white" stroke-width="0.21"/>
<path d="M21.0971 9.06787H21.9293L21.8004 9.79475H22.3133L22.1984 10.4571L21.6743 10.4459L21.3969 12.1017L21.3941 12.1354V12.1662L21.3969 12.1943L21.4053 12.2196L21.4193 12.2392L21.4333 12.2616L21.4502 12.2785L21.4726 12.2897L21.4978 12.3037L21.523 12.3122L21.551 12.3206L21.5791 12.3262L21.6127 12.3318L21.6463 12.3346H21.6827H21.7164H21.7836L21.8425 12.3318L21.8957 12.3234L21.9406 12.3122L21.977 12.3037L22.0022 12.2925L22.019 12.2841L22.0246 12.2813L21.9406 12.8482L21.9209 12.8622L21.8957 12.8707L21.8733 12.8819L21.8509 12.8931L21.8285 12.9015L21.8032 12.9099L21.778 12.9156L21.75 12.924L21.7192 12.9324L21.6884 12.9408L21.6547 12.9464L21.6183 12.952L21.5791 12.9577L21.537 12.9661L21.4894 12.9717L21.4389 12.9773H21.2148L21.0971 12.9689L20.9906 12.9577L20.8981 12.9408L20.8168 12.9156L20.7468 12.8931L20.6907 12.8622L20.6431 12.8258L20.6039 12.7865L20.573 12.7416L20.5478 12.6938L20.5338 12.6433L20.5282 12.5844L20.5254 12.5255L20.5282 12.4581L20.5338 12.3907L20.5422 12.315L21.0971 9.06787Z" fill="white"/>
<path d="M21.0971 9.06787H21.9293L21.8004 9.79475H22.3133L22.1984 10.4571L21.6743 10.4459L21.3969 12.1017L21.3941 12.1354V12.1662L21.3969 12.1943L21.4053 12.2196L21.4193 12.2392L21.4333 12.2616L21.4502 12.2785L21.4726 12.2897L21.4978 12.3037L21.523 12.3122L21.551 12.3206L21.5791 12.3262L21.6127 12.3318L21.6463 12.3346H21.6827H21.7164H21.7836L21.8425 12.3318L21.8957 12.3234L21.9406 12.3122L21.977 12.3037L22.0022 12.2925L22.019 12.2841L22.0246 12.2813L21.9406 12.8482L21.9209 12.8622L21.8957 12.8707L21.8733 12.8819L21.8509 12.8931L21.8285 12.9015L21.8032 12.9099L21.778 12.9156L21.75 12.924L21.7192 12.9324L21.6884 12.9408L21.6547 12.9464L21.6183 12.952L21.5791 12.9577L21.537 12.9661L21.4894 12.9717L21.4389 12.9773H21.2148L21.0971 12.9689L20.9906 12.9577L20.8981 12.9408L20.8168 12.9156L20.7468 12.8931L20.6907 12.8622L20.6431 12.8258L20.6039 12.7865L20.573 12.7416L20.5478 12.6938L20.5338 12.6433L20.5282 12.5844L20.5254 12.5255L20.5282 12.4581L20.5338 12.3907L20.5422 12.315L21.0971 9.06787Z" stroke="white" stroke-width="0.21"/>
<path d="M16.0303 11.5879L16.0191 11.6412L16.0163 11.6917L16.0219 11.7478L16.0331 11.8012L16.0499 11.8573L16.0752 11.9134L16.1032 11.9667L16.1396 12.0201L16.1788 12.0706L16.2237 12.1183L16.2713 12.1604L16.3246 12.1997L16.3806 12.2306L16.4366 12.2586L16.5011 12.2783L16.5628 12.2951L16.6384 12.3035L16.7113 12.3147L16.7869 12.3232L16.8654 12.326L16.9439 12.3288H17.0195L17.1008 12.326L17.1793 12.3176L17.2605 12.3063L17.3446 12.2923L17.4259 12.2698L17.5099 12.2446L17.594 12.2137L17.6809 12.1744L17.7649 12.1295L17.8518 12.079L17.7229 12.8171L17.6753 12.8424L17.6276 12.8648L17.5856 12.8845L17.538 12.9013L17.4931 12.9153L17.4483 12.9294L17.4006 12.9406L17.3474 12.949L17.2942 12.9574L17.2353 12.963L17.1709 12.9687L17.1036 12.9715L17.0279 12.9743H16.9467L16.8542 12.9771H16.7561H16.6833L16.6076 12.9743L16.5347 12.9687L16.4619 12.9602L16.3834 12.949L16.3105 12.9378L16.2349 12.9209L16.162 12.9041L16.0864 12.8817L16.0163 12.8592L15.9434 12.8311L15.8734 12.8003L15.8061 12.7638L15.7389 12.7273L15.6772 12.6852L15.6156 12.6403L15.5567 12.5898L15.5007 12.5365L15.4474 12.4775L15.3998 12.4158L15.355 12.3484L15.3129 12.2783L15.2765 12.1997L15.2429 12.1183L15.212 12.0313L15.1896 11.9415L15.17 11.8461L15.1588 11.7422L15.1504 11.6328V11.5205L15.156 11.4026L15.1644 11.2764L15.17 11.2343L15.1784 11.1837L15.1868 11.1332L15.1952 11.0799L15.2064 11.0238L15.2204 10.9648L15.2373 10.9059L15.2541 10.8413L15.2765 10.7796L15.2989 10.7151L15.3241 10.6505L15.355 10.5888L15.3858 10.5214L15.4222 10.4597L15.4615 10.3951L15.5035 10.3306L15.5511 10.2716L15.6016 10.2127L15.6548 10.1538L15.7137 10.1004L15.7753 10.0443L15.8454 9.9966L15.9182 9.94889L15.9967 9.90679L16.0808 9.8675L16.1676 9.83382L16.2601 9.80295L16.361 9.77769L16.4675 9.75805L16.5796 9.74121L16.6945 9.73279L16.8206 9.72998H16.8794L16.9355 9.73279L16.9971 9.7384L17.056 9.74401L17.1148 9.75243L17.1793 9.76647L17.2381 9.7805L17.2998 9.79734L17.3586 9.81418L17.4175 9.83663L17.4763 9.86189L17.5323 9.89276L17.5884 9.92643L17.6416 9.96011L17.6893 10.0022L17.7397 10.0443L17.7846 10.092L17.8294 10.1453L17.8686 10.2043L17.9051 10.2632L17.9387 10.3306L17.9667 10.4007L17.9919 10.4765L18.0087 10.5579L18.0256 10.6449L18.0368 10.7375L18.0424 10.8329V10.9396L18.034 11.049L18.0256 11.1641L18.0059 11.2876L17.9807 11.4167L17.9471 11.5991H15.7949L15.921 11.021H17.2129L17.2185 10.9424V10.8694L17.2157 10.8021L17.2045 10.7375L17.1877 10.6814L17.1652 10.6309L17.14 10.586L17.1064 10.5439L17.0728 10.5074L17.0335 10.4765L16.9915 10.4512L16.9495 10.4288L16.9018 10.412L16.8514 10.4007L16.7981 10.3951L16.7449 10.3923H16.6861L16.6328 10.4007L16.5796 10.4091L16.5291 10.4288L16.4815 10.4512L16.4366 10.4765L16.3918 10.5074L16.3526 10.5439L16.3161 10.586L16.2825 10.6281L16.2517 10.6758L16.2237 10.7291L16.1985 10.7824L16.176 10.8413L16.162 10.9031L16.1452 10.9676L16.0303 11.5879Z" fill="white"/>
<path d="M16.0303 11.5879L16.0191 11.6412L16.0163 11.6917L16.0219 11.7478L16.0331 11.8012L16.0499 11.8573L16.0752 11.9134L16.1032 11.9667L16.1396 12.0201L16.1788 12.0706L16.2237 12.1183L16.2713 12.1604L16.3246 12.1997L16.3806 12.2306L16.4366 12.2586L16.5011 12.2783L16.5628 12.2951L16.6384 12.3035L16.7113 12.3147L16.7869 12.3232L16.8654 12.326L16.9439 12.3288H17.0195L17.1008 12.326L17.1793 12.3176L17.2605 12.3063L17.3446 12.2923L17.4259 12.2698L17.5099 12.2446L17.594 12.2137L17.6809 12.1744L17.7649 12.1295L17.8518 12.079L17.7229 12.8171L17.6753 12.8424L17.6276 12.8648L17.5856 12.8845L17.538 12.9013L17.4931 12.9153L17.4483 12.9294L17.4006 12.9406L17.3474 12.949L17.2942 12.9574L17.2353 12.963L17.1709 12.9687L17.1036 12.9715L17.0279 12.9743H16.9467L16.8542 12.9771H16.7561H16.6833L16.6076 12.9743L16.5347 12.9687L16.4619 12.9602L16.3834 12.949L16.3105 12.9378L16.2349 12.9209L16.162 12.9041L16.0864 12.8817L16.0163 12.8592L15.9434 12.8311L15.8734 12.8003L15.8061 12.7638L15.7389 12.7273L15.6772 12.6852L15.6156 12.6403L15.5567 12.5898L15.5007 12.5365L15.4474 12.4775L15.3998 12.4158L15.355 12.3484L15.3129 12.2783L15.2765 12.1997L15.2429 12.1183L15.212 12.0313L15.1896 11.9415L15.17 11.8461L15.1588 11.7422L15.1504 11.6328V11.5205L15.156 11.4026L15.1644 11.2764L15.17 11.2343L15.1784 11.1837L15.1868 11.1332L15.1952 11.0799L15.2064 11.0238L15.2204 10.9648L15.2373 10.9059L15.2541 10.8413L15.2765 10.7796L15.2989 10.7151L15.3241 10.6505L15.355 10.5888L15.3858 10.5214L15.4222 10.4597L15.4615 10.3951L15.5035 10.3306L15.5511 10.2716L15.6016 10.2127L15.6548 10.1538L15.7137 10.1004L15.7753 10.0443L15.8454 9.9966L15.9182 9.94889L15.9967 9.90679L16.0808 9.8675L16.1676 9.83382L16.2601 9.80295L16.361 9.77769L16.4675 9.75805L16.5796 9.74121L16.6945 9.73279L16.8206 9.72998H16.8794L16.9355 9.73279L16.9971 9.7384L17.056 9.74401L17.1148 9.75243L17.1793 9.76647L17.2381 9.7805L17.2998 9.79734L17.3586 9.81418L17.4175 9.83663L17.4763 9.86189L17.5323 9.89276L17.5884 9.92643L17.6416 9.96011L17.6893 10.0022L17.7397 10.0443L17.7846 10.092L17.8294 10.1453L17.8686 10.2043L17.9051 10.2632L17.9387 10.3306L17.9667 10.4007L17.9919 10.4765L18.0087 10.5579L18.0256 10.6449L18.0368 10.7375L18.0424 10.8329V10.9396L18.034 11.049L18.0256 11.1641L18.0059 11.2876L17.9807 11.4167L17.9471 11.5991H15.7949L15.921 11.021H17.2129L17.2185 10.9424V10.8694L17.2157 10.8021L17.2045 10.7375L17.1877 10.6814L17.1652 10.6309L17.14 10.586L17.1064 10.5439L17.0728 10.5074L17.0335 10.4765L16.9915 10.4512L16.9495 10.4288L16.9018 10.412L16.8514 10.4007L16.7981 10.3951L16.7449 10.3923H16.6861L16.6328 10.4007L16.5796 10.4091L16.5291 10.4288L16.4815 10.4512L16.4366 10.4765L16.3918 10.5074L16.3526 10.5439L16.3161 10.586L16.2825 10.6281L16.2517 10.6758L16.2237 10.7291L16.1985 10.7824L16.176 10.8413L16.162 10.9031L16.1452 10.9676L16.0303 11.5879Z" stroke="white" stroke-width="0.21"/>
<path d="M14.8761 12.3148L14.7556 12.9771H14.0074L14.0158 12.9153L14.0242 12.8536L14.0326 12.7975L14.041 12.7441L14.0494 12.7021L14.055 12.6628L14.0634 12.6375L14.0718 12.6235L14.0326 12.6712L13.9822 12.7161L13.9261 12.7582L13.8645 12.8003L13.7944 12.8396L13.7187 12.8761L13.6403 12.9097L13.559 12.9406L13.4749 12.9687L13.3881 12.9911L13.3012 13.008L13.2143 13.022L13.1275 13.0276H13.0406L12.9593 13.022L12.8781 13.0108L12.7716 12.9855L12.6791 12.9518L12.595 12.9125L12.5194 12.8676L12.4521 12.8227L12.3961 12.7666L12.3484 12.7105L12.3064 12.6487L12.27 12.587L12.2419 12.5224L12.2195 12.4551L12.1999 12.3877L12.1887 12.3204L12.1803 12.253L12.1747 12.1857L12.1719 12.1211L12.1831 12.006L12.1999 11.8966L12.2279 11.7899L12.2672 11.6889L12.3148 11.5963L12.368 11.5093L12.4325 11.4279L12.4997 11.3521L12.5782 11.282L12.6595 11.223L12.7463 11.1669L12.836 11.1192L12.9313 11.0771L13.0294 11.0434L13.1303 11.0182L13.2311 11.0013H13.234L13.248 10.9985L13.2732 10.9957L13.304 10.9929L13.3376 10.9873L13.3797 10.9845L13.4273 10.9789L13.4749 10.9733L13.5254 10.9705L13.5758 10.962L13.6263 10.9592L13.6767 10.9536L13.7216 10.9508L13.7664 10.948H13.8056H13.8393H13.8729H13.9093H13.9429H13.9822H14.0158L14.0494 10.9508H14.0831H14.1167L14.1447 10.9536H14.1727H14.1951H14.2148L14.2316 10.9564H14.2456H14.254L14.2624 10.9368L14.2764 10.8863L14.2876 10.8273V10.7768L14.282 10.7375L14.2764 10.7038L14.2652 10.6702L14.2512 10.6393L14.2344 10.6112L14.2148 10.5832L14.1923 10.5579L14.1671 10.5326L14.1419 10.513L14.1139 10.4962L14.0831 10.4793L14.0522 10.4653L14.0186 10.4541L13.9822 10.4456L13.9485 10.44L13.9121 10.4372L13.828 10.4344L13.7384 10.4372H13.6459L13.5506 10.4428L13.4553 10.4513L13.3601 10.4597L13.2648 10.4681L13.1695 10.4793L13.0826 10.4934L12.9958 10.5074L12.9201 10.5214L12.8472 10.5383L12.7828 10.5551L12.7295 10.5691L12.6847 10.5888L12.6539 10.6056L12.8669 9.90118L12.9285 9.87031L12.9958 9.84505L13.063 9.8198L13.1331 9.80296L13.2059 9.78892L13.2816 9.77489L13.3601 9.76647L13.4385 9.75805L13.5226 9.75244L13.6095 9.74963L13.6963 9.74683H13.786H13.8813H13.9766L14.0774 9.74963H14.1811L14.2652 9.75805L14.3549 9.77208L14.4473 9.79454L14.5398 9.8198L14.6351 9.85628L14.7276 9.90118L14.8145 9.94889L14.8985 10.0078L14.9742 10.0752L15.0414 10.1482L15.1003 10.2295L15.1451 10.3165L15.1788 10.4148L15.1984 10.5214L15.2012 10.6337L15.1844 10.7544L14.8761 12.3148Z" fill="white"/>
<path d="M14.8761 12.3148L14.7556 12.9771H14.0074L14.0158 12.9153L14.0242 12.8536L14.0326 12.7975L14.041 12.7441L14.0494 12.7021L14.055 12.6628L14.0634 12.6375L14.0718 12.6235L14.0326 12.6712L13.9822 12.7161L13.9261 12.7582L13.8645 12.8003L13.7944 12.8396L13.7187 12.8761L13.6403 12.9097L13.559 12.9406L13.4749 12.9687L13.3881 12.9911L13.3012 13.008L13.2143 13.022L13.1275 13.0276H13.0406L12.9593 13.022L12.8781 13.0108L12.7716 12.9855L12.6791 12.9518L12.595 12.9125L12.5194 12.8676L12.4521 12.8227L12.3961 12.7666L12.3484 12.7105L12.3064 12.6487L12.27 12.587L12.2419 12.5224L12.2195 12.4551L12.1999 12.3877L12.1887 12.3204L12.1803 12.253L12.1747 12.1857L12.1719 12.1211L12.1831 12.006L12.1999 11.8966L12.2279 11.7899L12.2672 11.6889L12.3148 11.5963L12.368 11.5093L12.4325 11.4279L12.4997 11.3521L12.5782 11.282L12.6595 11.223L12.7463 11.1669L12.836 11.1192L12.9313 11.0771L13.0294 11.0434L13.1303 11.0182L13.2311 11.0013H13.234L13.248 10.9985L13.2732 10.9957L13.304 10.9929L13.3376 10.9873L13.3797 10.9845L13.4273 10.9789L13.4749 10.9733L13.5254 10.9705L13.5758 10.962L13.6263 10.9592L13.6767 10.9536L13.7216 10.9508L13.7664 10.948H13.8056H13.8393H13.8729H13.9093H13.9429H13.9822H14.0158L14.0494 10.9508H14.0831H14.1167L14.1447 10.9536H14.1727H14.1951H14.2148L14.2316 10.9564H14.2456H14.254L14.2624 10.9368L14.2764 10.8863L14.2876 10.8273V10.7768L14.282 10.7375L14.2764 10.7038L14.2652 10.6702L14.2512 10.6393L14.2344 10.6112L14.2148 10.5832L14.1923 10.5579L14.1671 10.5326L14.1419 10.513L14.1139 10.4962L14.0831 10.4793L14.0522 10.4653L14.0186 10.4541L13.9822 10.4456L13.9485 10.44L13.9121 10.4372L13.828 10.4344L13.7384 10.4372H13.6459L13.5506 10.4428L13.4553 10.4513L13.3601 10.4597L13.2648 10.4681L13.1695 10.4793L13.0826 10.4934L12.9958 10.5074L12.9201 10.5214L12.8472 10.5383L12.7828 10.5551L12.7295 10.5691L12.6847 10.5888L12.6539 10.6056L12.8669 9.90118L12.9285 9.87031L12.9958 9.84505L13.063 9.8198L13.1331 9.80296L13.2059 9.78892L13.2816 9.77489L13.3601 9.76647L13.4385 9.75805L13.5226 9.75244L13.6095 9.74963L13.6963 9.74683H13.786H13.8813H13.9766L14.0774 9.74963H14.1811L14.2652 9.75805L14.3549 9.77208L14.4473 9.79454L14.5398 9.8198L14.6351 9.85628L14.7276 9.90118L14.8145 9.94889L14.8985 10.0078L14.9742 10.0752L15.0414 10.1482L15.1003 10.2295L15.1451 10.3165L15.1788 10.4148L15.1984 10.5214L15.2012 10.6337L15.1844 10.7544L14.8761 12.3148Z" stroke="white" stroke-width="0.21"/>
<path d="M14.1608 11.5348L14.158 11.5179L14.1468 11.5039L14.1272 11.4955L14.0992 11.4899L14.0656 11.4843L14.0263 11.4814H13.9843H13.9366L13.889 11.4871L13.8414 11.4927L13.7937 11.4983L13.7461 11.5067L13.6985 11.5151L13.6564 11.5235L13.6172 11.5348L13.5864 11.5432L13.5667 11.5488L13.5415 11.5572L13.5107 11.5684L13.4771 11.5825L13.4406 11.5965L13.4014 11.6162L13.3622 11.6386L13.3229 11.6611L13.2837 11.6891L13.2473 11.7228L13.2109 11.7537L13.18 11.793L13.152 11.8323L13.1324 11.8744L13.1156 11.9221L13.1044 11.9726L13.1016 12.0736L13.1156 12.1522L13.138 12.2139L13.1772 12.2616L13.2221 12.2925L13.2697 12.3122L13.3229 12.3234L13.3706 12.3262L13.4631 12.3234L13.5443 12.315L13.62 12.3009L13.69 12.2813L13.7517 12.2616L13.8077 12.2364L13.8554 12.2083L13.9002 12.1746L13.9394 12.1438L13.9731 12.1101L14.0011 12.0764L14.0263 12.0399L14.0487 12.0063L14.0656 11.9726L14.0768 11.9389L14.088 11.908L14.0964 11.8631L14.1076 11.8154L14.1188 11.7649L14.13 11.7116L14.1356 11.6639L14.144 11.6162L14.1524 11.5741L14.1608 11.5348Z" fill="#0084C4"/>
<path d="M8.61931 12.9773H7.80664L8.4904 9.06787H9.89996L10.0373 11.3944L10.9985 9.06787H12.4613L11.7775 12.9773H10.9676L11.4805 10.0501H11.4496L10.2418 12.9773H9.33389L9.32548 12.8538L9.30587 12.5283L9.28065 12.068L9.24983 11.5376L9.219 11.0043L9.19098 10.5329L9.17136 10.1933L9.16295 10.0501H9.16015H9.15455H9.14614H9.13493H9.12652H9.12372H9.12933L8.61931 12.9773Z" fill="white"/>
<path d="M8.61931 12.9773H7.80664L8.4904 9.06787H9.89996L10.0373 11.3944L10.9985 9.06787H12.4613L11.7775 12.9773H10.9676L11.4805 10.0501H11.4496L10.2418 12.9773H9.33389L9.32548 12.8538L9.30587 12.5283L9.28065 12.068L9.24983 11.5376L9.219 11.0043L9.19098 10.5329L9.17136 10.1933L9.16295 10.0501H9.16015H9.15455H9.14614H9.13493H9.12652H9.12372H9.12933L8.61931 12.9773Z" stroke="white" stroke-width="0.21"/>
<path d="M22.1641 12.9772H23.0076L23.2962 11.2905L23.3074 11.2232L23.3242 11.1586L23.3382 11.0941L23.3607 11.0351L23.3831 10.9734L23.4111 10.9173L23.4475 10.8639L23.4868 10.8106L23.5344 10.7657L23.5876 10.7236L23.6521 10.6871L23.7221 10.6534L23.8062 10.6282L23.8987 10.6057L24.0024 10.5945L24.1201 10.5861H24.1285L24.1425 10.5889H24.1593H24.1733L24.1901 10.5917L24.2013 10.5945H24.2098H24.2154V10.5833L24.2238 10.5468L24.235 10.4935L24.2518 10.4261L24.2714 10.3475L24.2938 10.2661L24.3218 10.182L24.3527 10.1034L24.3751 10.0444L24.4031 9.98831L24.4311 9.93498L24.4592 9.88166L24.4844 9.83676L24.504 9.80308L24.518 9.78063L24.5236 9.77221H24.518L24.5096 9.76659H24.4928L24.4732 9.76098L24.4536 9.75817L24.4283 9.75537L24.4059 9.74976H24.3835L24.2938 9.75817L24.2098 9.76659L24.1341 9.78343L24.064 9.80308L23.9968 9.82834L23.9379 9.8536L23.8791 9.88727L23.8258 9.92376L23.7754 9.96305L23.7278 10.0051L23.6829 10.0529L23.6381 10.1006L23.5932 10.1539L23.554 10.21L23.5092 10.269L23.4671 10.3279L23.5624 9.79466L22.7189 9.78343L22.1641 12.9772Z" fill="white"/>
<path d="M22.1641 12.9772H23.0076L23.2962 11.2905L23.3074 11.2232L23.3242 11.1586L23.3382 11.0941L23.3607 11.0351L23.3831 10.9734L23.4111 10.9173L23.4475 10.8639L23.4868 10.8106L23.5344 10.7657L23.5876 10.7236L23.6521 10.6871L23.7221 10.6534L23.8062 10.6282L23.8987 10.6057L24.0024 10.5945L24.1201 10.5861H24.1285L24.1425 10.5889H24.1593H24.1733L24.1901 10.5917L24.2013 10.5945H24.2098H24.2154V10.5833L24.2238 10.5468L24.235 10.4935L24.2518 10.4261L24.2714 10.3475L24.2938 10.2661L24.3218 10.182L24.3527 10.1034L24.3751 10.0444L24.4031 9.98831L24.4311 9.93498L24.4592 9.88166L24.4844 9.83676L24.504 9.80308L24.518 9.78063L24.5236 9.77221H24.518L24.5096 9.76659H24.4928L24.4732 9.76098L24.4536 9.75817L24.4283 9.75537L24.4059 9.74976H24.3835L24.2938 9.75817L24.2098 9.76659L24.1341 9.78343L24.064 9.80308L23.9968 9.82834L23.9379 9.8536L23.8791 9.88727L23.8258 9.92376L23.7754 9.96305L23.7278 10.0051L23.6829 10.0529L23.6381 10.1006L23.5932 10.1539L23.554 10.21L23.5092 10.269L23.4671 10.3279L23.5624 9.79466L22.7189 9.78343L22.1641 12.9772Z" stroke="white" stroke-width="0.21"/>
<path d="M25.8157 9.74976L25.9082 9.75256L25.9979 9.75817L26.0875 9.76659L26.1744 9.78063L26.2585 9.79747L26.3398 9.81711L26.4154 9.83956L26.4911 9.86763L26.5639 9.8985L26.634 9.93218L26.7013 9.96585L26.7657 10.0051L26.8274 10.05L26.8834 10.095L26.9394 10.1427L26.9899 10.196L27.0403 10.2493L27.0852 10.3082L27.1272 10.3644L27.1664 10.4289L27.2029 10.4907L27.2365 10.5608L27.2645 10.6282L27.2897 10.7012L27.315 10.7741L27.3318 10.8499L27.3486 10.9313L27.3626 11.0099L27.371 11.0913L27.3738 11.1783L27.3766 11.2653L27.3738 11.3523L27.3682 11.4589L27.3542 11.5599L27.3402 11.6554L27.3234 11.7536L27.3009 11.8434L27.2729 11.9304L27.2449 12.0146L27.2141 12.096L27.1776 12.1746L27.1384 12.2475L27.0964 12.3177L27.0515 12.385L27.0039 12.4496L26.9535 12.5113L26.9002 12.5647L26.8442 12.6208L26.7853 12.6713L26.7265 12.719L26.662 12.7611L26.5976 12.8004L26.5275 12.8369L26.4575 12.8706L26.3874 12.9014L26.3117 12.9295L26.2389 12.9548L26.1576 12.9744L26.0791 12.9912L26.0007 13.0053L25.9194 13.0165L25.8353 13.0249L25.7513 13.0277L25.6644 13.0305L25.5803 13.0277L25.4963 13.0249L25.415 13.0165L25.3337 13.0053L25.2553 12.9884L25.1768 12.9744L25.1011 12.952L25.0283 12.9267L24.9554 12.9014L24.8882 12.8678L24.8209 12.8369L24.7564 12.7976L24.6948 12.7583L24.6388 12.7162L24.5799 12.6713L24.5267 12.6208L24.4762 12.5675L24.4258 12.5113L24.3809 12.4552L24.3389 12.3907L24.3025 12.3261L24.2632 12.2587L24.2324 12.1886L24.2044 12.1156L24.1792 12.0398L24.1568 11.9585L24.1371 11.8743L24.1231 11.7901L24.1119 11.7003L24.1063 11.6076L24.1035 11.5122L24.1063 11.4168L24.1119 11.3158L24.1231 11.2204L24.1371 11.1277L24.1568 11.0379L24.1764 10.9509L24.2016 10.8667L24.2296 10.7853L24.2604 10.7068L24.2941 10.6282L24.3305 10.5552L24.3725 10.4879L24.4146 10.4205L24.4622 10.356L24.5098 10.2942L24.5631 10.2381L24.6163 10.182L24.6752 10.1314L24.734 10.0837L24.7957 10.0388L24.8601 9.99673L24.9302 9.95743L25.0002 9.92095L25.0731 9.89008L25.146 9.85921L25.2216 9.83676L25.3001 9.8143L25.3814 9.79466L25.4654 9.77782L25.5495 9.76659L25.6364 9.75817L25.7261 9.75256L25.8157 9.74976Z" fill="white"/>
<path d="M25.8157 9.74976L25.9082 9.75256L25.9979 9.75817L26.0875 9.76659L26.1744 9.78063L26.2585 9.79747L26.3398 9.81711L26.4154 9.83956L26.4911 9.86763L26.5639 9.8985L26.634 9.93218L26.7013 9.96585L26.7657 10.0051L26.8274 10.05L26.8834 10.095L26.9394 10.1427L26.9899 10.196L27.0403 10.2493L27.0852 10.3082L27.1272 10.3644L27.1664 10.4289L27.2029 10.4907L27.2365 10.5608L27.2645 10.6282L27.2897 10.7012L27.315 10.7741L27.3318 10.8499L27.3486 10.9313L27.3626 11.0099L27.371 11.0913L27.3738 11.1783L27.3766 11.2653L27.3738 11.3523L27.3682 11.4589L27.3542 11.5599L27.3402 11.6554L27.3234 11.7536L27.3009 11.8434L27.2729 11.9304L27.2449 12.0146L27.2141 12.096L27.1776 12.1746L27.1384 12.2475L27.0964 12.3177L27.0515 12.385L27.0039 12.4496L26.9535 12.5113L26.9002 12.5647L26.8442 12.6208L26.7853 12.6713L26.7265 12.719L26.662 12.7611L26.5976 12.8004L26.5275 12.8369L26.4575 12.8706L26.3874 12.9014L26.3117 12.9295L26.2389 12.9548L26.1576 12.9744L26.0791 12.9912L26.0007 13.0053L25.9194 13.0165L25.8353 13.0249L25.7513 13.0277L25.6644 13.0305L25.5803 13.0277L25.4963 13.0249L25.415 13.0165L25.3337 13.0053L25.2553 12.9884L25.1768 12.9744L25.1011 12.952L25.0283 12.9267L24.9554 12.9014L24.8882 12.8678L24.8209 12.8369L24.7564 12.7976L24.6948 12.7583L24.6388 12.7162L24.5799 12.6713L24.5267 12.6208L24.4762 12.5675L24.4258 12.5113L24.3809 12.4552L24.3389 12.3907L24.3025 12.3261L24.2632 12.2587L24.2324 12.1886L24.2044 12.1156L24.1792 12.0398L24.1568 11.9585L24.1371 11.8743L24.1231 11.7901L24.1119 11.7003L24.1063 11.6076L24.1035 11.5122L24.1063 11.4168L24.1119 11.3158L24.1231 11.2204L24.1371 11.1277L24.1568 11.0379L24.1764 10.9509L24.2016 10.8667L24.2296 10.7853L24.2604 10.7068L24.2941 10.6282L24.3305 10.5552L24.3725 10.4879L24.4146 10.4205L24.4622 10.356L24.5098 10.2942L24.5631 10.2381L24.6163 10.182L24.6752 10.1314L24.734 10.0837L24.7957 10.0388L24.8601 9.99673L24.9302 9.95743L25.0002 9.92095L25.0731 9.89008L25.146 9.85921L25.2216 9.83676L25.3001 9.8143L25.3814 9.79466L25.4654 9.77782L25.5495 9.76659L25.6364 9.75817L25.7261 9.75256L25.8157 9.74976Z" stroke="white" stroke-width="0.21"/>
<path d="M27.0527 12.8174H27.2993V12.8483H27.2013V13.0531H27.148V12.8483H27.0527V12.8174Z" fill="white"/>
<path d="M27.0527 12.8174H27.2993V12.8483H27.2013V13.0531H27.148V12.8483H27.0527V12.8174Z" stroke="white" stroke-width="0.21"/>
<path d="M27.3281 12.8174H27.4038L27.4907 12.997L27.5747 12.8174H27.6504V13.0531H27.5971V12.8707L27.5131 13.0531H27.4682L27.3842 12.8707V13.0531H27.3281V12.8174Z" fill="white"/>
<path d="M27.3281 12.8174H27.4038L27.4907 12.997L27.5747 12.8174H27.6504V13.0531H27.5971V12.8707L27.5131 13.0531H27.4682L27.3842 12.8707V13.0531H27.3281V12.8174Z" stroke="white" stroke-width="0.21"/>
<path d="M25.1544 11.2765L25.1404 11.3916L25.1348 11.501V11.5993L25.1404 11.6891L25.1544 11.7733L25.1712 11.8462L25.1964 11.9136L25.2244 11.9725L25.2581 12.023L25.2973 12.068L25.3421 12.1044L25.3898 12.1353L25.4402 12.1578L25.4991 12.1746L25.5607 12.183L25.6252 12.1858L25.6952 12.183L25.7625 12.1746L25.8269 12.1606L25.8886 12.1381L25.9474 12.11L26.0035 12.0736L26.0567 12.0287L26.1044 11.9753L26.1492 11.9192L26.1912 11.8519L26.2305 11.7761L26.2613 11.6947L26.2949 11.6077L26.3201 11.5095L26.3426 11.4028L26.3594 11.2906L26.3706 11.2007L26.3762 11.1137V11.0324L26.3706 10.9538L26.3594 10.8808L26.3426 10.8106L26.3201 10.7461L26.2949 10.6844L26.2613 10.631L26.2221 10.5861L26.18 10.544L26.1324 10.5104L26.0791 10.4823L26.0203 10.4683L25.9586 10.457H25.8886L25.8045 10.4626L25.7261 10.4767L25.6532 10.5019L25.5859 10.5328L25.5215 10.5749L25.4654 10.6198L25.4122 10.6731L25.3674 10.7321L25.3225 10.7938L25.2861 10.8584L25.2525 10.9257L25.2272 10.9959L25.202 11.066L25.1796 11.139L25.1656 11.2092L25.1544 11.2765Z" fill="#EC1C2E"/>
</svg>
