<svg width="36" height="22" viewBox="0 0 36 22" fill="none" xmlns="http://www.w3.org/2000/svg">
<path d="M33.9779 0H1.17136C0.524435 0 0 0.525219 0 1.17311V20.8269C0 21.4748 0.524435 22 1.17136 22H33.9779C34.6249 22 35.1493 21.4748 35.1493 20.8269V1.17311C35.1493 0.525219 34.6249 0 33.9779 0Z" fill="#E2E2E2"/>
<path fill-rule="evenodd" clip-rule="evenodd" d="M21.794 17.3161L22.119 17.3076L22.4413 17.2852L22.7552 17.2431L23.069 17.187L23.3717 17.1168L23.6743 17.0326L23.9658 16.9316L24.2544 16.8193L24.5346 16.693L24.8064 16.5527L25.0699 16.4011L25.3277 16.2356L25.5743 16.0587L25.8125 15.8707L26.0423 15.6743L26.2608 15.4638L26.471 15.2421L26.67 15.0119L26.8577 14.7762L27.0343 14.5264L27.1968 14.271L27.3509 14.0044L27.4883 13.7322L27.6172 13.4515L27.7292 13.1653L27.8301 12.8706L27.9142 12.5703L27.9843 12.2644L28.0403 11.9529L28.0795 11.6357L28.1048 11.3158L28.1132 10.9902L28.1048 10.6647L28.0795 10.3448L28.0403 10.0304L27.9843 9.72171L27.9142 9.41581L27.8301 9.11832L27.7292 8.82364L27.6172 8.54019L27.4883 8.25954L27.3509 7.98731L27.1968 7.72631L27.0343 7.46811L26.8577 7.22114L26.67 6.9854L26.471 6.75526L26.2608 6.53355L26.0423 6.32587L25.8125 6.12661L25.5743 5.94139L25.3277 5.76458L25.0699 5.59899L24.8064 5.44744L24.5346 5.30993L24.2544 5.18083L23.9658 5.06857L23.6743 4.96754L23.3717 4.88334L23.069 4.81318L22.7552 4.75705L22.4413 4.71776L22.119 4.69531L21.794 4.68408L21.4717 4.69531L21.1494 4.71776L20.8356 4.75705L20.5245 4.81318L20.2219 4.88334L19.922 4.96754L19.6278 5.06857L19.342 5.18083L19.0617 5.30993L18.7927 5.44744L18.5293 5.59899L18.2743 5.76458L18.0277 5.94139L17.7895 6.12661L17.5625 6.32587L17.3411 6.53355L17.1337 6.75526L16.9348 6.9854L16.7498 7.22114L16.5733 7.46811L16.4107 7.72631L16.2594 7.98731L16.1193 8.25954L15.9932 8.54019L15.8811 8.82364L15.783 9.11832L15.699 9.41581L15.6289 9.72171L15.5729 10.0304L15.5336 10.3448L15.5084 10.6647L15.5 10.9902L15.5084 11.3158L15.5336 11.6357L15.5729 11.9529L15.6289 12.2644L15.699 12.5703L15.783 12.8706L15.8811 13.1653L15.9932 13.4515L16.1193 13.7322L16.2594 14.0044L16.4107 14.271L16.5733 14.5264L16.7498 14.7762L16.9348 15.0119L17.1337 15.2421L17.3411 15.4638L17.5625 15.6743L17.7895 15.8707L18.0277 16.0587L18.2743 16.2356L18.5293 16.4011L18.7927 16.5527L19.0617 16.693L19.342 16.8193L19.6278 16.9316L19.922 17.0326L20.2219 17.1168L20.5245 17.187L20.8356 17.2431L21.1494 17.2852L21.4717 17.3076L21.794 17.3161Z" fill="#FBB231"/>
<path fill-rule="evenodd" clip-rule="evenodd" d="M13.3602 17.3161L13.6825 17.3076L14.0047 17.2852L14.3186 17.2431L14.6297 17.187L14.9323 17.1168L15.2321 17.0326L15.5236 16.9316L15.8122 16.8193L16.0897 16.693L16.3615 16.5527L16.6249 16.4011L16.8799 16.2356L17.1265 16.0587L17.3647 15.8707L17.5917 15.6743L17.8103 15.4638L18.0204 15.2421L18.2194 15.0119L18.4044 14.7762L18.5781 14.5264L18.7434 14.271L18.8948 14.0044L19.0349 13.7322L19.161 13.4515L19.2731 13.1653L19.3712 12.8706L19.4552 12.5703L19.5253 12.2644L19.5813 11.9529L19.6206 11.6357L19.6458 11.3158L19.6542 10.9902L19.6458 10.6647L19.6206 10.3448L19.5813 10.0304L19.5253 9.72171L19.4552 9.41581L19.3712 9.11832L19.2731 8.82364L19.161 8.54019L19.0349 8.25954L18.8948 7.98731L18.7434 7.72631L18.5781 7.46811L18.4044 7.22114L18.2194 6.9854L18.0204 6.75526L17.8103 6.53355L17.5917 6.32587L17.3647 6.12661L17.1265 5.94139L16.8799 5.76458L16.6249 5.59899L16.3615 5.44744L16.0897 5.30993L15.8122 5.18083L15.5236 5.06857L15.2321 4.96754L14.9323 4.88334L14.6297 4.81318L14.3186 4.75705L14.0047 4.71776L13.6825 4.69531L13.3602 4.68408L13.0351 4.69531L12.7129 4.71776L12.399 4.75705L12.0852 4.81318L11.7797 4.88334L11.4799 4.96754L11.1884 5.06857L10.8998 5.18083L10.6196 5.30993L10.3477 5.44744L10.0843 5.59899L9.82651 5.76458L9.5799 5.94139L9.34171 6.12661L9.11192 6.32587L8.89334 6.53355L8.68317 6.75526L8.4842 6.9854L8.29645 7.22114L8.1199 7.46811L7.95737 7.72631L7.80324 7.98731L7.66593 8.25954L7.53702 8.54019L7.42493 8.82364L7.32405 9.11832L7.23998 9.41581L7.16992 9.72171L7.11387 10.0304L7.07464 10.3448L7.04942 10.6647L7.04102 10.9902L7.04942 11.3158L7.07464 11.6357L7.11387 11.9529L7.16992 12.2644L7.23998 12.5703L7.32405 12.8706L7.42493 13.1653L7.53702 13.4515L7.66593 13.7322L7.80324 14.0044L7.95737 14.271L8.1199 14.5264L8.29645 14.7762L8.4842 15.0119L8.68317 15.2421L8.89334 15.4638L9.11192 15.6743L9.34171 15.8707L9.5799 16.0587L9.82651 16.2356L10.0843 16.4011L10.3477 16.5527L10.6196 16.693L10.8998 16.8193L11.1884 16.9316L11.4799 17.0326L11.7797 17.1168L12.0852 17.187L12.399 17.2431L12.7129 17.2852L13.0351 17.3076L13.3602 17.3161Z" fill="#EC1C2E"/>
<path fill-rule="evenodd" clip-rule="evenodd" d="M16.8398 7.10887H20.1886V6.76367H17.1285L16.8398 7.10887Z" fill="#FBB231"/>
<path fill-rule="evenodd" clip-rule="evenodd" d="M16.3359 7.86949H20.1891V7.5271H16.5377L16.3359 7.86949Z" fill="#FBB231"/>
<path fill-rule="evenodd" clip-rule="evenodd" d="M15.9629 8.62974H20.1888V8.28735H16.1114L15.9629 8.62974Z" fill="#FBB231"/>
<path fill-rule="evenodd" clip-rule="evenodd" d="M15.7051 9.39342H20.1888V9.05103H15.8116L15.7051 9.39342Z" fill="#FBB231"/>
<path fill-rule="evenodd" clip-rule="evenodd" d="M15.8545 13.0782H20.2009V12.7358H15.748L15.8545 13.0782Z" fill="#FBB231"/>
<path fill-rule="evenodd" clip-rule="evenodd" d="M16.1754 13.8417H20.1995V13.4993H16.0156L16.1754 13.8417Z" fill="#FBB231"/>
<path fill-rule="evenodd" clip-rule="evenodd" d="M16.6279 14.6022H20.2008V14.2598H16.4121L16.6279 14.6022Z" fill="#FBB231"/>
<path fill-rule="evenodd" clip-rule="evenodd" d="M17.2471 15.3655H20.2007V15.0203H16.9473L17.2471 15.3655Z" fill="#FBB231"/>
<path fill-rule="evenodd" clip-rule="evenodd" d="M15.5527 10.1539H20.1877V9.81152H15.62L15.5527 10.1539Z" fill="#FBB231"/>
<path fill-rule="evenodd" clip-rule="evenodd" d="M18.377 12.3175H20.1452V11.9751H18.4414L18.377 12.3175Z" fill="#FBB231"/>
<path fill-rule="evenodd" clip-rule="evenodd" d="M18.5176 11.5571H20.1457V11.2119H18.582L18.5176 11.5571Z" fill="#FBB231"/>
<path fill-rule="evenodd" clip-rule="evenodd" d="M15.4375 11.2119H15.8971V11.5571H15.4599L15.4375 11.2119Z" fill="#FBB231"/>
<path fill-rule="evenodd" clip-rule="evenodd" d="M14.578 10.7965L14.55 10.7937L14.5192 10.7909L14.4912 10.7881L14.4631 10.7825L14.4379 10.7797L14.4099 10.7741L14.3847 10.7685L14.3539 10.7657L14.323 10.7601H14.2894L14.253 10.7572L14.2109 10.7544H14.1661L14.1185 10.7572L14.0624 10.7601L14.0008 10.7657L13.9587 10.7713L13.9167 10.7797L13.8803 10.7909L13.8494 10.8021L13.8186 10.819L13.7934 10.8358L13.771 10.8583L13.7514 10.8751L13.7402 10.9004L13.7289 10.9228L13.7233 10.9481V10.9733L13.7289 11.0014L13.7402 11.0295L13.757 11.0575L13.7766 11.0856L13.8186 11.1249L13.8719 11.1586L13.9307 11.1838L13.9952 11.2091L14.0624 11.2287L14.1325 11.254L14.2025 11.2793L14.2698 11.3073L14.3342 11.3438L14.3931 11.3887L14.4463 11.442L14.4912 11.5066L14.5248 11.588L14.5472 11.6834L14.5556 11.7984L14.5472 11.9332L14.5332 12.0342L14.508 12.1212L14.4716 12.2026L14.4295 12.2727L14.3819 12.3345L14.3258 12.385L14.267 12.4327L14.1997 12.4748L14.1325 12.5057L14.0624 12.5337L13.9896 12.5534L13.9167 12.573L13.8438 12.5843L13.7738 12.5899L13.7037 12.5955L13.6365 12.5983H13.544L13.4599 12.5955H13.3843L13.3142 12.5927L13.2525 12.5899L13.1937 12.5871L13.1433 12.5815L13.0956 12.5758L13.0508 12.573L13.0087 12.5646L12.9695 12.5562L12.9331 12.545L12.8967 12.5366L12.863 12.5253L12.8294 12.5113L12.793 12.5001L12.8882 12.0286L12.9079 12.0342L12.9303 12.0398L12.9611 12.0482L12.9975 12.0566L13.034 12.0651L13.0788 12.0735L13.1236 12.0847L13.1741 12.0931L13.2273 12.1015L13.2834 12.11L13.3422 12.1156L13.4011 12.1212L13.4627 12.124L13.5244 12.1268H13.586L13.6477 12.124L13.7093 12.1128L13.757 12.0931L13.7962 12.0707L13.827 12.0426L13.8466 12.0117L13.8635 11.9781L13.8747 11.9444L13.8831 11.9107L13.8887 11.849L13.8691 11.7956L13.8326 11.7535L13.7794 11.7171L13.7149 11.6862L13.6421 11.6525L13.558 11.6244L13.4739 11.5908L13.3899 11.5515L13.3086 11.5066L13.2357 11.4504L13.1657 11.3859L13.1124 11.3045L13.076 11.2091L13.0564 11.094L13.0592 10.9565L13.0704 10.8751L13.0844 10.7937L13.104 10.7236L13.1292 10.6534L13.1657 10.5917L13.2021 10.5355L13.2469 10.4822L13.3002 10.4345L13.3618 10.3952L13.4319 10.3615L13.5076 10.3279L13.5916 10.3054L13.6869 10.2858L13.7934 10.2717L13.9083 10.2633L14.0316 10.2605H14.1101L14.1829 10.2633L14.2502 10.2661H14.309L14.3623 10.2717L14.4099 10.2745L14.4547 10.2801L14.4912 10.2829L14.5276 10.2886L14.5584 10.2942L14.5864 10.2998L14.6117 10.3026L14.6313 10.3082H14.6509L14.6705 10.3138L14.6873 10.3166L14.578 10.7965Z" fill="white"/>
<path d="M14.578 10.7965L14.55 10.7937L14.5192 10.7909L14.4912 10.7881L14.4631 10.7825L14.4379 10.7797L14.4099 10.7741L14.3847 10.7685L14.3539 10.7657L14.323 10.7601H14.2894L14.253 10.7572L14.2109 10.7544H14.1661L14.1185 10.7572L14.0624 10.7601L14.0008 10.7657L13.9587 10.7713L13.9167 10.7797L13.8803 10.7909L13.8494 10.8021L13.8186 10.819L13.7934 10.8358L13.771 10.8583L13.7514 10.8751L13.7402 10.9004L13.7289 10.9228L13.7233 10.9481V10.9733L13.7289 11.0014L13.7402 11.0295L13.757 11.0575L13.7766 11.0856L13.8186 11.1249L13.8719 11.1586L13.9307 11.1838L13.9952 11.2091L14.0624 11.2287L14.1325 11.254L14.2025 11.2793L14.2698 11.3073L14.3342 11.3438L14.3931 11.3887L14.4463 11.442L14.4912 11.5066L14.5248 11.588L14.5472 11.6834L14.5556 11.7984L14.5472 11.9332L14.5332 12.0342L14.508 12.1212L14.4716 12.2026L14.4295 12.2727L14.3819 12.3345L14.3258 12.385L14.267 12.4327L14.1997 12.4748L14.1325 12.5057L14.0624 12.5337L13.9896 12.5534L13.9167 12.573L13.8438 12.5843L13.7738 12.5899L13.7037 12.5955L13.6365 12.5983H13.544L13.4599 12.5955H13.3843L13.3142 12.5927L13.2525 12.5899L13.1937 12.5871L13.1433 12.5815L13.0956 12.5758L13.0508 12.573L13.0087 12.5646L12.9695 12.5562L12.9331 12.545L12.8967 12.5366L12.863 12.5253L12.8294 12.5113L12.793 12.5001L12.8882 12.0286L12.9079 12.0342L12.9303 12.0398L12.9611 12.0482L12.9975 12.0566L13.034 12.0651L13.0788 12.0735L13.1236 12.0847L13.1741 12.0931L13.2273 12.1015L13.2834 12.11L13.3422 12.1156L13.4011 12.1212L13.4627 12.124L13.5244 12.1268H13.586L13.6477 12.124L13.7093 12.1128L13.757 12.0931L13.7962 12.0707L13.827 12.0426L13.8466 12.0117L13.8635 11.9781L13.8747 11.9444L13.8831 11.9107L13.8887 11.849L13.8691 11.7956L13.8326 11.7535L13.7794 11.7171L13.7149 11.6862L13.6421 11.6525L13.558 11.6244L13.4739 11.5908L13.3899 11.5515L13.3086 11.5066L13.2357 11.4504L13.1657 11.3859L13.1124 11.3045L13.076 11.2091L13.0564 11.094L13.0592 10.9565L13.0704 10.8751L13.0844 10.7937L13.104 10.7236L13.1292 10.6534L13.1657 10.5917L13.2021 10.5355L13.2469 10.4822L13.3002 10.4345L13.3618 10.3952L13.4319 10.3615L13.5076 10.3279L13.5916 10.3054L13.6869 10.2858L13.7934 10.2717L13.9083 10.2633L14.0316 10.2605H14.1101L14.1829 10.2633L14.2502 10.2661H14.309L14.3623 10.2717L14.4099 10.2745L14.4547 10.2801L14.4912 10.2829L14.5276 10.2886L14.5584 10.2942L14.5864 10.2998L14.6117 10.3026L14.6313 10.3082H14.6509L14.6705 10.3138L14.6873 10.3166L14.578 10.7965Z" stroke="white" stroke-width="0.22" stroke-miterlimit="2.61"/>
<path fill-rule="evenodd" clip-rule="evenodd" d="M15.0836 9.78906H15.6748L15.5852 10.3055H15.9411L15.8654 10.7882L15.4899 10.7769L15.2853 11.9641V12.0062L15.2937 12.0427L15.3161 12.0707L15.3442 12.0932L15.3834 12.11L15.4254 12.1212L15.4703 12.1297L15.5235 12.1353L15.5684 12.1325L15.6104 12.1297L15.6496 12.1212L15.6832 12.1128L15.7113 12.1044L15.7309 12.0988L15.7449 12.0932H15.7477L15.6748 12.4889L15.658 12.5001L15.644 12.5085L15.63 12.517L15.6132 12.5254L15.5992 12.531L15.5824 12.5366L15.5628 12.545L15.5431 12.5506L15.5235 12.5563L15.5011 12.5619L15.4759 12.5647L15.4507 12.5703L15.4226 12.5731L15.3918 12.5787L15.3554 12.5815L15.3218 12.5871H15.1592L15.0723 12.5815L14.9995 12.5731L14.9322 12.5591L14.8734 12.545L14.8257 12.5254L14.7837 12.5029L14.7473 12.4777L14.7193 12.4496L14.6996 12.4215L14.6828 12.3851L14.6744 12.3486L14.666 12.3065V12.2644V12.2167L14.6716 12.1662L14.6772 12.1128L15.0836 9.78906Z" fill="white"/>
<path d="M15.0836 9.78906H15.6748L15.5852 10.3055H15.9411L15.8654 10.7882L15.4899 10.7769L15.2853 11.9641V12.0062L15.2937 12.0427L15.3161 12.0707L15.3442 12.0932L15.3834 12.11L15.4254 12.1212L15.4703 12.1297L15.5235 12.1353L15.5684 12.1325L15.6104 12.1297L15.6496 12.1212L15.6832 12.1128L15.7113 12.1044L15.7309 12.0988L15.7449 12.0932H15.7477L15.6748 12.4889L15.658 12.5001L15.644 12.5085L15.63 12.517L15.6132 12.5254L15.5992 12.531L15.5824 12.5366L15.5628 12.545L15.5431 12.5506L15.5235 12.5563L15.5011 12.5619L15.4759 12.5647L15.4507 12.5703L15.4226 12.5731L15.3918 12.5787L15.3554 12.5815L15.3218 12.5871H15.1592L15.0723 12.5815L14.9995 12.5731L14.9322 12.5591L14.8734 12.545L14.8257 12.5254L14.7837 12.5029L14.7473 12.4777L14.7193 12.4496L14.6996 12.4215L14.6828 12.3851L14.6744 12.3486L14.666 12.3065V12.2644V12.2167L14.6716 12.1662L14.6772 12.1128L15.0836 9.78906Z" stroke="white" stroke-width="0.22" stroke-miterlimit="2.61"/>
<path d="M16.4112 11.5908L16.4056 11.6244L16.4028 11.6637L16.4056 11.7058L16.4168 11.7451L16.4308 11.7844L16.4476 11.8237L16.47 11.8658L16.4952 11.8995L16.5261 11.936L16.5569 11.9696L16.5905 12.0005L16.6298 12.0258L16.669 12.051L16.711 12.0679L16.7531 12.0847L16.7951 12.0931L16.8511 12.1015L16.9044 12.1072L16.9604 12.1128L17.0165 12.1184L17.0697 12.1212H17.1286L17.1846 12.1184L17.2407 12.1128L17.2995 12.1044L17.3555 12.0931L17.4144 12.0819L17.4732 12.0623L17.5321 12.0398L17.5937 12.0145L17.6526 11.9809L17.7142 11.9444L17.6302 12.4664L17.5965 12.4832L17.5629 12.5029L17.5265 12.5141L17.4957 12.5281L17.4648 12.5366L17.4312 12.5478L17.3948 12.5562L17.3612 12.5646L17.3219 12.5702L17.2799 12.573L17.2351 12.5787L17.1846 12.5815L17.1314 12.5843H17.0725L17.0081 12.5871H16.9352L16.8315 12.5843L16.725 12.573L16.6185 12.559L16.5121 12.5337L16.4084 12.5029L16.3103 12.4608L16.2122 12.4075L16.1253 12.3457L16.0413 12.2727L15.9684 12.1857L15.9068 12.0875L15.8563 11.9753L15.8199 11.849L15.7975 11.7058L15.7891 11.5487L15.8003 11.3747L15.8087 11.3073L15.8227 11.2287L15.8395 11.1445L15.8619 11.0547L15.8956 10.9621L15.932 10.8723L15.9824 10.7797L16.0413 10.6899L16.1085 10.6029L16.1926 10.5215L16.2851 10.4513L16.3916 10.3868L16.5149 10.3335L16.655 10.2942L16.8063 10.2689L16.98 10.2605L17.0613 10.2633L17.1482 10.2717L17.2379 10.2858L17.3247 10.3082L17.4088 10.3391L17.4929 10.3784L17.5685 10.4289L17.6386 10.4878L17.703 10.5608L17.7563 10.6478L17.7983 10.7432L17.8263 10.8583L17.846 10.9846V11.1305L17.8319 11.2905L17.8011 11.4701L17.7899 11.5992H16.2402L16.3355 11.181H17.2687L17.2743 11.1277L17.2715 11.0772L17.2659 11.0295L17.2575 10.9874L17.2435 10.9453L17.2294 10.9088L17.207 10.8779L17.1846 10.8499L17.1594 10.8218L17.1314 10.8021L17.1005 10.7825L17.0697 10.7657L17.0333 10.7516L16.9997 10.7432L16.9632 10.7376L16.9268 10.732L16.8848 10.7348L16.8483 10.7404L16.8119 10.7516L16.7755 10.7629L16.739 10.7797L16.7082 10.7993L16.6746 10.8218L16.6466 10.8499L16.6185 10.8779L16.5933 10.9088L16.5709 10.9453L16.5513 10.9818L16.5317 11.0182L16.5177 11.0603L16.5037 11.1052L16.4952 11.1502L16.4112 11.5908Z" stroke="white" stroke-width="0.22" stroke-miterlimit="2.61"/>
<path fill-rule="evenodd" clip-rule="evenodd" d="M21.4834 10.4315L21.4582 10.4174L21.4302 10.4062L21.3994 10.3894L21.3685 10.3753L21.3349 10.3613L21.2985 10.3501L21.262 10.336L21.2256 10.3248L21.1836 10.3136L21.1444 10.3052L21.0995 10.2968L21.0547 10.2911L21.007 10.2855L20.9566 10.2827H20.9062H20.8529H20.7997L20.7436 10.2855L20.6876 10.2911L20.6287 10.3024L20.5671 10.3192L20.5082 10.3445L20.4494 10.3725L20.3877 10.4118L20.3317 10.4595L20.2756 10.5129L20.2224 10.583L20.172 10.6616L20.1243 10.7542L20.0795 10.8609L20.0402 10.9815L20.0066 11.1162L19.9926 11.192L19.9842 11.2678L19.9814 11.3436L19.9842 11.4137L19.9898 11.4867L20.0038 11.5541L20.0234 11.6186L20.0459 11.6832L20.0795 11.7421L20.1159 11.7954L20.1607 11.8459L20.214 11.8908L20.27 11.9273L20.3345 11.961L20.4073 11.9891L20.4886 12.0059L20.5166 12.0143L20.5503 12.0199L20.5867 12.0227L20.6287 12.0284L20.6764 12.034H20.724H20.7773L20.8305 12.0284L20.8865 12.0227L20.9426 12.0115L20.9958 11.9975L21.0491 11.9806L21.1023 11.9554L21.15 11.9273L21.1948 11.8936L21.2368 11.8572L21.1416 12.4241L21.1303 12.4353L21.1163 12.4493L21.0995 12.4634L21.0799 12.4746L21.0575 12.4914L21.0267 12.5083L20.993 12.5223L20.9538 12.5363L20.9062 12.5504L20.8501 12.5616L20.7857 12.57L20.7128 12.5784L20.6287 12.5812L20.5335 12.584L20.427 12.5812L20.3065 12.5756L20.2084 12.5644L20.1103 12.5447L20.0122 12.5111L19.9141 12.469L19.8217 12.4185L19.732 12.3539L19.6479 12.2809L19.5667 12.1939L19.4966 12.0985L19.4378 11.9919L19.3873 11.874L19.3481 11.7421L19.3229 11.599L19.3145 11.4502L19.3201 11.2818L19.3425 11.105L19.3593 11.018L19.3789 10.9338L19.4013 10.8496L19.4209 10.771L19.4434 10.6981L19.4714 10.6223L19.4994 10.5521L19.5302 10.4876L19.5611 10.4202L19.5947 10.3585L19.6283 10.2996L19.6675 10.2434L19.7068 10.1901L19.7488 10.1396L19.7908 10.0919L19.8357 10.047L19.8833 10.0049L19.9338 9.96559L19.9842 9.9291L20.0374 9.89262L20.0963 9.86175L20.1523 9.83368L20.214 9.80843L20.2756 9.78597L20.3401 9.76352L20.4045 9.74668L20.4746 9.73265L20.5475 9.71862L20.6175 9.70739L20.696 9.69897L20.7716 9.69617L20.8529 9.69336L20.9202 9.69617L20.9874 9.69897L21.0491 9.70739L21.1135 9.71581L21.1752 9.72423L21.2312 9.73546L21.2873 9.74668L21.3377 9.76071L21.3881 9.77194L21.4302 9.78597L21.4694 9.7972L21.503 9.81123L21.5339 9.82246L21.5591 9.83088L21.5787 9.8393L21.5899 9.8421L21.4834 10.4315Z" fill="white"/>
<path d="M21.4834 10.4315L21.4582 10.4174L21.4302 10.4062L21.3994 10.3894L21.3685 10.3753L21.3349 10.3613L21.2985 10.3501L21.262 10.336L21.2256 10.3248L21.1836 10.3136L21.1444 10.3052L21.0995 10.2968L21.0547 10.2911L21.007 10.2855L20.9566 10.2827H20.9062H20.8529H20.7997L20.7436 10.2855L20.6876 10.2911L20.6287 10.3024L20.5671 10.3192L20.5082 10.3445L20.4494 10.3725L20.3877 10.4118L20.3317 10.4595L20.2756 10.5129L20.2224 10.583L20.172 10.6616L20.1243 10.7542L20.0795 10.8609L20.0402 10.9815L20.0066 11.1162L19.9926 11.192L19.9842 11.2678L19.9814 11.3436L19.9842 11.4137L19.9898 11.4867L20.0038 11.5541L20.0234 11.6186L20.0459 11.6832L20.0795 11.7421L20.1159 11.7954L20.1607 11.8459L20.214 11.8908L20.27 11.9273L20.3345 11.961L20.4073 11.9891L20.4886 12.0059L20.5166 12.0143L20.5503 12.0199L20.5867 12.0227L20.6287 12.0284L20.6764 12.034H20.724H20.7773L20.8305 12.0284L20.8865 12.0227L20.9426 12.0115L20.9958 11.9975L21.0491 11.9806L21.1023 11.9554L21.15 11.9273L21.1948 11.8936L21.2368 11.8572L21.1416 12.4241L21.1303 12.4353L21.1163 12.4493L21.0995 12.4634L21.0799 12.4746L21.0575 12.4914L21.0267 12.5083L20.993 12.5223L20.9538 12.5363L20.9062 12.5504L20.8501 12.5616L20.7857 12.57L20.7128 12.5784L20.6287 12.5812L20.5335 12.584L20.427 12.5812L20.3065 12.5756L20.2084 12.5644L20.1103 12.5447L20.0122 12.5111L19.9141 12.469L19.8217 12.4185L19.732 12.3539L19.6479 12.2809L19.5667 12.1939L19.4966 12.0985L19.4378 11.9919L19.3873 11.874L19.3481 11.7421L19.3229 11.599L19.3145 11.4502L19.3201 11.2818L19.3425 11.105L19.3593 11.018L19.3789 10.9338L19.4013 10.8496L19.4209 10.771L19.4434 10.6981L19.4714 10.6223L19.4994 10.5521L19.5302 10.4876L19.5611 10.4202L19.5947 10.3585L19.6283 10.2996L19.6675 10.2434L19.7068 10.1901L19.7488 10.1396L19.7908 10.0919L19.8357 10.047L19.8833 10.0049L19.9338 9.96559L19.9842 9.9291L20.0374 9.89262L20.0963 9.86175L20.1523 9.83368L20.214 9.80843L20.2756 9.78597L20.3401 9.76352L20.4045 9.74668L20.4746 9.73265L20.5475 9.71862L20.6175 9.70739L20.696 9.69897L20.7716 9.69617L20.8529 9.69336L20.9202 9.69617L20.9874 9.69897L21.0491 9.70739L21.1135 9.71581L21.1752 9.72423L21.2312 9.73546L21.2873 9.74668L21.3377 9.76071L21.3881 9.77194L21.4302 9.78597L21.4694 9.7972L21.503 9.81123L21.5339 9.82246L21.5591 9.83088L21.5787 9.8393L21.5899 9.8421L21.4834 10.4315Z" stroke="white" stroke-width="0.22" stroke-miterlimit="2.61"/>
<path fill-rule="evenodd" clip-rule="evenodd" d="M26.721 12.5871H26.1326L26.1746 12.3514V12.3289L26.141 12.371L26.1045 12.4103L26.0681 12.444L26.0317 12.4749L25.9924 12.5029L25.9532 12.5254L25.9168 12.545L25.8747 12.5647L25.8355 12.5787L25.7935 12.5899L25.7542 12.5984L25.7122 12.6068L25.6702 12.6124L25.6281 12.6152L25.5861 12.618H25.5441L25.432 12.6096L25.3311 12.5871L25.2358 12.5506L25.1518 12.5029L25.0761 12.4412L25.006 12.3682L24.9472 12.2896L24.8967 12.1998L24.8547 12.1044L24.8211 12.0034L24.7959 11.8995L24.779 11.7901L24.7734 11.6806L24.7762 11.5712L24.7846 11.4617L24.8043 11.3523L24.8379 11.2288L24.8743 11.1081L24.9192 10.9987L24.9724 10.8976L25.0284 10.8022L25.0929 10.7152L25.1574 10.6394L25.2274 10.5693L25.3031 10.5075L25.3815 10.4542L25.4628 10.4065L25.5441 10.37L25.6281 10.3419L25.7122 10.3223L25.7991 10.3083L25.886 10.3055L25.9476 10.3083L26.0065 10.3139L26.0625 10.3251L26.1129 10.3391L26.1634 10.356L26.2054 10.3756L26.2475 10.3981L26.2867 10.4233L26.3203 10.4486L26.3511 10.4767L26.3792 10.5019L26.4044 10.53L26.4268 10.558L26.4464 10.5861L26.4632 10.6114L26.4744 10.6366L26.623 9.80029H27.203L26.721 12.5871Z" fill="white"/>
<path d="M26.721 12.5871H26.1326L26.1746 12.3514V12.3289L26.141 12.371L26.1045 12.4103L26.0681 12.444L26.0317 12.4749L25.9924 12.5029L25.9532 12.5254L25.9168 12.545L25.8747 12.5647L25.8355 12.5787L25.7935 12.5899L25.7542 12.5984L25.7122 12.6068L25.6702 12.6124L25.6281 12.6152L25.5861 12.618H25.5441L25.432 12.6096L25.3311 12.5871L25.2358 12.5506L25.1518 12.5029L25.0761 12.4412L25.006 12.3682L24.9472 12.2896L24.8967 12.1998L24.8547 12.1044L24.8211 12.0034L24.7959 11.8995L24.779 11.7901L24.7734 11.6806L24.7762 11.5712L24.7846 11.4617L24.8043 11.3523L24.8379 11.2288L24.8743 11.1081L24.9192 10.9987L24.9724 10.8976L25.0284 10.8022L25.0929 10.7152L25.1574 10.6394L25.2274 10.5693L25.3031 10.5075L25.3815 10.4542L25.4628 10.4065L25.5441 10.37L25.6281 10.3419L25.7122 10.3223L25.7991 10.3083L25.886 10.3055L25.9476 10.3083L26.0065 10.3139L26.0625 10.3251L26.1129 10.3391L26.1634 10.356L26.2054 10.3756L26.2475 10.3981L26.2867 10.4233L26.3203 10.4486L26.3511 10.4767L26.3792 10.5019L26.4044 10.53L26.4268 10.558L26.4464 10.5861L26.4632 10.6114L26.4744 10.6366L26.623 9.80029H27.203L26.721 12.5871Z" stroke="white" stroke-width="0.22" stroke-miterlimit="2.61"/>
<path fill-rule="evenodd" clip-rule="evenodd" d="M25.7569 12.0708L25.8185 12.068L25.8718 12.0539L25.925 12.0399L25.9726 12.0147L26.0175 11.9922L26.0595 11.9585L26.1016 11.922L26.1352 11.8827L26.1688 11.8407L26.1968 11.7929L26.2249 11.7452L26.2501 11.6947L26.2697 11.6414L26.2865 11.5853L26.3033 11.5291L26.3117 11.4702L26.3229 11.4113L26.3313 11.3495V11.2906L26.3285 11.2316L26.3229 11.1755L26.3117 11.1222L26.2977 11.0717L26.2809 11.024L26.2585 10.9819L26.2333 10.9398L26.208 10.9061L26.1744 10.8752L26.138 10.85L26.1016 10.8331L26.0595 10.8219L26.0147 10.8191L25.9586 10.8219L25.9054 10.8303L25.855 10.85L25.8073 10.8696L25.7653 10.8977L25.7204 10.9314L25.6868 10.9678L25.6504 11.0099L25.6168 11.0548L25.5887 11.1054L25.5607 11.1559L25.5355 11.212L25.5159 11.2681L25.4991 11.3271L25.4823 11.3888L25.4682 11.4506L25.457 11.5432L25.4626 11.6442L25.4766 11.7508L25.5047 11.8491L25.5467 11.9361L25.6028 12.0062L25.6728 12.0539L25.7569 12.0708Z" fill="#FBB231"/>
<path fill-rule="evenodd" clip-rule="evenodd" d="M12.697 12.1128L12.6101 12.5871H12.0749L12.0917 12.5001L12.1001 12.4215L12.1085 12.3598L12.1169 12.3289L12.0889 12.3626L12.0553 12.3962L12.0132 12.4299L11.9684 12.458L11.918 12.4889L11.8647 12.5141L11.8087 12.5394L11.7526 12.5618L11.691 12.5815L11.6293 12.5955L11.5677 12.6067L11.5032 12.6151L11.4416 12.6208L11.3799 12.6236L11.3211 12.6151L11.2622 12.6067L11.1894 12.5899L11.1193 12.5674L11.0605 12.5394L11.0072 12.5085L10.9624 12.4748L10.9175 12.4355L10.8839 12.3934L10.8559 12.3513L10.8307 12.3064L10.8083 12.2615L10.7914 12.2138L10.7774 12.1661L10.769 12.1184L10.7634 12.0679L10.7578 12.023V11.9753L10.7662 11.8911L10.7774 11.8125L10.7998 11.7395L10.8279 11.6666L10.8615 11.5992L10.8979 11.5375L10.9428 11.4785L10.996 11.4224L11.0493 11.3747L11.1081 11.3298L11.1698 11.2905L11.2342 11.254L11.3015 11.2259L11.3715 11.2007L11.4444 11.1838L11.5172 11.1698H11.5228L11.5341 11.167H11.5481L11.5705 11.1642L11.5957 11.1586H11.6265L11.6574 11.153L11.6938 11.1502L11.7302 11.1445L11.7666 11.1417L11.8059 11.1389L11.8395 11.1333L11.8731 11.1305H11.904L11.9348 11.1277H11.9572H12.0076L12.0581 11.1305H12.1057H12.1534L12.1898 11.1333L12.2206 11.1361L12.2402 11.1389H12.2486L12.2514 11.1221L12.2655 11.0856L12.2739 11.0407L12.2795 10.9986L12.2711 10.9537L12.2514 10.9088L12.2262 10.8723L12.1926 10.8386L12.1534 10.8134L12.1085 10.7937L12.0553 10.7797L12.002 10.7769L11.9404 10.7741L11.8787 10.7713H11.8115L11.7442 10.7741L11.6742 10.7797L11.6041 10.7853L11.5369 10.7909L11.4724 10.7993L11.4079 10.8078L11.3463 10.819L11.2903 10.8302L11.2398 10.8386L11.1922 10.8527L11.1529 10.8667L11.1249 10.8807L11.1025 10.892L11.251 10.3784L11.2987 10.3615L11.3463 10.3447L11.3967 10.3279L11.4472 10.3166L11.5004 10.3082L11.5537 10.2998L11.6097 10.2914L11.6686 10.2858L11.7274 10.283L11.7891 10.2802L11.8535 10.2773H11.918H11.9852H12.0553L12.1309 10.2802L12.2066 10.283L12.2655 10.2858L12.3299 10.297L12.3944 10.311L12.4616 10.3307L12.5289 10.3559L12.5933 10.3868L12.655 10.4233L12.7166 10.4626L12.7671 10.5103L12.8147 10.5608L12.8595 10.6169L12.8904 10.6815L12.9128 10.7516L12.924 10.8218V10.9032L12.9128 10.9902L12.697 12.1128Z" fill="white"/>
<path d="M12.697 12.1128L12.6101 12.5871H12.0749L12.0917 12.5001L12.1001 12.4215L12.1085 12.3598L12.1169 12.3289L12.0889 12.3626L12.0553 12.3962L12.0132 12.4299L11.9684 12.458L11.918 12.4889L11.8647 12.5141L11.8087 12.5394L11.7526 12.5618L11.691 12.5815L11.6293 12.5955L11.5677 12.6067L11.5032 12.6151L11.4416 12.6208L11.3799 12.6236L11.3211 12.6151L11.2622 12.6067L11.1894 12.5899L11.1193 12.5674L11.0605 12.5394L11.0072 12.5085L10.9624 12.4748L10.9175 12.4355L10.8839 12.3934L10.8559 12.3513L10.8307 12.3064L10.8083 12.2615L10.7914 12.2138L10.7774 12.1661L10.769 12.1184L10.7634 12.0679L10.7578 12.023V11.9753L10.7662 11.8911L10.7774 11.8125L10.7998 11.7395L10.8279 11.6666L10.8615 11.5992L10.8979 11.5375L10.9428 11.4785L10.996 11.4224L11.0493 11.3747L11.1081 11.3298L11.1698 11.2905L11.2342 11.254L11.3015 11.2259L11.3715 11.2007L11.4444 11.1838L11.5172 11.1698H11.5228L11.5341 11.167H11.5481L11.5705 11.1642L11.5957 11.1586H11.6265L11.6574 11.153L11.6938 11.1502L11.7302 11.1445L11.7666 11.1417L11.8059 11.1389L11.8395 11.1333L11.8731 11.1305H11.904L11.9348 11.1277H11.9572H12.0076L12.0581 11.1305H12.1057H12.1534L12.1898 11.1333L12.2206 11.1361L12.2402 11.1389H12.2486L12.2514 11.1221L12.2655 11.0856L12.2739 11.0407L12.2795 10.9986L12.2711 10.9537L12.2514 10.9088L12.2262 10.8723L12.1926 10.8386L12.1534 10.8134L12.1085 10.7937L12.0553 10.7797L12.002 10.7769L11.9404 10.7741L11.8787 10.7713H11.8115L11.7442 10.7741L11.6742 10.7797L11.6041 10.7853L11.5369 10.7909L11.4724 10.7993L11.4079 10.8078L11.3463 10.819L11.2903 10.8302L11.2398 10.8386L11.1922 10.8527L11.1529 10.8667L11.1249 10.8807L11.1025 10.892L11.251 10.3784L11.2987 10.3615L11.3463 10.3447L11.3967 10.3279L11.4472 10.3166L11.5004 10.3082L11.5537 10.2998L11.6097 10.2914L11.6686 10.2858L11.7274 10.283L11.7891 10.2802L11.8535 10.2773H11.918H11.9852H12.0553L12.1309 10.2802L12.2066 10.283L12.2655 10.2858L12.3299 10.297L12.3944 10.311L12.4616 10.3307L12.5289 10.3559L12.5933 10.3868L12.655 10.4233L12.7166 10.4626L12.7671 10.5103L12.8147 10.5608L12.8595 10.6169L12.8904 10.6815L12.9128 10.7516L12.924 10.8218V10.9032L12.9128 10.9902L12.697 12.1128Z" stroke="white" stroke-width="0.22" stroke-miterlimit="2.61"/>
<path fill-rule="evenodd" clip-rule="evenodd" d="M12.183 11.557L12.1802 11.5486L12.1718 11.5373L12.1606 11.5289L12.1382 11.5261L12.1157 11.5205H12.0877H12.0541H12.0233H11.9896L11.9532 11.5261L11.9196 11.5289L11.886 11.5345L11.8523 11.5402L11.8243 11.5458L11.7991 11.5514L11.7739 11.557L11.7598 11.5626L11.743 11.5682L11.7206 11.5766L11.6954 11.5879L11.6674 11.5991L11.6394 11.6159L11.6113 11.63L11.5833 11.6468L11.5525 11.6693L11.5245 11.6889L11.4992 11.7142L11.4768 11.7422L11.4544 11.7675L11.4404 11.7984L11.4292 11.832L11.4208 11.8657L11.418 11.9387L11.4292 11.9976L11.4516 12.0397L11.4796 12.0706L11.5104 12.093L11.5469 12.1043L11.5805 12.1127H11.6141H11.6786L11.7374 12.1043L11.7907 12.0958L11.8411 12.0846L11.8832 12.0678L11.9224 12.0509L11.9588 12.0313L11.9924 12.006L12.0205 11.9864L12.0457 11.9611L12.0653 11.9359L12.0821 11.9106L12.0989 11.8854L12.1101 11.8601L12.1213 11.8376L12.127 11.8124L12.1438 11.7506L12.1606 11.6805L12.1718 11.6131L12.183 11.557Z" fill="#EC1C2E"/>
<path fill-rule="evenodd" clip-rule="evenodd" d="M8.21875 12.5871H7.63867L8.12347 9.78906H9.1295L9.22477 11.4505L9.91974 9.78906H10.9706L10.4774 12.5871H9.89733L10.2644 10.4963H10.242L9.3761 12.5871H8.72316L8.71756 12.5001L8.70355 12.2672L8.68393 11.936L8.66151 11.5571L8.6419 11.1755L8.62228 10.8415L8.60827 10.6001L8.60266 10.4963H8.59706H8.58305H8.57184L8.21875 12.5871Z" fill="white"/>
<path d="M8.21875 12.5871H7.63867L8.12347 9.78906H9.1295L9.22477 11.4505L9.91974 9.78906H10.9706L10.4774 12.5871H9.89733L10.2644 10.4963H10.242L9.3761 12.5871H8.72316L8.71756 12.5001L8.70355 12.2672L8.68393 11.936L8.66151 11.5571L8.6419 11.1755L8.62228 10.8415L8.60827 10.6001L8.60266 10.4963H8.59706H8.58305H8.57184L8.21875 12.5871Z" stroke="white" stroke-width="0.22" stroke-miterlimit="2.61"/>
<path fill-rule="evenodd" clip-rule="evenodd" d="M23.2522 12.1128L23.1653 12.5871H22.6329L22.6357 12.5001L22.6385 12.4243V12.3654L22.6413 12.3401L22.6161 12.371L22.5825 12.4047L22.546 12.4327L22.5012 12.4636L22.4563 12.4917L22.4059 12.5169L22.3527 12.5422L22.2994 12.5646L22.2434 12.5815L22.1817 12.5983L22.1229 12.6067L22.064 12.6151L22.0024 12.6208L21.9435 12.6236L21.8847 12.6151L21.8286 12.6067L21.7502 12.5899L21.6829 12.5674L21.6241 12.5394L21.568 12.5085L21.5204 12.4748L21.4811 12.4355L21.4475 12.3934L21.4167 12.3513L21.3915 12.3064L21.3719 12.2615L21.355 12.2138L21.3438 12.1661L21.3354 12.1184L21.3298 12.0679L21.3242 12.023V11.9753L21.3298 11.8911L21.3438 11.8125L21.3606 11.7395L21.3887 11.6666L21.4223 11.5992L21.4615 11.5375L21.5064 11.4785L21.554 11.4224L21.6101 11.3747L21.6689 11.3298L21.7306 11.2905L21.795 11.254L21.8623 11.2259L21.9323 11.2007L22.0024 11.1838L22.0752 11.1698H22.078L22.0892 11.167H22.1033L22.1257 11.1642L22.1537 11.1586H22.1817L22.2154 11.153L22.249 11.1502L22.2854 11.1445L22.3246 11.1417L22.3583 11.1389L22.3947 11.1333L22.4283 11.1305H22.4591L22.49 11.1277H22.5124H22.5628L22.6161 11.1305H22.6637H22.7114L22.7506 11.1333L22.7842 11.1361L22.8038 11.1389H22.8122L22.8178 11.1221L22.8234 11.0856L22.829 11.0407L22.8347 10.9986L22.8262 10.9537L22.8094 10.9088L22.7814 10.8723L22.7478 10.8386L22.7114 10.8134L22.6665 10.7937L22.6189 10.7797L22.5684 10.7769L22.5068 10.7741L22.4451 10.7713H22.3779L22.3106 10.7741L22.2406 10.7797L22.1705 10.7853L22.1033 10.7909L22.0388 10.7993L21.9744 10.8078L21.9127 10.819L21.8567 10.8302L21.8062 10.8386L21.7586 10.8527L21.7221 10.8667L21.6913 10.8807L21.6689 10.892L21.8174 10.3784L21.8623 10.3615L21.9127 10.3447L21.9603 10.3279L22.0136 10.3166L22.0668 10.3082L22.1201 10.2998L22.1733 10.2914L22.2322 10.2858L22.291 10.283L22.3527 10.2802L22.4143 10.2773H22.4816H22.546H22.6161L22.6861 10.2802L22.759 10.283L22.8178 10.2858L22.8823 10.297L22.9495 10.311L23.0168 10.3307L23.0813 10.3559L23.1485 10.3868L23.213 10.4233L23.2718 10.4626L23.3251 10.5103L23.3727 10.5608L23.4147 10.6169L23.4484 10.6815L23.4708 10.7516L23.4876 10.8218V10.9032L23.4764 10.9902L23.2522 12.1128Z" fill="white"/>
<path fill-rule="evenodd" clip-rule="evenodd" d="M23.1644 12.6011L23.1784 12.5899L23.2653 12.1156L23.2401 12.1128L23.1504 12.5843L23.1644 12.5731V12.6011L23.1756 12.5983L23.1784 12.5899L23.1644 12.6011Z" fill="white"/>
<path fill-rule="evenodd" clip-rule="evenodd" d="M22.62 12.587L22.634 12.6011H23.1664V12.573H22.634L22.6452 12.587H22.62L22.6172 12.6011H22.634L22.62 12.587Z" fill="white"/>
<path fill-rule="evenodd" clip-rule="evenodd" d="M22.6528 12.3486L22.6332 12.3318L22.6247 12.3655L22.6219 12.4244V12.5002L22.6191 12.5872H22.6444L22.65 12.5002L22.6528 12.4244L22.65 12.3655V12.3486L22.6332 12.3318L22.6528 12.3486Z" fill="white"/>
<path fill-rule="evenodd" clip-rule="evenodd" d="M21.8262 12.6209L21.885 12.6293L21.9439 12.6349H22.0027L22.0644 12.6293L22.126 12.6209L22.1849 12.6096L22.2437 12.5928L22.3054 12.576L22.3586 12.5535L22.4119 12.531L22.4651 12.503L22.5071 12.4749L22.552 12.444L22.5912 12.4132L22.6248 12.3795L22.6529 12.3486L22.6332 12.3318L22.6052 12.3627L22.5744 12.3935L22.5352 12.4244L22.4959 12.4525L22.4511 12.4777L22.4006 12.503L22.3502 12.531L22.297 12.5507L22.2409 12.5675L22.1821 12.5844L22.1204 12.5956L22.0644 12.604L22.0027 12.6068L21.9439 12.6096L21.885 12.604L21.829 12.5956L21.8262 12.6209Z" fill="white"/>
<path fill-rule="evenodd" clip-rule="evenodd" d="M21.3105 11.9751L21.3134 12.0228L21.3162 12.0677L21.3246 12.121L21.333 12.1687L21.3442 12.2165L21.361 12.2642L21.3778 12.3147L21.4058 12.3596L21.4366 12.4045L21.4703 12.4438L21.5123 12.4831L21.5628 12.5196L21.6188 12.5532L21.6805 12.5813L21.7505 12.6009L21.8262 12.6206L21.829 12.5953L21.7533 12.5757L21.6889 12.5532L21.63 12.528L21.574 12.4971L21.5291 12.4634L21.4927 12.4269L21.4591 12.3848L21.4282 12.3456L21.4058 12.3007L21.3862 12.2557L21.3694 12.2108L21.3582 12.1659L21.3498 12.1154L21.3442 12.0677L21.3386 12.0228L21.3414 11.9751H21.3105Z" fill="white"/>
<path fill-rule="evenodd" clip-rule="evenodd" d="M22.0756 11.1584L21.9999 11.1697L21.9271 11.1893L21.857 11.2118L21.7897 11.2426L21.7225 11.2763L21.6608 11.3184L21.602 11.3633L21.5459 11.4138L21.4955 11.4672L21.4507 11.5289L21.4086 11.5906L21.3778 11.6608L21.3498 11.7338L21.3302 11.8124L21.3162 11.8909L21.3105 11.9751H21.3414L21.3442 11.8909L21.3554 11.8152L21.375 11.7422L21.403 11.672L21.4338 11.6047L21.4731 11.5457L21.5179 11.484L21.5628 11.4307L21.6188 11.3858L21.6776 11.3409L21.7365 11.3016L21.8038 11.2679L21.8654 11.237L21.9355 11.2146L22.0055 11.1949L22.0756 11.1837V11.1584Z" fill="white"/>
<path fill-rule="evenodd" clip-rule="evenodd" d="M22.5114 11.1135H22.489L22.4581 11.1163L22.4273 11.1191L22.3937 11.1219L22.3573 11.1248L22.3236 11.1276L22.2844 11.1304L22.248 11.136L22.2143 11.1416L22.1807 11.1444L22.1527 11.1472L22.1247 11.15L22.1022 11.1528L22.0854 11.1556L22.077 11.1584H22.0742V11.1837H22.077L22.091 11.1809L22.1022 11.1781L22.1247 11.1753L22.1527 11.1725L22.1807 11.1697L22.2143 11.1668L22.248 11.1612L22.2844 11.1584L22.3236 11.1528L22.3573 11.15L22.3937 11.1472L22.4273 11.1444L22.4581 11.1416H22.489H22.5114V11.1135Z" fill="white"/>
<path fill-rule="evenodd" clip-rule="evenodd" d="M22.8003 11.136L22.8116 11.1248H22.8031L22.7835 11.1219H22.7499L22.7107 11.1163H22.663H22.6154L22.5622 11.1135H22.5117V11.1416H22.5622H22.6154L22.663 11.1472H22.7107H22.7499L22.7835 11.15H22.8031H22.8116L22.8256 11.1416L22.8116 11.15L22.8228 11.1528L22.8256 11.1416L22.8003 11.136Z" fill="white"/>
<path fill-rule="evenodd" clip-rule="evenodd" d="M22.8204 10.9985H22.8176V11.0406L22.8092 11.0827L22.8036 11.122L22.8008 11.1361L22.826 11.1417L22.8288 11.1248L22.8344 11.0855L22.8428 11.0406L22.8484 10.9985H22.8456H22.8204Z" fill="white"/>
<path fill-rule="evenodd" clip-rule="evenodd" d="M22.5684 10.7883V10.7911L22.616 10.7939L22.6608 10.8052L22.7029 10.8248L22.7393 10.8501L22.7701 10.8809L22.7953 10.9174L22.8122 10.9539L22.8206 10.9988H22.8458L22.8374 10.9511L22.8206 10.9034L22.7897 10.8641L22.7561 10.8304L22.7169 10.7995L22.6692 10.7799L22.6216 10.7687L22.5684 10.7603V10.7631V10.7883Z" fill="white"/>
<path fill-rule="evenodd" clip-rule="evenodd" d="M21.6543 10.8918L21.6767 10.903L21.6963 10.8918L21.7244 10.8778L21.7608 10.8665L21.8084 10.8525L21.8589 10.8413L21.9149 10.83L21.9766 10.8216L22.0382 10.8132L22.1027 10.802L22.1699 10.7964L22.24 10.7908L22.31 10.788H22.3773H22.4446H22.5062H22.5679V10.7627L22.5062 10.7599L22.4446 10.7571H22.3773L22.31 10.7599L22.24 10.7655L22.1699 10.7711L22.1027 10.7795L22.0382 10.788L21.971 10.7936L21.9093 10.8048L21.8533 10.816L21.8028 10.8272L21.758 10.8385L21.7159 10.8525L21.6851 10.8665L21.6599 10.8834L21.6795 10.8946L21.6543 10.8918Z" fill="white"/>
<path fill-rule="evenodd" clip-rule="evenodd" d="M21.8112 10.3672L21.8028 10.3784L21.6543 10.892L21.6795 10.8948L21.828 10.3812L21.8196 10.3924L21.8112 10.3672L21.8056 10.37L21.8028 10.3784L21.8112 10.3672Z" fill="white"/>
<path fill-rule="evenodd" clip-rule="evenodd" d="M22.7577 10.269L22.6849 10.2662L22.6148 10.2634H22.5447H22.4803H22.413L22.3514 10.2662L22.2897 10.269L22.2309 10.2747L22.172 10.2775L22.116 10.2859L22.0627 10.2943L22.0095 10.3055L21.9591 10.3168L21.9058 10.3308L21.8582 10.3476L21.8105 10.3673L21.819 10.3925L21.8666 10.3729L21.9142 10.356L21.9619 10.342L22.0123 10.3308L22.0656 10.3196L22.1188 10.3111L22.172 10.3027L22.2309 10.2999L22.2897 10.2943L22.3514 10.2915H22.413H22.4803H22.5447H22.6148L22.6849 10.2943H22.7577V10.269Z" fill="white"/>
<path fill-rule="evenodd" clip-rule="evenodd" d="M23.4892 10.9901L23.4976 10.9031V10.8217L23.4836 10.7487L23.4612 10.6785L23.4248 10.6112L23.3827 10.5523L23.3323 10.4989L23.279 10.4512L23.2174 10.4119L23.1529 10.3726L23.0857 10.3446L23.0184 10.3165L22.9484 10.2997L22.8839 10.2828L22.8167 10.2744L22.7578 10.2688V10.2941L22.8167 10.2997L22.8783 10.3081L22.9456 10.3249L23.01 10.3446L23.0773 10.3698L23.1417 10.3979L23.2034 10.4316L23.2622 10.4737L23.3155 10.5186L23.3631 10.5691L23.4051 10.6252L23.4332 10.687L23.4584 10.7515L23.4724 10.8217V10.9031L23.4612 10.9873L23.4892 10.9901Z" fill="white"/>
<path fill-rule="evenodd" clip-rule="evenodd" d="M23.2655 12.1155L23.4896 10.9901L23.4616 10.9873L23.2402 12.1127L23.2655 12.1155Z" fill="white"/>
<path fill-rule="evenodd" clip-rule="evenodd" d="M22.7393 11.5571L22.7337 11.5459L22.7253 11.5347L22.7113 11.529L22.6889 11.5206H22.6664L22.6384 11.5178H22.6048L22.574 11.5206L22.5403 11.5234L22.5067 11.529L22.4731 11.5319L22.4395 11.5375L22.4086 11.5431L22.3806 11.5487L22.3526 11.5543L22.333 11.5571L22.3162 11.5599L22.2993 11.5655L22.2797 11.574L22.2545 11.5824L22.2265 11.5936L22.2013 11.6076L22.1704 11.6217L22.1452 11.6413L22.1172 11.661L22.0892 11.6834L22.0667 11.7059L22.0415 11.7339L22.0219 11.7648L22.0079 11.7957L21.9967 11.8293L21.9883 11.8658V11.9388L21.9967 11.9977L22.0135 12.0398L22.0387 12.0707L22.0724 12.0932L22.1088 12.1044L22.1452 12.1128H22.1816H22.2433L22.3049 12.1044L22.3582 12.0932L22.4086 12.0791L22.4563 12.0623L22.4955 12.0426L22.5347 12.023L22.5684 11.9977L22.5992 11.9725L22.6216 11.9444L22.6468 11.9191L22.6664 11.8911L22.6805 11.8658L22.6917 11.8406L22.7001 11.8153L22.7057 11.7929L22.7141 11.7311L22.7253 11.6722L22.7337 11.6104L22.7393 11.5571Z" fill="#FBB231"/>
<path fill-rule="evenodd" clip-rule="evenodd" d="M27.1191 12.2954L27.1247 12.2449L27.1416 12.1888L27.1696 12.1383L27.206 12.0933L27.2508 12.0569L27.3041 12.0316L27.3573 12.0148L27.4162 12.0063L27.4778 12.0148L27.5311 12.0316L27.5843 12.0569L27.6292 12.0933L27.6656 12.1383L27.6936 12.1888L27.7104 12.2449L27.716 12.2954H27.6516L27.6488 12.2561L27.6376 12.2112L27.6151 12.1663L27.5871 12.1298L27.5535 12.1018L27.5143 12.0793L27.4666 12.0653L27.4162 12.0597L27.3685 12.0653L27.3209 12.0793L27.2817 12.1018L27.248 12.1298L27.22 12.1663L27.1976 12.2112L27.1864 12.2561L27.1808 12.2954H27.1191Z" fill="white"/>
<path fill-rule="evenodd" clip-rule="evenodd" d="M27.3086 12.2951V12.166H27.4263L27.4515 12.1688L27.4767 12.1744L27.4935 12.18L27.5076 12.1885L27.5188 12.2025L27.5272 12.2137L27.53 12.2278L27.5328 12.2446L27.53 12.2642L27.5272 12.2783L27.5216 12.2895L27.516 12.2951H27.4263L27.4347 12.2923L27.4515 12.2895L27.4627 12.2867L27.4739 12.2811L27.4823 12.2755L27.4879 12.2699L27.4907 12.2586V12.2446L27.4879 12.2334L27.4851 12.225L27.4795 12.2193L27.4711 12.2165L27.4599 12.2137L27.4515 12.2109H27.4403H27.4263H27.3618V12.2951H27.3086Z" fill="white"/>
<path fill-rule="evenodd" clip-rule="evenodd" d="M27.118 12.2952L27.1152 12.3064L27.1236 12.3709L27.1405 12.4271L27.1685 12.4776L27.2049 12.5197L27.2497 12.5562L27.303 12.5842L27.3562 12.6011L27.4151 12.6067L27.4767 12.6011L27.53 12.5842L27.5832 12.5562L27.6281 12.5197L27.6645 12.4776L27.6925 12.4271L27.7093 12.3709L27.7149 12.3064V12.2952H27.6505L27.6533 12.3064L27.6477 12.3597L27.6365 12.4046L27.614 12.4467L27.586 12.4832L27.5524 12.5113L27.5132 12.5365L27.4655 12.5506L27.4151 12.5534L27.3674 12.5506L27.3198 12.5365L27.2806 12.5113L27.2469 12.4832L27.2189 12.4467L27.1965 12.4046L27.1853 12.3597L27.1797 12.3064V12.2952H27.118Z" fill="white"/>
<path fill-rule="evenodd" clip-rule="evenodd" d="M27.3086 12.2952V12.4243H27.3618V12.3176H27.4151L27.4795 12.4243H27.5216L27.4599 12.3176H27.4739L27.4879 12.3148L27.5019 12.3092L27.5132 12.3008L27.516 12.2952H27.4263L27.4151 12.298H27.3618V12.2952H27.3086Z" fill="white"/>
<path d="M27.4291 12.5083H27.4795H27.5272L27.5664 12.4831L27.6 12.455L27.6281 12.4185L27.6505 12.3764V12.3315V12.2782V12.2277V12.18L27.6281 12.1379L27.6 12.1014L27.5664 12.0733L27.5272 12.0509H27.4795H27.4291L27.3787 12.0677H27.331L27.2918 12.0902L27.2582 12.1182L27.2301 12.1547L27.2077 12.1968V12.2445V12.2951V12.3484V12.3933L27.2301 12.4354L27.2582 12.4719L27.2918 12.4999L27.331 12.5252H27.3787H27.4263M27.1152 12.3063V12.2445L27.132 12.1884L27.1601 12.1379L27.1965 12.093L27.2413 12.0565L27.2946 12.0312L27.3478 12.0144H27.4067H27.4683L27.5216 12.0312L27.5748 12.0565L27.6196 12.093L27.6561 12.1379L27.6841 12.1884L27.7009 12.2445V12.3063V12.368L27.6841 12.427L27.6561 12.4775L27.6196 12.5196L27.5748 12.5561L27.5216 12.5841L27.4683 12.601H27.4067H27.3478L27.2946 12.5841L27.2413 12.5561L27.1965 12.5196L27.1601 12.4775L27.132 12.427L27.1152 12.368V12.3063ZM27.3646 12.4242H27.3086V12.166H27.4515H27.4767H27.4935V12.1968V12.2305H27.4795H27.4515L27.5132 12.3372H27.4711L27.4067 12.2305H27.3787V12.3372L27.3646 12.4242ZM27.4291 12.2109H27.4487H27.4767V12.1856V12.166H27.3787V12.253H27.4291V12.2109Z" stroke="white" stroke-width="0.22" stroke-miterlimit="2.61"/>
<path fill-rule="evenodd" clip-rule="evenodd" d="M23.4121 12.5871H24.0118L24.2276 11.3747L24.236 11.327L24.2472 11.2821L24.2612 11.2344L24.278 11.1866L24.3004 11.1417L24.3257 11.094L24.3537 11.0519L24.3873 11.0126L24.4265 10.9762L24.4686 10.9425L24.5162 10.9088L24.5723 10.8835L24.6339 10.8639L24.7012 10.8471L24.7768 10.833L24.8581 10.8302H24.8889H24.9057H24.9113L25.0066 10.283L24.9478 10.2858L24.8917 10.2914L24.8385 10.3026L24.7852 10.3166L24.7404 10.3363L24.6956 10.3559L24.6535 10.3784L24.6115 10.4064L24.5751 10.4345L24.5386 10.4654L24.505 10.4991L24.4686 10.5327L24.4378 10.5692L24.4069 10.6085L24.3733 10.6478L24.3453 10.6899L24.4069 10.3054H23.81L23.4121 12.5871Z" fill="white"/>
<path d="M23.4121 12.5871H24.0118L24.2276 11.3747L24.236 11.327L24.2472 11.2821L24.2612 11.2344L24.278 11.1866L24.3004 11.1417L24.3257 11.094L24.3537 11.0519L24.3873 11.0126L24.4265 10.9762L24.4686 10.9425L24.5162 10.9088L24.5723 10.8835L24.6339 10.8639L24.7012 10.8471L24.7768 10.833L24.8581 10.8302H24.8889H24.9057H24.9113L25.0066 10.283L24.9478 10.2858L24.8917 10.2914L24.8385 10.3026L24.7852 10.3166L24.7404 10.3363L24.6956 10.3559L24.6535 10.3784L24.6115 10.4064L24.5751 10.4345L24.5386 10.4654L24.505 10.4991L24.4686 10.5327L24.4378 10.5692L24.4069 10.6085L24.3733 10.6478L24.3453 10.6899L24.4069 10.3054H23.81L23.4121 12.5871Z" stroke="white" stroke-width="0.22" stroke-miterlimit="2.61"/>
<path fill-rule="evenodd" clip-rule="evenodd" d="M17.7773 12.5871H18.377H18.3882L18.5928 11.3747L18.6012 11.327L18.6124 11.2821L18.6208 11.2372L18.6377 11.1951L18.6545 11.153L18.6741 11.1137L18.6993 11.0744L18.7301 11.0379L18.7638 11.007L18.803 10.9734L18.8506 10.9481L18.9011 10.9256L18.9599 10.906L19.0272 10.8892L19.1 10.8779L19.1813 10.8723H19.1869L19.1953 10.8751H19.2065H19.2177L19.2289 10.8779L19.2373 10.8807L19.243 10.8835H19.2458L19.2486 10.8751L19.2542 10.8499L19.2626 10.8106L19.2738 10.7629L19.2878 10.7067L19.3018 10.6478L19.3214 10.5889L19.341 10.5299L19.3578 10.4878L19.3803 10.4485L19.3999 10.4064L19.4223 10.37L19.4419 10.3391L19.4559 10.3138L19.4671 10.2998L19.4699 10.2914H19.4615L19.4503 10.2886L19.4335 10.2858H19.4195L19.4027 10.283H19.3887H19.3719L19.3074 10.2858L19.2486 10.2914L19.1925 10.3026L19.1421 10.3166L19.0916 10.3335L19.0468 10.3559L19.0076 10.3756L18.9683 10.4008L18.9319 10.4289L18.8983 10.4598L18.8674 10.4934L18.8338 10.5299L18.803 10.5664L18.7722 10.6057L18.7413 10.6478L18.7077 10.6899L18.7862 10.3054H18.1753L17.7773 12.5871Z" fill="white"/>
<path d="M17.7773 12.5871H18.377H18.3882L18.5928 11.3747L18.6012 11.327L18.6124 11.2821L18.6208 11.2372L18.6377 11.1951L18.6545 11.153L18.6741 11.1137L18.6993 11.0744L18.7301 11.0379L18.7638 11.007L18.803 10.9734L18.8506 10.9481L18.9011 10.9256L18.9599 10.906L19.0272 10.8892L19.1 10.8779L19.1813 10.8723H19.1869L19.1953 10.8751H19.2065H19.2177L19.2289 10.8779L19.2373 10.8807L19.243 10.8835H19.2458L19.2486 10.8751L19.2542 10.8499L19.2626 10.8106L19.2738 10.7629L19.2878 10.7067L19.3018 10.6478L19.3214 10.5889L19.341 10.5299L19.3578 10.4878L19.3803 10.4485L19.3999 10.4064L19.4223 10.37L19.4419 10.3391L19.4559 10.3138L19.4671 10.2998L19.4699 10.2914H19.4615L19.4503 10.2886L19.4335 10.2858H19.4195L19.4027 10.283H19.3887H19.3719L19.3074 10.2858L19.2486 10.2914L19.1925 10.3026L19.1421 10.3166L19.0916 10.3335L19.0468 10.3559L19.0076 10.3756L18.9683 10.4008L18.9319 10.4289L18.8983 10.4598L18.8674 10.4934L18.8338 10.5299L18.803 10.5664L18.7722 10.6057L18.7413 10.6478L18.7077 10.6899L18.7862 10.3054H18.1753L17.7773 12.5871Z" stroke="white" stroke-width="0.22" stroke-miterlimit="2.61"/>
<path fill-rule="evenodd" clip-rule="evenodd" d="M27.125 14.8266V14.8181L27.1418 14.7648L27.1698 14.7143L27.2063 14.6722L27.2511 14.6385L27.3044 14.6133L27.3576 14.5992L27.4164 14.5908L27.4781 14.5992L27.5313 14.6133L27.5846 14.6385L27.6294 14.6722L27.6658 14.7143L27.6939 14.7648L27.7107 14.8181V14.8266H27.649L27.6378 14.7845L27.6154 14.7424L27.5874 14.7059L27.5538 14.6778L27.5145 14.6526L27.4669 14.6385L27.4164 14.6329L27.3688 14.6385L27.3212 14.6526L27.2819 14.6778L27.2483 14.7059L27.2203 14.7424L27.1979 14.7845L27.1867 14.8266H27.125Z" fill="#FBB231"/>
<path fill-rule="evenodd" clip-rule="evenodd" d="M27.3086 14.8266V14.7537H27.4263H27.4515L27.4767 14.7565L27.4935 14.7621L27.5076 14.7705L27.5188 14.7817L27.5272 14.793L27.53 14.8098L27.5328 14.8266H27.4907V14.8182L27.4879 14.807L27.4851 14.7986L27.4795 14.793L27.4711 14.7901L27.4599 14.7873L27.4515 14.7845H27.4403H27.4263H27.3618V14.8266H27.3086Z" fill="#FBB231"/>
<path fill-rule="evenodd" clip-rule="evenodd" d="M27.1152 14.8744L27.1236 14.8267H27.1853V14.8295L27.1797 14.8744H27.1152Z" fill="#FBB231"/>
<path fill-rule="evenodd" clip-rule="evenodd" d="M27.3086 14.8744V14.8267H27.3618V14.8716H27.4151L27.4347 14.866L27.4515 14.8631L27.4627 14.8603L27.4739 14.8547L27.4823 14.8491L27.4879 14.8435L27.4907 14.8323V14.8267H27.5328L27.53 14.8435L27.5272 14.8547L27.5216 14.866L27.5132 14.8744H27.3086Z" fill="#FBB231"/>
<path fill-rule="evenodd" clip-rule="evenodd" d="M27.654 14.8744L27.6484 14.8295V14.8267H27.7101L27.7157 14.8744H27.654Z" fill="#FBB231"/>
<path fill-rule="evenodd" clip-rule="evenodd" d="M27.1152 14.8745V14.8801L27.1236 14.9419L27.1405 15.0008L27.1685 15.0513L27.2049 15.0962L27.2497 15.1327L27.303 15.158L27.3562 15.1748L27.4151 15.1804L27.4767 15.1748L27.53 15.158L27.5832 15.1327L27.6281 15.0962L27.6645 15.0513L27.6925 15.0008L27.7093 14.9419L27.7149 14.8801V14.8745H27.6533V14.8801L27.6477 14.9334L27.6365 14.9784L27.614 15.0204L27.586 15.0569L27.5524 15.085L27.5132 15.1103L27.4655 15.1243L27.4151 15.1299L27.3674 15.1243L27.3198 15.1103L27.2806 15.085L27.2469 15.0569L27.2189 15.0204L27.1965 14.9784L27.1853 14.9334L27.1797 14.8801V14.8745H27.1152Z" fill="#FBB231"/>
<path fill-rule="evenodd" clip-rule="evenodd" d="M27.3086 14.8745V14.998H27.3618V14.8914H27.4151L27.4795 14.998H27.5216L27.4599 14.8914H27.4739L27.4879 14.8885L27.5019 14.8829L27.5132 14.8745H27.3086Z" fill="#FBB231"/>
<path fill-rule="evenodd" clip-rule="evenodd" d="M17.8514 10.9847L17.8346 10.8584L17.8037 10.7433L17.7617 10.6451L17.7085 10.5609L17.644 10.488L17.574 10.429L17.4983 10.3785L17.4142 10.3392L17.3302 10.3083L17.2433 10.2859H17.1536H17.0667H16.9855H16.8117L16.6604 10.3111L16.5203 10.3504L16.397 10.4038L16.2905 10.4683L16.198 10.5385L16.114 10.6199L16.0467 10.7069L15.9879 10.7939L15.9374 10.8893L15.901 10.9819L15.8674 11.0717L15.8449 11.1615L15.8281 11.2457V11.3243V11.3916V11.5656V11.7228L15.8505 11.8659L15.887 11.9922L15.9374 12.1045L15.9991 12.2027L16.0719 12.2897L16.1532 12.3627L16.2429 12.4244L16.3409 12.4777L16.439 12.5198L16.5427 12.5507L16.6492 12.576H16.7557H16.8622H17.2657H17.3105H17.3526H17.3918H17.4254H17.4619H17.4955H17.5263H17.5571H17.5936L17.6272 12.5563L17.6608 12.5395L17.7449 12.0175L17.6832 12.054L17.6244 12.0876L17.5627 12.1129L17.5039 12.1354L17.4451 12.155H17.3862H17.3274H17.2713H17.2153H17.0107H16.9546H16.8986H16.8454H16.7893H16.7473L16.7052 12.1382L16.6632 12.1213L16.624 12.0961L16.5875 12.0708L16.5511 12.0399L16.5203 12.0063L16.4895 11.9698L16.4642 11.9361L16.4418 11.894L16.425 11.8547L16.4082 11.8154V11.7761V11.6695H17.7897V11.5404L17.8206 11.3608V11.2008L17.8514 10.9847ZM17.2741 11.1812H16.4951V11.1531V11.1082L16.5091 11.0633V11.0212L16.5287 10.9847L16.5483 10.9482L16.5707 10.9117L16.596 10.8809L16.624 10.85L16.652 10.8247L16.6856 10.8023L16.7165 10.7826L16.7529 10.7658H16.7893H16.8257H16.8622H16.9042H16.9406H16.9771H17.0107H17.0471L17.078 10.7826L17.1088 10.8023L17.1368 10.8219L17.162 10.8472L17.1844 10.8781L17.2069 10.9089L17.2209 10.9454V10.9875V11.0296V11.0773V11.1812H17.2741Z" fill="white"/>
</svg>
