<svg width="36" height="22" viewBox="0 0 36 22" fill="none" xmlns="http://www.w3.org/2000/svg">
<path d="M34.8003 0H1.19971C0.53713 0 0 0.525219 0 1.17311V20.8269C0 21.4748 0.53713 22 1.19971 22H34.8003C35.4629 22 36 21.4748 36 20.8269V1.17311C36 0.525219 35.4629 0 34.8003 0Z" fill="#E2E2E2"/>
<path d="M11.1706 10.4879V10.1371L10.9984 10.4879H9.50595L9.31939 10.1034V10.4794H6.53537L6.20531 9.71889H5.64563L5.29834 10.4794H3.86328V8.18936L4.92523 5.84595H6.95154L7.23855 6.50828V5.85156H9.71834L10.2637 6.97415L10.7975 5.85156H18.61C18.8491 5.85091 19.084 5.91293 19.2902 6.03118V5.85156H21.262V6.10414C21.5237 5.93878 21.8287 5.85105 22.1402 5.85156H25.6217L25.9259 6.52512V5.85156H28.156L28.5607 6.52512V5.85156H30.6932V10.4935H28.5033L27.9896 9.68241V10.4879H25.2572L24.8755 9.64592H24.3502L23.9915 10.4879H22.344C21.9618 10.4737 21.5903 10.3604 21.2677 10.1595V10.4879H17.9872V9.40457C17.9872 9.2474 17.8638 9.25863 17.8638 9.25863H17.7461V10.4879H11.1706Z" fill="white"/>
<path d="M9.5332 11.5066H13.8384L14.4612 12.1942L15.0984 11.5066H18.4134C18.6245 11.5174 18.8309 11.572 19.019 11.6666V11.5066H21.9695C22.2116 11.5126 22.4488 11.5751 22.6612 11.689V11.5066H26.4526V11.675C26.6456 11.5662 26.8641 11.5082 27.0869 11.5066H29.5609V11.675C29.7589 11.5731 29.9775 11.5156 30.201 11.5066H32.1441V15.8847C32.0393 15.9804 31.916 16.0545 31.7814 16.1027C31.6468 16.151 31.5037 16.1722 31.3605 16.1654H28.8032V16.025C28.6133 16.1201 28.4024 16.1682 28.189 16.1654H21.3868V15.0428C21.3868 14.9333 21.338 14.9109 21.2376 14.9109H21.1429V16.1766H19.019V14.8996C18.8217 14.9866 18.6068 15.0288 18.3904 15.0231H17.627V16.1457H15.0094L14.4153 15.4357L13.7753 16.1569H9.5332V11.5066Z" fill="white"/>
<path d="M23.1172 12.1941H25.8237V12.9041H23.9467V13.5216H25.7692V14.1446H23.9467V14.7957H25.8237V15.4889H23.1172V12.1941Z" fill="#0078A9"/>
<path d="M31.0457 13.4711C32.0617 13.5216 32.1478 14.0184 32.1478 14.5488C32.1463 14.6807 32.117 14.8108 32.0619 14.9312C32.0068 15.0515 31.927 15.1595 31.8274 15.2485C31.7278 15.3374 31.6106 15.4054 31.4831 15.4482C31.3555 15.491 31.2203 15.5078 31.0859 15.4974H29.3638V14.7958H30.7099C30.9395 14.7958 31.2839 14.7958 31.2839 14.4814C31.2839 14.3299 31.2236 14.2345 30.9797 14.2008C30.8706 14.1839 30.4688 14.1643 30.4056 14.1615C29.4872 14.139 29.2748 13.6928 29.2748 13.1484C29.2677 13.0204 29.2883 12.8924 29.3354 12.7727C29.3824 12.6531 29.4548 12.5445 29.5477 12.4541C29.6407 12.3638 29.7521 12.2937 29.8748 12.2484C29.9974 12.2031 30.1284 12.1836 30.2593 12.1913H31.9986V12.9098H30.7099C30.4229 12.9098 30.1071 12.8761 30.1071 13.1904C30.1071 13.3925 30.2621 13.4346 30.4573 13.4515L31.0457 13.4711Z" fill="#0078A9"/>
<path d="M27.9306 13.4711C28.9466 13.5216 29.0327 14.0184 29.0327 14.5488C29.0311 14.6807 29.0019 14.8108 28.9468 14.9312C28.8917 15.0515 28.8118 15.1595 28.7123 15.2485C28.6127 15.3374 28.4955 15.4054 28.3679 15.4482C28.2404 15.491 28.1052 15.5078 27.9707 15.4974H26.2487V14.7958H27.6005C27.8301 14.7958 28.1745 14.7958 28.1745 14.4814C28.1745 14.3299 28.1142 14.2345 27.8703 14.2008C27.7612 14.1839 27.3565 14.1643 27.2963 14.1615C26.3778 14.139 26.1654 13.6928 26.1654 13.1484C26.1583 13.0204 26.179 12.8924 26.226 12.7727C26.273 12.6531 26.3454 12.5445 26.4384 12.4541C26.5313 12.3638 26.6428 12.2937 26.7654 12.2484C26.888 12.2031 27.019 12.1836 27.1499 12.1913H28.8892V12.9098H27.6034C27.3164 12.9098 27.0006 12.8761 27.0006 13.1904C27.0006 13.3925 27.1556 13.4346 27.3508 13.4515L27.9306 13.4711Z" fill="#0078A9"/>
<path d="M18.1215 12.1997H15.2112L14.264 13.2241L13.3485 12.1941H10.0938V15.4889H13.2509L14.244 14.4L15.2112 15.4945H16.7984V14.3719H17.912C18.3396 14.3719 19.1232 14.3719 19.1232 13.2016C19.1365 13.0687 19.12 12.9346 19.0747 12.8086C19.0295 12.6827 18.9565 12.5679 18.8611 12.4724C18.7656 12.377 18.65 12.3031 18.5222 12.256C18.3944 12.2088 18.2577 12.1896 18.1215 12.1997ZM12.8146 14.7957H10.906V14.1446H12.7285V13.5216H10.906V12.9097H12.9151L13.7187 13.8078L12.8146 14.7957ZM15.9718 15.1802L14.7835 13.805L15.9718 12.5168V15.1802ZM17.8374 13.6984H16.8127V12.9097H17.846C17.9032 12.9031 17.9611 12.9083 18.0161 12.9252C18.0711 12.942 18.1218 12.97 18.1648 13.0074C18.2079 13.0448 18.2424 13.0907 18.266 13.1421C18.2896 13.1935 18.3018 13.2491 18.3018 13.3055C18.3018 13.3618 18.2896 13.4175 18.266 13.4688C18.2424 13.5202 18.2079 13.5661 18.1648 13.6035C18.1218 13.6409 18.0711 13.6689 18.0161 13.6857C17.9611 13.7026 17.9032 13.7078 17.846 13.7012L17.8374 13.6984Z" fill="#0078A9"/>
<path d="M22.1166 13.9959C22.2995 13.9239 22.4539 13.7964 22.5572 13.6323C22.6606 13.4681 22.7073 13.2758 22.6906 13.0837C22.6906 12.3765 22.1166 12.1997 21.6975 12.1997H19.5449V15.4945H20.3773V14.3326H21.4593C21.7463 14.3326 21.8582 14.6133 21.864 14.8939L21.887 15.4973H22.6935L22.6734 14.8182C22.6734 14.2877 22.5098 14.0323 22.1166 13.9959ZM21.4048 13.6535H20.3773V12.9097H21.4105C21.4664 12.9017 21.5234 12.9055 21.5777 12.9208C21.632 12.9361 21.6823 12.9626 21.7252 12.9985C21.7682 13.0344 21.8028 13.0788 21.8267 13.1289C21.8506 13.1789 21.8634 13.2334 21.864 13.2886C21.8611 13.5075 21.7406 13.6535 21.4048 13.6535Z" fill="#0078A9"/>
<path d="M20.7055 6.50537H19.8789V9.80299H20.7055V6.50537Z" fill="#0078A9"/>
<path d="M13.1055 6.5083H15.8091V7.21834H13.9349V7.83577H15.7575V8.46161H13.9349V9.11271H15.8091V9.80311H13.1055V6.5083Z" fill="#0078A9"/>
<path d="M18.8744 8.30445C19.057 8.23211 19.2112 8.10459 19.3144 7.9405C19.4177 7.77641 19.4646 7.58435 19.4484 7.39234C19.4484 6.68511 18.8744 6.5083 18.4553 6.5083H16.3027V9.80311H17.1322V8.64122H18.2142C18.5013 8.64122 18.6132 8.92187 18.6189 9.20252L18.6419 9.80591H19.4484L19.4168 9.12955C19.414 8.59632 19.2647 8.34654 18.8744 8.30445ZM18.1597 7.96206H17.1293V7.21553H18.1626C18.2185 7.20752 18.2755 7.2113 18.3298 7.22661C18.384 7.24191 18.4343 7.2684 18.4773 7.30429C18.5202 7.34017 18.5548 7.38462 18.5788 7.43466C18.6027 7.4847 18.6154 7.53917 18.6161 7.59441C18.6161 7.81612 18.4984 7.96206 18.1597 7.96206Z" fill="#0078A9"/>
<path d="M11.1945 6.5083L10.1813 8.71981L9.18541 6.5083H7.87377V9.68243L6.4387 6.5083H5.33657L3.86133 9.80311H4.72237L5.04382 9.06781H6.69701L7.02421 9.80311H8.68888V7.35866L9.79388 9.80311H10.5487L11.6796 7.39795V9.80311H12.5061V6.5083H11.1945ZM5.36814 8.35777L5.86181 7.20711L6.37556 8.35777H5.36814Z" fill="#0078A9"/>
<path d="M29.2433 6.5083V8.78997L27.8398 6.5083H26.6258V9.59543L25.2137 6.5083H24.1087L22.9606 9.0622C22.9606 9.0622 22.4785 9.0622 22.4297 9.0622C22.2316 9.0201 21.9188 8.88258 21.9159 8.30164V8.06309C21.9159 7.29131 22.3436 7.22115 22.8946 7.22115H23.4055V6.5083H22.3436C21.9676 6.5083 21.1496 6.78895 21.1238 8.14167C21.1037 9.05378 21.5112 9.80591 22.4268 9.80591H23.5174L23.8418 9.07062H25.4921L25.8308 9.80591H27.4639V7.39234L28.9535 9.80591H30.0814V6.5083H29.2433ZM24.1603 8.36058L24.654 7.20711L25.1735 8.36058H24.1603Z" fill="#0078A9"/>
</svg>
