<svg width="24" height="15" viewBox="0 0 24 15" fill="none" xmlns="http://www.w3.org/2000/svg">
<path d="M23.1668 0H0.798657C0.357571 0 0 0.358104 0 0.799847V14.2002C0 14.6419 0.357571 15 0.798657 15H23.1668C23.6079 15 23.9654 14.6419 23.9654 14.2002V0.799847C23.9654 0.358104 23.6079 0 23.1668 0Z" fill="#E2E2E2"/>
<path d="M11.0287 9.75298H9.85742L10.5892 5.25049H11.7604L11.0287 9.75298Z" fill="#0066B2"/>
<path d="M8.87257 5.25065L7.75675 8.34671L7.62491 7.68081L7.2294 5.65632C7.20647 5.53051 7.13622 5.4183 7.03313 5.34283C6.93004 5.26735 6.80197 5.23436 6.67531 5.25065H4.82961L4.80859 5.32719C5.2407 5.4351 5.65374 5.60869 6.03333 5.84193L7.0498 9.75888H8.27071L10.126 5.25065H8.87257Z" fill="#0066B2"/>
<path d="M18.0798 9.75898H19.1555L18.2193 5.25649H17.2773C17.1634 5.24766 17.0496 5.27535 16.9524 5.33554C16.8552 5.39574 16.7796 5.48532 16.7366 5.59135L14.9902 9.75898H16.2111L16.4557 9.09116H17.9441L18.0798 9.75898ZM16.792 8.16694L17.4072 6.48114L17.7531 8.16694H16.792Z" fill="#0066B2"/>
<path d="M15.084 6.33374L15.2521 5.35785C14.9135 5.23881 14.5582 5.17423 14.1993 5.1665C13.6166 5.1665 12.2294 5.42483 12.2294 6.66096C12.2294 7.82437 13.8497 7.83776 13.8497 8.45009C13.8497 9.06241 12.3976 8.95143 11.918 8.5649L11.7441 9.57714C12.1619 9.75267 12.6115 9.83934 13.0644 9.83164C13.8631 9.83164 15.0687 9.41641 15.0687 8.28935C15.0687 7.11828 13.4351 7.00921 13.4351 6.50022C13.4351 5.99123 14.5834 6.05629 15.084 6.33374Z" fill="#0066B2"/>
<path d="M7.62491 7.68081L7.2294 5.65632C7.20647 5.53051 7.13622 5.4183 7.03313 5.34283C6.93004 5.26735 6.80197 5.23436 6.67531 5.25065H4.82961L4.80859 5.32719C5.44368 5.48893 6.03622 5.78662 6.54539 6.19975C7.0296 6.58922 7.40208 7.10025 7.62491 7.68081Z" fill="#F9A533"/>
</svg>
