<svg width="340" height="434" viewBox="0 0 340 434" fill="none" xmlns="http://www.w3.org/2000/svg">
<g clip-path="url(#clip0)">
<path opacity="0.7" d="M0 384.827L126.343 331.506L200.117 376.459L84.7587 434.014L0 384.827Z" fill="url(#paint0_linear)"/>
<path d="M95.1893 344.748L173.845 306.018V221.17L89.0723 252.285V340.983C89.0839 341.699 89.2757 342.401 89.63 343.024C89.9843 343.646 90.4897 344.169 91.0994 344.544C91.7091 344.92 92.4035 345.135 93.1184 345.171C93.8332 345.206 94.5455 345.061 95.1893 344.748Z" fill="#EDA462"/>
<path d="M173.832 389.473L91.5147 348.911C90.8051 348.559 90.2074 348.017 89.7887 347.344C89.37 346.672 89.1469 345.896 89.1445 345.103V252.285L173.903 283.385L173.832 389.473Z" fill="#DD9B5E"/>
<path d="M252.487 344.748L173.846 306.018V221.17L258.604 252.285V340.983C258.593 341.699 258.401 342.401 258.047 343.024C257.692 343.646 257.187 344.169 256.577 344.544C255.968 344.92 255.273 345.135 254.558 345.171C253.843 345.206 253.131 345.061 252.487 344.748Z" fill="#E59351"/>
<path d="M205.978 189.004L173.846 221.17L258.604 252.285L290.765 219.806L205.978 189.004Z" fill="#F6C482"/>
<path d="M56.9121 219.806L89.0727 252.285L173.846 221.17L141.713 189.004L56.9121 219.806Z" fill="#F6C482"/>
<path d="M173.832 389.473L256.221 348.911C256.93 348.559 257.528 348.017 257.947 347.344C258.365 346.672 258.588 345.896 258.591 345.103V252.285L173.832 283.385V389.473Z" fill="#F6C482"/>
<path d="M131.383 353.613L97.7743 338.454C97.1887 338.168 96.6872 337.735 96.319 337.197C95.9508 336.659 95.7285 336.035 95.6738 335.385V318.052C95.6738 316.873 96.6247 316.347 97.7743 316.873L131.383 332.032C131.972 332.317 132.476 332.751 132.845 333.292C133.214 333.833 133.434 334.462 133.483 335.115V352.434C133.483 353.613 132.546 354.139 131.383 353.613Z" fill="#CB794D"/>
<path d="M202.259 353.315C202.109 356.04 201.203 358.669 199.644 360.907C198.085 363.146 195.933 364.905 193.431 365.988C188.549 367.878 184.604 365.264 184.604 360.163C184.754 357.438 185.66 354.809 187.219 352.571C188.778 350.333 190.929 348.573 193.431 347.49C198.314 345.6 202.259 348.214 202.259 353.315Z" fill="#CB794D"/>
<path d="M186.463 359.453C186.608 356.899 187.412 354.426 188.798 352.277C190.184 350.128 192.103 348.376 194.368 347.192C194.05 347.277 193.737 347.381 193.431 347.504C190.929 348.587 188.778 350.347 187.219 352.585C185.66 354.824 184.754 357.453 184.604 360.177C184.604 365.278 188.549 367.892 193.431 366.003C193.751 365.883 194.064 365.746 194.368 365.591C189.926 366.827 186.463 364.17 186.463 359.453Z" fill="#B76441"/>
<path d="M188.479 363.331L192.354 361.825C192.551 361.741 192.72 361.603 192.843 361.427C192.966 361.252 193.038 361.045 193.049 360.831C193.061 360.744 193.048 360.656 193.012 360.577C192.976 360.497 192.919 360.43 192.847 360.381C192.774 360.332 192.69 360.305 192.603 360.301C192.516 360.298 192.43 360.319 192.354 360.362L188.479 361.854L189.487 359.58C189.984 359.836 190.736 359.097 190.637 358.472L190.452 357.194C190.452 356.711 189.941 356.568 189.487 356.924L188.224 357.947C188.054 358.067 187.926 358.236 187.855 358.432C187.784 358.627 187.774 358.839 187.826 359.041C187.861 359.13 187.924 359.206 188.007 359.255C188.089 359.304 188.186 359.323 188.281 359.311L187.259 361.598C186.705 362.82 187.401 363.8 188.508 363.374L188.479 363.331Z" fill="#B76441"/>
<path d="M199.634 356.753L197.746 353.997C197.562 353.727 197.136 353.77 196.795 354.096C196.638 354.225 196.527 354.401 196.478 354.598C196.429 354.796 196.446 355.003 196.526 355.19L198.413 357.947L196.284 358.757C196.31 358.661 196.311 358.56 196.289 358.464C196.267 358.367 196.221 358.278 196.157 358.202C195.915 357.975 195.475 358.103 195.163 358.472C195.163 358.472 194.141 359.708 194.099 359.78C193.758 360.206 193.744 360.76 194.099 360.916L195.163 361.399C195.36 361.438 195.565 361.41 195.745 361.32C195.924 361.23 196.069 361.083 196.157 360.902C196.275 360.701 196.32 360.465 196.284 360.234L198.413 359.41C199.506 358.984 200.202 357.464 199.662 356.668L199.634 356.753Z" fill="#B76441"/>
<path d="M196.371 350.786C196.149 350.858 195.956 350.997 195.817 351.184L194.682 349.536C194.128 348.726 192.737 349.266 192.184 350.502L190.183 354.963C189.984 355.389 190.112 355.787 190.438 355.858C190.645 355.866 190.85 355.809 191.023 355.694C191.196 355.579 191.329 355.413 191.403 355.219L193.39 350.758L194.54 352.42C194.329 352.571 194.17 352.785 194.086 353.031C193.944 353.457 194.086 353.812 194.483 353.827H195.746C195.997 353.794 196.228 353.676 196.402 353.492C196.575 353.308 196.679 353.07 196.697 352.818L196.896 351.397C196.896 350.971 196.683 350.701 196.3 350.786H196.371Z" fill="#B76441"/>
<path d="M220.853 347.944L207.285 354.508C207.049 354.631 206.849 354.811 206.702 355.032C206.556 355.253 206.468 355.508 206.447 355.773C206.447 356.242 206.816 356.441 207.285 356.213L220.853 349.635C221.09 349.517 221.292 349.34 221.442 349.121C221.591 348.902 221.681 348.649 221.704 348.385C221.704 347.916 221.321 347.717 220.853 347.944Z" fill="#CB794D"/>
<path d="M207.284 347.717C207.532 347.595 207.742 347.408 207.895 347.177L208.987 345.558V351.141C208.987 351.61 209.371 351.809 209.839 351.582C210.076 351.462 210.278 351.282 210.425 351.06C210.571 350.839 210.658 350.583 210.676 350.317V344.734L211.783 345.302C211.877 345.346 211.978 345.369 212.081 345.369C212.184 345.369 212.286 345.346 212.379 345.302C212.617 345.17 212.821 344.986 212.976 344.762C213.302 344.265 213.302 343.739 212.976 343.569L210.435 342.247C210.342 342.225 210.244 342.225 210.151 342.247C209.91 342.279 209.686 342.389 209.513 342.56C209.41 342.662 209.316 342.771 209.229 342.887L206.688 346.666C206.362 347.149 206.362 347.689 206.688 347.859C206.78 347.908 206.882 347.933 206.986 347.933C207.09 347.933 207.192 347.908 207.284 347.859V347.717Z" fill="#CB794D"/>
<path d="M215.729 343.611C215.972 343.488 216.178 343.301 216.325 343.071L217.418 341.452V347.035C217.418 347.504 217.801 347.703 218.269 347.476C218.507 347.355 218.711 347.176 218.86 346.955C219.009 346.733 219.099 346.477 219.121 346.211V340.628L220.214 341.196C220.307 341.24 220.409 341.263 220.512 341.263C220.615 341.263 220.717 341.24 220.81 341.196C221.053 341.072 221.259 340.886 221.406 340.656C221.747 340.159 221.747 339.633 221.406 339.463L218.866 338.141C218.777 338.119 218.684 338.119 218.596 338.141C218.351 338.173 218.122 338.283 217.943 338.454C217.841 338.553 217.751 338.662 217.673 338.781L215.175 342.404C214.835 342.887 214.835 343.427 215.175 343.597C215.268 343.644 215.37 343.669 215.473 343.669C215.577 343.669 215.679 343.644 215.771 343.597L215.729 343.611Z" fill="#CB794D"/>
<path d="M74.8945 216.751L158.773 247.639L173.832 283.399L89.0872 252.285L74.8945 216.751Z" fill="#DF9F61"/>
<path d="M272.783 216.766L272.428 217.646L258.59 252.285L174.754 283.073L173.86 283.399H173.846L188.904 247.639L272.783 216.766Z" fill="#DF9F61"/>
<path d="M173.151 283.144L173.634 282.945L174.301 282.661L159.427 247.369L158.774 247.639L158.121 247.923L172.938 283.073L173.151 283.144Z" fill="#CB794D"/>
<path d="M158.12 247.923L74.6387 217.419L75.1354 216.084L159.426 247.369L158.12 247.923Z" fill="#F6C482"/>
<path d="M273.025 217.433L272.429 217.647L189.444 248.207L174.755 283.073L173.86 283.399H173.846L173.193 283.115L188.365 247.085L272.542 216.098L272.783 216.766L273.025 217.433Z" fill="#F6C482"/>
<path opacity="0.2" d="M310.819 63.9345C303.723 45.0952 285.003 33.5302 266.822 25.1051C222.583 4.67455 168.339 7.20351 125.307 29.0122C105.82 38.8723 88.9591 56.3619 85.5813 77.9006C80.8977 107.651 103.819 136.393 131.708 147.674C137.315 149.924 143.109 151.678 149.023 152.917L156.8 170.222C157.226 171.148 157.892 171.942 158.73 172.522C159.568 173.102 160.546 173.445 161.562 173.516C162.577 173.588 163.594 173.384 164.504 172.927C165.414 172.47 166.185 171.776 166.735 170.918L176.287 155.716C191.17 155.623 206.02 154.288 220.681 151.723C244.483 147.902 268.937 142.332 288.026 127.57C307.115 112.809 319.335 86.5388 310.819 63.9345Z" fill="#1D1F1E"/>
<path d="M303.894 52.8098C296.798 33.9705 278.078 22.4055 259.897 13.9803C215.658 -6.45021 161.414 -3.92125 118.382 17.8874C98.8951 27.7333 82.0342 45.2229 78.6563 66.7758C73.9869 96.5266 96.8939 125.297 124.783 136.564C130.399 138.816 136.203 140.571 142.126 141.806L149.889 159.125C150.315 160.052 150.981 160.846 151.819 161.426C152.657 162.005 153.635 162.349 154.651 162.42C155.667 162.491 156.683 162.288 157.593 161.83C158.503 161.373 159.274 160.679 159.824 159.822L169.376 144.634C184.273 144.54 199.136 143.21 213.813 140.655C237.614 136.834 262.068 131.264 281.158 116.503C300.247 101.741 312.339 75.4141 303.894 52.8098Z" fill="#1D1F1E"/>
<path d="M70.9641 54.3157C70.2816 54.3138 69.6103 54.1421 69.0106 53.816C68.4109 53.4899 67.9016 53.0196 67.5286 52.4475C67.1556 51.8754 66.9305 51.2194 66.8737 50.5386C66.8168 49.8578 66.93 49.1735 67.203 48.5474C76.0279 28.4689 91.9484 12.3596 111.91 3.31035C112.407 3.0572 112.951 2.90797 113.508 2.87172C114.065 2.83547 114.623 2.91297 115.149 3.0995C115.675 3.28603 116.158 3.5777 116.568 3.95677C116.978 4.33585 117.306 4.79441 117.534 5.30459C117.761 5.81477 117.883 6.36591 117.891 6.92449C117.898 7.48308 117.793 8.03746 117.58 8.55392C117.367 9.07038 117.052 9.53814 116.653 9.92876C116.254 10.3194 115.78 10.6247 115.259 10.8262C97.1412 19.0181 82.6889 33.6273 74.6825 51.8436C74.3659 52.57 73.8467 53.1896 73.1872 53.6281C72.5276 54.0666 71.7557 54.3053 70.9641 54.3157Z" fill="#1D1F1E"/>
<path d="M293.206 139.775C292.383 139.775 291.579 139.528 290.898 139.066C290.217 138.605 289.69 137.949 289.384 137.185C289.079 136.42 289.009 135.582 289.184 134.777C289.359 133.972 289.772 133.239 290.367 132.671C315.332 109.513 323.606 70.0154 310.038 38.7729C309.825 38.2747 309.712 37.7393 309.705 37.1973C309.698 36.6554 309.798 36.1173 309.999 35.614C310.2 35.1107 310.498 34.652 310.876 34.264C311.254 33.8759 311.705 33.5663 312.203 33.3527C312.7 33.139 313.235 33.0256 313.776 33.0189C314.318 33.0121 314.855 33.1122 315.358 33.3134C315.861 33.5146 316.319 33.813 316.707 34.1915C317.094 34.57 317.404 35.0212 317.617 35.5193C332.534 69.8591 323.436 113.278 296.002 138.738C295.236 139.427 294.236 139.798 293.206 139.775Z" fill="#1D1F1E"/>
<path d="M324.913 118.279C324.143 118.282 323.387 118.068 322.733 117.662C322.078 117.255 321.551 116.673 321.212 115.98C320.873 115.288 320.735 114.514 320.815 113.747C320.895 112.98 321.189 112.251 321.663 111.644C325.784 106.242 328.744 100.046 330.359 93.4447C331.973 86.8433 332.207 79.9791 331.045 73.283C330.933 72.2438 331.221 71.2012 331.848 70.3661C332.476 69.531 333.398 68.966 334.426 68.7854C335.454 68.6048 336.513 68.8221 337.387 69.3934C338.261 69.9647 338.886 70.8472 339.135 71.8622C340.494 79.6918 340.222 87.7182 338.333 95.4372C336.445 103.156 332.983 110.401 328.164 116.716C327.777 117.208 327.283 117.604 326.72 117.875C326.157 118.146 325.539 118.284 324.913 118.279Z" fill="#1D1F1E"/>
<path d="M167.161 96.6119C167.138 97.9974 166.569 99.3176 165.577 100.284C164.585 101.25 163.251 101.784 161.867 101.769H161.484V103.275C161.598 104.081 161.539 104.902 161.309 105.683C161.079 106.464 160.684 107.186 160.151 107.801C159.619 108.416 158.96 108.909 158.22 109.247C157.48 109.585 156.677 109.76 155.863 109.76C155.05 109.76 154.246 109.585 153.507 109.247C152.767 108.909 152.108 108.416 151.575 107.801C151.042 107.186 150.648 106.464 150.418 105.683C150.188 104.902 150.128 104.081 150.243 103.275V101.769H134.631C133.678 101.789 132.735 101.564 131.893 101.117C131.051 100.669 130.337 100.013 129.82 99.2119C129.302 98.4104 128.998 97.4897 128.936 96.5373C128.874 95.5849 129.056 94.6324 129.465 93.7704L140.706 67.671C141.195 66.464 142.091 65.4659 143.237 64.8486C144.383 64.2313 145.708 64.0336 146.984 64.2894C148.26 64.5452 149.407 65.2386 150.228 66.2501C151.048 67.2616 151.49 68.5278 151.478 69.8305C151.472 70.4554 151.362 71.075 151.151 71.6633L142.792 91.4119H150.243V87.448C150.128 86.6421 150.188 85.8209 150.418 85.04C150.648 84.2592 151.042 83.5369 151.575 82.922C152.108 82.3071 152.767 81.814 153.507 81.4761C154.246 81.1381 155.05 80.9632 155.863 80.9632C156.677 80.9632 157.48 81.1381 158.22 81.4761C158.96 81.814 159.619 82.3071 160.151 82.922C160.684 83.5369 161.079 84.2592 161.309 85.04C161.539 85.8209 161.598 86.6421 161.484 87.448V91.4403H161.867C162.554 91.429 163.237 91.5542 163.876 91.8085C164.515 92.0628 165.098 92.4413 165.59 92.9221C166.082 93.4029 166.474 93.9765 166.744 94.6097C167.014 95.243 167.155 95.9235 167.161 96.6119Z" fill="white"/>
<path d="M206.163 86.2687C206.163 100.206 199.237 109.001 188.266 109.001C177.295 109.001 170.312 100.206 170.312 86.2687C170.312 72.601 177.111 64.2327 188.209 64.2327C199.308 64.2327 206.163 72.601 206.163 86.2687ZM181.865 86.3397C181.865 94.5801 183.952 98.6293 188.266 98.6293C192.581 98.6293 194.667 94.5801 194.667 86.3397C194.667 78.0993 192.638 74.5758 188.266 74.5758C183.895 74.5758 181.865 78.2982 181.865 86.3397Z" fill="white"/>
<path d="M248.443 96.612C248.421 97.9975 247.852 99.3178 246.86 100.284C245.868 101.251 244.534 101.785 243.15 101.769H242.695V103.275C242.818 104.084 242.764 104.91 242.538 105.696C242.312 106.483 241.919 107.211 241.386 107.831C240.853 108.452 240.193 108.949 239.45 109.291C238.707 109.632 237.9 109.808 237.082 109.808C236.265 109.808 235.457 109.632 234.714 109.291C233.972 108.949 233.311 108.452 232.778 107.831C232.245 107.211 231.852 106.483 231.626 105.696C231.4 104.91 231.347 104.084 231.469 103.275V101.769H215.857C214.909 101.779 213.973 101.547 213.139 101.096C212.305 100.644 211.599 99.9874 211.088 99.1875C210.577 98.3876 210.278 97.4707 210.218 96.523C210.159 95.5754 210.341 94.6282 210.748 93.7705L221.988 67.6711C222.479 66.4616 223.377 65.4619 224.526 64.8447C225.675 64.2276 227.003 64.0319 228.281 64.2915C229.559 64.5511 230.706 65.2496 231.524 66.2663C232.342 67.2829 232.78 68.5538 232.761 69.8591C232.755 70.484 232.645 71.1035 232.434 71.6919L224.075 91.4404H231.526V87.4481C231.404 86.6391 231.457 85.8133 231.683 85.027C231.909 84.2407 232.302 83.5125 232.835 82.8922C233.368 82.2719 234.028 81.7742 234.771 81.4329C235.514 81.0917 236.322 80.915 237.139 80.915C237.956 80.915 238.764 81.0917 239.507 81.4329C240.25 81.7742 240.91 82.2719 241.443 82.8922C241.976 83.5125 242.369 84.2407 242.595 85.027C242.821 85.8133 242.874 86.6391 242.752 87.4481V91.4404H243.15C243.837 91.4292 244.52 91.5543 245.159 91.8086C245.798 92.0629 246.381 92.4414 246.873 92.9222C247.365 93.403 247.757 93.9766 248.027 94.6099C248.296 95.2432 248.438 95.9236 248.443 96.612Z" fill="white"/>
<path d="M152.586 47.8798V24.9772C152.586 24.6003 152.736 24.239 153.002 23.9725C153.268 23.7061 153.629 23.5564 154.006 23.5564H167.815C168.192 23.5564 168.553 23.7061 168.819 23.9725C169.085 24.239 169.234 24.6003 169.234 24.9772C169.234 25.354 169.085 25.7153 168.819 25.9818C168.553 26.2482 168.192 26.3979 167.815 26.3979H155.638V34.2547H164.636C165.012 34.2547 165.373 34.4044 165.64 34.6709C165.906 34.9373 166.055 35.2987 166.055 35.6755C166.055 36.0523 165.906 36.4137 165.64 36.6801C165.373 36.9466 165.012 37.0963 164.636 37.0963H155.567V46.7574H168.213C168.589 46.7574 168.95 46.9071 169.216 47.1736C169.482 47.44 169.632 47.8014 169.632 48.1782C169.632 48.555 169.482 48.9164 169.216 49.1828C168.95 49.4493 168.589 49.599 168.213 49.599H153.991C153.778 49.6016 153.567 49.5561 153.374 49.4659C153.181 49.3757 153.01 49.2431 152.876 49.078C152.741 48.9128 152.644 48.7194 152.594 48.5119C152.544 48.3045 152.542 48.0885 152.586 47.8798Z" fill="white"/>
<path d="M184.804 31.5695C184.805 31.7648 184.765 31.958 184.688 32.1372C184.61 32.3164 184.497 32.4777 184.354 32.611C184.212 32.7443 184.043 32.8468 183.859 32.9121C183.675 32.9773 183.48 33.004 183.286 32.9903C182.532 32.9638 181.78 33.0879 181.075 33.3553C180.37 33.6228 179.725 34.0283 179.178 34.5481C178.631 35.068 178.192 35.6917 177.889 36.3829C177.585 37.0741 177.423 37.8189 177.41 38.5739V48.164C177.428 48.3611 177.404 48.5597 177.341 48.7471C177.277 48.9345 177.176 49.1066 177.042 49.2524C176.909 49.3982 176.746 49.5144 176.565 49.5937C176.384 49.6729 176.188 49.7135 175.991 49.7127C175.788 49.7146 175.587 49.6757 175.4 49.5983C175.213 49.5208 175.044 49.4063 174.902 49.2617C174.76 49.1171 174.649 48.9454 174.575 48.7568C174.501 48.5682 174.466 48.3666 174.472 48.164V31.4417C174.452 31.2326 174.475 31.0215 174.541 30.8221C174.607 30.6226 174.714 30.4392 174.855 30.2836C174.996 30.128 175.168 30.0037 175.36 29.9186C175.552 29.8335 175.759 29.7896 175.969 29.7896C176.179 29.7896 176.387 29.8335 176.579 29.9186C176.77 30.0037 176.942 30.128 177.083 30.2836C177.224 30.4392 177.331 30.6226 177.397 30.8221C177.463 31.0215 177.487 31.2326 177.467 31.4417V32.8624C178.194 32.0051 179.102 31.3197 180.125 30.8554C181.148 30.3911 182.262 30.1595 183.385 30.1772C183.757 30.1771 184.113 30.3229 184.379 30.5832C184.644 30.8435 184.797 31.1977 184.804 31.5695Z" fill="white"/>
<path d="M198.883 31.5695C198.884 31.7647 198.844 31.958 198.766 32.1372C198.689 32.3163 198.575 32.4776 198.433 32.611C198.29 32.7443 198.122 32.8468 197.938 32.912C197.754 32.9773 197.559 33.0039 197.364 32.9902C196.603 32.9476 195.841 33.0613 195.125 33.3244C194.409 33.5874 193.755 33.9943 193.202 34.5199C192.649 35.0455 192.209 35.6788 191.91 36.3809C191.61 37.0829 191.457 37.8389 191.46 38.6022V48.164C191.481 48.3731 191.457 48.5841 191.391 48.7835C191.325 48.983 191.218 49.1664 191.077 49.322C190.936 49.4776 190.764 49.6019 190.572 49.687C190.38 49.7721 190.173 49.8161 189.963 49.8161C189.753 49.8161 189.546 49.7721 189.354 49.687C189.162 49.6019 188.99 49.4776 188.849 49.322C188.708 49.1664 188.601 48.983 188.535 48.7835C188.469 48.5841 188.445 48.3731 188.466 48.164V31.4416C188.438 31.2327 188.457 31.0203 188.521 30.8196C188.585 30.619 188.693 30.4352 188.837 30.2815C188.981 30.1278 189.158 30.0081 189.354 29.9311C189.549 29.8541 189.76 29.8216 189.97 29.8361C190.169 29.8398 190.366 29.8828 190.549 29.9627C190.732 30.0425 190.897 30.1576 191.036 30.3014C191.174 30.4452 191.283 30.6149 191.356 30.8008C191.428 30.9867 191.464 31.1851 191.46 31.3848V32.8055C192.184 31.9478 193.089 31.2619 194.11 30.7974C195.131 30.333 196.243 30.1017 197.364 30.1203C197.561 30.1064 197.759 30.1338 197.945 30.2008C198.131 30.2677 198.301 30.3728 198.443 30.5092C198.586 30.6456 198.699 30.8103 198.775 30.9929C198.851 31.1755 198.888 31.3718 198.883 31.5695Z" fill="white"/>
<path d="M220.639 39.7815C220.639 41.7485 220.057 43.6713 218.965 45.3068C217.873 46.9423 216.322 48.2171 214.506 48.9698C212.691 49.7225 210.693 49.9195 208.766 49.5357C206.839 49.152 205.069 48.2048 203.679 46.8139C202.29 45.423 201.344 43.651 200.96 41.7217C200.577 39.7925 200.774 37.7929 201.526 35.9756C202.278 34.1583 203.551 32.6051 205.185 31.5123C206.819 30.4195 208.74 29.8362 210.704 29.8362C213.339 29.8362 215.866 30.884 217.729 32.7491C219.593 34.6142 220.639 37.1438 220.639 39.7815ZM203.864 39.7815C203.823 40.7012 203.97 41.6195 204.294 42.4809C204.619 43.3423 205.114 44.1288 205.751 44.7929C206.388 45.457 207.153 45.9848 207.999 46.3445C208.846 46.7041 209.756 46.8881 210.676 46.8853C211.599 46.8877 212.512 46.704 213.363 46.3452C214.213 45.9863 214.982 45.4597 215.625 44.7967C216.267 44.1337 216.77 43.3479 217.102 42.4862C217.434 41.6246 217.59 40.7047 217.559 39.7815C217.602 38.855 217.456 37.9296 217.131 37.0611C216.805 36.1927 216.308 35.3992 215.668 34.7286C215.028 34.0581 214.259 33.5244 213.407 33.1597C212.555 32.7951 211.638 32.6071 210.712 32.6071C209.785 32.6071 208.868 32.7951 208.016 33.1597C207.164 33.5244 206.395 34.0581 205.755 34.7286C205.115 35.3992 204.618 36.1927 204.292 37.0611C203.967 37.9296 203.821 38.855 203.864 39.7815Z" fill="white"/>
<path d="M236.308 31.5695C236.308 31.7648 236.268 31.958 236.191 32.1372C236.114 32.3164 236 32.4777 235.858 32.611C235.715 32.7443 235.547 32.8468 235.363 32.9121C235.179 32.9773 234.984 33.004 234.789 32.9903C234.029 32.9579 233.271 33.0786 232.559 33.3452C231.847 33.6118 231.195 34.0189 230.643 34.5423C230.091 35.0657 229.65 35.6948 229.346 36.3922C229.041 37.0897 228.88 37.8412 228.871 38.6023V48.164C228.889 48.3611 228.865 48.5597 228.802 48.7471C228.738 48.9345 228.637 49.1066 228.503 49.2524C228.369 49.3982 228.207 49.5144 228.026 49.5937C227.845 49.6729 227.649 49.7135 227.451 49.7127C227.249 49.7146 227.048 49.6757 226.861 49.5983C226.674 49.5208 226.505 49.4063 226.363 49.2617C226.221 49.1171 226.11 48.9454 226.036 48.7568C225.962 48.5682 225.927 48.3666 225.933 48.164V31.4417C225.913 31.2326 225.936 31.0215 226.002 30.8221C226.068 30.6226 226.175 30.4392 226.316 30.2836C226.457 30.128 226.629 30.0037 226.821 29.9186C227.013 29.8335 227.22 29.7896 227.43 29.7896C227.64 29.7896 227.848 29.8335 228.04 29.9186C228.231 30.0037 228.403 30.128 228.544 30.2836C228.685 30.4392 228.792 30.6226 228.858 30.8221C228.924 31.0215 228.948 31.2326 228.928 31.4417V32.8624C229.655 32.0051 230.563 31.3197 231.586 30.8554C232.609 30.3911 233.723 30.1595 234.846 30.1772C235.033 30.1715 235.22 30.2031 235.396 30.2702C235.571 30.3373 235.731 30.4385 235.867 30.568C236.003 30.6975 236.112 30.8527 236.188 31.0246C236.263 31.1965 236.304 31.3817 236.308 31.5695Z" fill="white"/>
<path opacity="0.2" d="M158.277 208.582C163.528 208.582 167.786 203.881 167.786 198.083C167.786 192.284 163.528 187.583 158.277 187.583C153.025 187.583 148.768 192.284 148.768 198.083C148.768 203.881 153.025 208.582 158.277 208.582Z" fill="#1D1F1E"/>
<path d="M154.685 205.314C159.937 205.314 164.194 200.614 164.194 194.815C164.194 189.016 159.937 184.315 154.685 184.315C149.433 184.315 145.176 189.016 145.176 194.815C145.176 200.614 149.433 205.314 154.685 205.314Z" fill="#1D1F1E"/>
<path opacity="0.2" d="M175.607 239.697C179.189 239.697 182.093 236.491 182.093 232.536C182.093 228.581 179.189 225.375 175.607 225.375C172.025 225.375 169.121 228.581 169.121 232.536C169.121 236.491 172.025 239.697 175.607 239.697Z" fill="#1D1F1E"/>
<path d="M173.15 237.466C176.732 237.466 179.636 234.26 179.636 230.306C179.636 226.351 176.732 223.145 173.15 223.145C169.568 223.145 166.664 226.351 166.664 230.306C166.664 234.26 169.568 237.466 173.15 237.466Z" fill="#1D1F1E"/>
</g>
<defs>
<linearGradient id="paint0_linear" x1="78.812" y1="422.89" x2="129.295" y2="322.74" gradientUnits="userSpaceOnUse">
<stop offset="0.02" stop-color="white"/>
<stop offset="0.17" stop-color="#EBE1D8"/>
<stop offset="0.33" stop-color="#D9C6B6"/>
<stop offset="0.49" stop-color="#CBB19B"/>
<stop offset="0.66" stop-color="#C1A287"/>
<stop offset="0.83" stop-color="#BB997C"/>
<stop offset="1" stop-color="#B99678"/>
</linearGradient>
<clipPath id="clip0">
<rect width="340" height="434" fill="white"/>
</clipPath>
</defs>
</svg>
