<svg width="177" height="41" viewBox="0 0 177 41" fill="none" xmlns="http://www.w3.org/2000/svg">
<path d="M53.2067 0V15.8957C62.5982 20.0028 70.0737 27.0513 74.2776 35H69.0065C65.4472 29.3587 60.2507 24.5236 53.2067 20.8365V35H48.2686V18.8673C44.4199 17.6918 40.9192 17.0694 37.1388 17.1191C33.3584 17.0694 29.8577 17.6918 26.0081 18.8708V35H21.0708V20.8365C14.0268 24.5236 8.83035 29.3587 5.27104 35H0C4.20298 27.0513 11.6821 20.0028 21.0708 15.8957V0H26.0081V14.1591C30.1303 13.0857 33.6461 12.648 37.1388 12.6036C40.6315 12.648 44.1473 13.0857 48.2686 14.1591V0H53.2067V0Z" fill="#1D1F1E"/>
<path fill-rule="evenodd" clip-rule="evenodd" d="M85.7598 0.0400391V14.9555H88.5771V8.80287H95.2477V14.9555H98.065V0.0400391H95.2477V6.17195H88.5771V0.0400391H85.7598ZM103.414 14.8673L101.574 19.9273H104.184L110.502 3.7689H107.685L104.763 11.381L101.822 3.7689H98.9014L103.414 14.8673ZM115.262 15.2662C114.234 15.2662 113.332 15.0073 112.559 14.4894C111.786 13.9715 111.181 13.2672 110.746 12.3764C110.318 11.4856 110.104 10.4809 110.104 9.3622C110.104 8.22283 110.322 7.2112 110.757 6.32732C111.199 5.43654 111.817 4.73565 112.611 4.22465C113.405 3.71366 114.337 3.45817 115.407 3.45817C116.396 3.45817 117.239 3.682 117.935 4.12966V0.0400391H120.773V14.9555H118.287V14.3126C118.21 14.3738 118.13 14.4327 118.049 14.4894C117.303 15.0073 116.374 15.2662 115.262 15.2662ZM118.038 11.1438C118.204 10.6328 118.287 10.0389 118.287 9.3622C118.287 8.68548 118.204 8.09163 118.038 7.58063C117.873 7.06964 117.607 6.67259 117.241 6.38947C116.882 6.10635 116.409 5.96479 115.822 5.96479C115.193 5.96479 114.676 6.12016 114.268 6.4309C113.868 6.73473 113.571 7.1456 113.377 7.6635C113.184 8.17449 113.087 8.74072 113.087 9.3622C113.087 9.99059 113.181 10.5637 113.367 11.0816C113.553 11.5926 113.84 12 114.227 12.3039C114.613 12.6077 115.111 12.7596 115.718 12.7596C116.347 12.7596 116.847 12.6181 117.22 12.3349C117.6 12.0518 117.873 11.6548 118.038 11.1438ZM122.844 3.7689V14.9555H125.683V9.23791C125.683 8.80978 125.741 8.42653 125.859 8.08817C125.976 7.74291 126.149 7.44598 126.377 7.19739C126.604 6.94189 126.884 6.73819 127.216 6.58627C127.547 6.42745 127.916 6.33423 128.324 6.3066C128.738 6.27208 129.101 6.30315 129.411 6.39983V3.7689C129.073 3.72747 128.735 3.72057 128.396 3.74819C128.058 3.7689 127.73 3.8276 127.412 3.92427C127.095 4.01404 126.801 4.14179 126.532 4.30752C126.18 4.51468 125.883 4.77708 125.641 5.09472C125.527 5.2451 125.423 5.4032 125.33 5.56905V3.7689H122.844ZM135.385 15.2662C134.259 15.2662 133.272 15.0142 132.422 14.5101C131.573 14.006 130.91 13.312 130.434 12.4282C129.964 11.5374 129.729 10.5154 129.729 9.3622C129.729 8.19521 129.971 7.16977 130.454 6.28589C130.938 5.3951 131.604 4.70112 132.453 4.20394C133.303 3.70676 134.28 3.45817 135.385 3.45817C136.51 3.45817 137.498 3.71021 138.347 4.2143C139.203 4.71838 139.87 5.41582 140.346 6.3066C140.823 7.19048 141.061 8.20902 141.061 9.3622C141.061 10.5223 140.819 11.5477 140.336 12.4385C139.859 13.3224 139.193 14.0164 138.337 14.5205C137.487 15.0176 136.503 15.2662 135.385 15.2662ZM135.385 12.6353C136.289 12.6353 136.963 12.3315 137.405 11.7238C137.853 11.1092 138.078 10.322 138.078 9.3622C138.078 8.36784 137.85 7.57373 137.394 6.97987C136.945 6.38602 136.276 6.08909 135.385 6.08909C134.77 6.08909 134.266 6.22719 133.872 6.50341C133.479 6.77962 133.185 7.16286 132.992 7.65314C132.806 8.14342 132.712 8.7131 132.712 9.3622C132.712 10.3635 132.937 11.161 133.386 11.7549C133.841 12.3418 134.508 12.6353 135.385 12.6353ZM145.483 19.9273C146.056 20.1345 146.66 20.2381 147.295 20.2381C148.117 20.2381 148.88 20.1276 149.585 19.9066C150.289 19.6925 150.883 19.3645 151.366 18.9226C151.856 18.4807 152.191 17.9179 152.371 17.2343C152.433 16.9926 152.474 16.7474 152.495 16.4988C152.523 16.2572 152.537 15.9982 152.537 15.722V3.7689H150.071V4.38361C150.007 4.33248 149.942 4.28295 149.875 4.23501C149.15 3.71711 148.255 3.45817 147.192 3.45817C146.122 3.45817 145.189 3.71366 144.395 4.22465C143.601 4.73565 142.983 5.43654 142.541 6.32732C142.106 7.2112 141.889 8.22283 141.889 9.3622C141.889 10.4809 142.103 11.4856 142.531 12.3764C142.966 13.2672 143.57 13.9715 144.343 14.4894C145.117 15.0073 146.018 15.2662 147.047 15.2662C148.103 15.2662 148.993 15.0327 149.719 14.5656V15.6806C149.733 16.0949 149.626 16.4401 149.398 16.7164C149.177 16.9995 148.88 17.2101 148.507 17.3482C148.134 17.4932 147.737 17.5657 147.316 17.5657C146.923 17.5657 146.557 17.4794 146.218 17.3068C145.887 17.1341 145.631 16.8821 145.452 16.5506L142.842 17.8143C143.125 18.2977 143.491 18.7189 143.939 19.078C144.395 19.4439 144.91 19.7271 145.483 19.9273ZM150.071 9.3622C150.071 10.0389 149.988 10.6328 149.823 11.1438C149.657 11.6548 149.384 12.0518 149.004 12.3349C148.632 12.6181 148.131 12.7596 147.503 12.7596C146.895 12.7596 146.398 12.6077 146.011 12.3039C145.624 12 145.338 11.5926 145.151 11.0816C144.965 10.5637 144.872 9.99059 144.872 9.3622C144.872 8.74072 144.968 8.17449 145.162 7.6635C145.355 7.1456 145.652 6.73473 146.052 6.4309C146.46 6.12016 146.978 5.96479 147.606 5.96479C148.193 5.96479 148.666 6.10635 149.025 6.38947C149.391 6.67259 149.657 7.06964 149.823 7.58063C149.988 8.09163 150.071 8.68548 150.071 9.3622ZM159.808 15.2662C158.662 15.2662 157.65 15.0211 156.773 14.5308C155.903 14.0336 155.22 13.3535 154.723 12.4903C154.232 11.6202 153.987 10.6259 153.987 9.50721C153.987 8.28497 154.229 7.22156 154.712 6.31696C155.196 5.41237 155.862 4.71148 156.711 4.2143C157.561 3.71021 158.538 3.45817 159.643 3.45817C160.816 3.45817 161.814 3.73438 162.636 4.2868C163.458 4.83923 164.065 5.61607 164.459 6.61734C164.853 7.61861 164.991 8.79597 164.873 10.1494H163.516H162.087H157.019C157.107 10.8208 157.315 11.3663 157.644 11.786C158.099 12.3522 158.766 12.6353 159.643 12.6353C160.195 12.6353 160.668 12.5145 161.062 12.2728C161.455 12.0311 161.756 11.6824 161.963 11.2266L164.78 12.0346C164.359 13.0565 163.693 13.8507 162.781 14.4169C161.876 14.9831 160.886 15.2662 159.808 15.2662ZM161.538 6.65877C161.779 6.98589 161.94 7.452 162.023 8.0571H157.093C157.202 7.54043 157.386 7.11575 157.644 6.78307C158.099 6.19612 158.807 5.90264 159.767 5.90264C160.589 5.90264 161.179 6.15469 161.538 6.65877ZM173.704 9.67294V14.9555H176.562V8.67858C176.562 8.49213 176.549 8.19521 176.521 7.78779C176.493 7.38038 176.414 6.93153 176.283 6.44126C176.151 5.94408 175.93 5.46761 175.62 5.01186C175.316 4.55611 174.888 4.17977 174.335 3.88284C173.783 3.58591 173.068 3.43745 172.191 3.43745C171.093 3.43745 170.182 3.67568 169.457 4.15215C169.12 4.37527 168.824 4.63094 168.566 4.91918V3.7689H166.059V14.9555H168.918V9.27934C168.918 8.5819 168.994 8.02257 169.146 7.60135C169.305 7.18013 169.505 6.86248 169.747 6.64842C169.988 6.42745 170.247 6.27898 170.524 6.20302C170.8 6.12707 171.059 6.08909 171.3 6.08909C171.901 6.08909 172.364 6.22374 172.688 6.49305C173.02 6.76235 173.258 7.09726 173.403 7.49777C173.548 7.89828 173.634 8.29879 173.662 8.69929C173.69 9.0929 173.704 9.41745 173.704 9.67294ZM106.037 22.0172V19.5313H108.854V22.0172H106.037ZM106.037 34.7575V23.5709H108.854V34.7575H106.037ZM85.7598 19.842V34.7575H92.3681C93.3832 34.7575 94.2257 34.5676 94.8955 34.1878C95.5653 33.8011 96.0625 33.2694 96.387 32.5927C96.7185 31.9159 96.8842 31.1322 96.8842 30.2414C96.8842 29.4128 96.6494 28.6635 96.1799 27.9937C95.8435 27.5067 95.383 27.1456 94.7983 26.9105C95.1277 26.7102 95.4052 26.4429 95.6309 26.1086C96.0107 25.5562 96.2006 24.8622 96.2006 24.0266C96.2006 23.3706 96.0487 22.7215 95.7448 22.0793C95.441 21.4371 94.9611 20.9054 94.3051 20.4842C93.6491 20.0561 92.7894 19.842 91.7259 19.842H85.7598ZM92.0781 32.1058H88.6186V28.2941H92.0781C92.5132 28.2941 92.8757 28.377 93.1657 28.5427C93.4626 28.7015 93.6836 28.919 93.8286 29.1952C93.9736 29.4715 94.0461 29.7857 94.0461 30.1378C94.0461 30.5383 93.9598 30.887 93.7872 31.184C93.6215 31.474 93.3901 31.7019 93.0932 31.8676C92.7963 32.0264 92.4579 32.1058 92.0781 32.1058ZM91.6845 25.6632H88.6186V22.4729H91.6845C92.2231 22.4729 92.634 22.6283 92.9171 22.939C93.2002 23.2498 93.3418 23.633 93.3418 24.0888C93.3418 24.4548 93.2693 24.7551 93.1243 24.9899C92.9793 25.2178 92.7825 25.387 92.5339 25.4975C92.2853 25.6079 92.0022 25.6632 91.6845 25.6632ZM98.1213 23.5709V34.7575H100.959V29.0399C100.959 28.6118 101.018 28.2285 101.136 27.8901C101.253 27.5449 101.426 27.248 101.653 26.9994C101.881 26.7439 102.161 26.5402 102.492 26.3882C102.824 26.2294 103.193 26.1362 103.601 26.1086C104.015 26.0741 104.378 26.1051 104.688 26.2018V23.5709C104.35 23.5294 104.012 23.5225 103.673 23.5502C103.335 23.5709 103.007 23.6296 102.689 23.7262C102.372 23.816 102.078 23.9438 101.809 24.1095C101.457 24.3167 101.16 24.5791 100.918 24.8967C100.804 25.0471 100.7 25.2052 100.607 25.371V23.5709H98.1213ZM112.964 34.2914C113.738 34.8093 114.639 35.0682 115.668 35.0682C116.78 35.0682 117.708 34.8093 118.454 34.2914C118.536 34.2347 118.615 34.1757 118.692 34.1146V34.7575H121.178V19.842H118.34V23.9316C117.644 23.484 116.802 23.2601 115.813 23.2601C114.743 23.2601 113.81 23.5156 113.016 24.0266C112.222 24.5376 111.604 25.2385 111.162 26.1293C110.727 27.0132 110.51 28.0248 110.51 29.1642C110.51 30.2828 110.724 31.2876 111.152 32.1783C111.587 33.0691 112.191 33.7735 112.964 34.2914ZM118.692 29.1642C118.692 29.8409 118.61 30.4348 118.444 30.9457C118.278 31.4567 118.005 31.8538 117.626 32.1369C117.253 32.42 116.752 32.5616 116.124 32.5616C115.516 32.5616 115.019 32.4097 114.632 32.1058C114.245 31.802 113.959 31.3946 113.772 30.8836C113.586 30.3657 113.493 29.7926 113.493 29.1642C113.493 28.5427 113.589 27.9765 113.783 27.4655C113.976 26.9476 114.273 26.5367 114.674 26.2329C115.081 25.9221 115.599 25.7668 116.227 25.7668C116.814 25.7668 117.287 25.9083 117.646 26.1914C118.012 26.4746 118.278 26.8716 118.444 27.3826C118.61 27.8936 118.692 28.4875 118.692 29.1642ZM128.035 40.04C127.4 40.04 126.796 39.9365 126.223 39.7293C125.65 39.529 125.135 39.2459 124.679 38.8799C124.23 38.5209 123.864 38.0996 123.581 37.6163L126.192 36.3526C126.371 36.6841 126.627 36.9361 126.958 37.1087C127.296 37.2814 127.662 37.3677 128.056 37.3677C128.477 37.3677 128.874 37.2952 129.247 37.1502C129.62 37.0121 129.917 36.8014 130.138 36.5183C130.366 36.2421 130.473 35.8968 130.459 35.4825V34.3676C129.733 34.8347 128.843 35.0682 127.787 35.0682C126.758 35.0682 125.857 34.8093 125.083 34.2914C124.31 33.7735 123.706 33.0691 123.271 32.1783C122.842 31.2876 122.628 30.2828 122.628 29.1642C122.628 28.0248 122.846 27.0132 123.281 26.1293C123.723 25.2385 124.341 24.5376 125.135 24.0266C125.929 23.5156 126.861 23.2601 127.932 23.2601C128.995 23.2601 129.889 23.5191 130.614 24.037C130.682 24.0849 130.747 24.1345 130.811 24.1856V23.5709H133.276V35.524C133.276 35.8002 133.263 36.0591 133.235 36.3008C133.214 36.5494 133.173 36.7945 133.111 37.0362C132.931 37.7198 132.596 38.2826 132.106 38.7246C131.623 39.1665 131.029 39.4945 130.324 39.7086C129.62 39.9295 128.857 40.04 128.035 40.04ZM130.563 30.9457C130.728 30.4348 130.811 29.8409 130.811 29.1642C130.811 28.4875 130.728 27.8936 130.563 27.3826C130.397 26.8716 130.131 26.4746 129.765 26.1914C129.406 25.9083 128.933 25.7668 128.346 25.7668C127.718 25.7668 127.2 25.9221 126.792 26.2329C126.392 26.5367 126.095 26.9476 125.902 27.4655C125.708 27.9765 125.612 28.5427 125.612 29.1642C125.612 29.7926 125.705 30.3657 125.891 30.8836C126.078 31.3946 126.364 31.802 126.751 32.1058C127.138 32.4097 127.635 32.5616 128.242 32.5616C128.871 32.5616 129.371 32.42 129.744 32.1369C130.124 31.8538 130.397 31.4567 130.563 30.9457ZM137.513 34.3328C138.39 34.8231 139.402 35.0682 140.548 35.0682C141.625 35.0682 142.616 34.7851 143.521 34.2189C144.432 33.6526 145.099 32.8585 145.52 31.8365L142.703 31.0286C142.495 31.4844 142.195 31.8331 141.801 32.0748C141.408 32.3164 140.935 32.4373 140.382 32.4373C139.505 32.4373 138.839 32.1542 138.383 31.5879C138.055 31.1683 137.846 30.6228 137.758 29.9514H142.827H144.256H145.613C145.731 28.5979 145.593 27.4206 145.199 26.4193C144.805 25.418 144.198 24.6412 143.376 24.0888C142.554 23.5364 141.556 23.2601 140.382 23.2601C139.278 23.2601 138.301 23.5122 137.451 24.0163C136.602 24.5135 135.935 25.2143 135.452 26.1189C134.969 27.0235 134.727 28.0869 134.727 29.3092C134.727 30.4278 134.972 31.4222 135.462 32.2923C135.96 33.1554 136.643 33.8356 137.513 34.3328ZM142.763 27.8591C142.68 27.254 142.519 26.7879 142.278 26.4607C141.919 25.9567 141.328 25.7046 140.507 25.7046C139.547 25.7046 138.839 25.9981 138.383 26.585C138.126 26.9177 137.942 27.3424 137.833 27.8591H142.763Z" fill="#1D1F1E"/>
</svg>
