<svg width="14" height="14" viewBox="0 0 14 14" fill="none" xmlns="http://www.w3.org/2000/svg">
<path d="M11.6673 7.00008C11.6673 6.35667 11.1441 5.83342 10.5007 5.83342H9.91732V4.08342C9.91732 2.47516 8.6089 1.16675 7.00065 1.16675C5.3924 1.16675 4.08398 2.47516 4.08398 4.08342V5.83342H3.50065C2.85723 5.83342 2.33398 6.35667 2.33398 7.00008V11.6667C2.33398 12.3102 2.85723 12.8334 3.50065 12.8334H10.5007C11.1441 12.8334 11.6673 12.3102 11.6673 11.6667V7.00008ZM5.25065 4.08342C5.25065 3.11858 6.03582 2.33341 7.00065 2.33341C7.96548 2.33341 8.75065 3.11858 8.75065 4.08342V5.83342H5.25065V4.08342Z" fill="#1D1F1E"/>
</svg>
