<svg width="178" height="42" viewBox="0 0 178 42" fill="none" xmlns="http://www.w3.org/2000/svg">
<rect width="178" height="42" fill="#1D1F1E"/>
<path d="M47.73 32H60.36V29.3H50.61V10.76H47.73V32ZM72.4366 32.54C78.9166 32.54 83.5066 27.68 83.5066 21.38C83.5066 15.08 78.9166 10.22 72.4366 10.22C65.9566 10.22 61.3666 15.08 61.3666 21.38C61.3666 27.68 65.9566 32.54 72.4366 32.54ZM72.4366 29.84C67.5766 29.84 64.4266 26.03 64.4266 21.38C64.4266 16.73 67.5766 12.92 72.4366 12.92C77.2966 12.92 80.4466 16.73 80.4466 21.38C80.4466 26.03 77.2966 29.84 72.4366 29.84ZM97.5476 20.12V22.82H102.258V28.73C100.968 29.45 99.0476 29.84 97.0376 29.84C92.3576 29.84 88.7876 26.18 88.7876 21.38C88.7876 16.73 91.9376 12.92 96.7976 12.92C98.9276 12.92 100.938 13.49 102.678 15.17L104.718 12.98C103.068 11.27 100.698 10.22 96.7976 10.22C90.3176 10.22 85.7276 15.08 85.7276 21.38C85.7276 27.41 89.8976 32.54 97.0976 32.54C99.6776 32.54 103.068 31.85 105.138 30.59V20.12H97.5476ZM119.547 32.54C126.027 32.54 130.617 27.68 130.617 21.38C130.617 15.08 126.027 10.22 119.547 10.22C113.067 10.22 108.477 15.08 108.477 21.38C108.477 27.68 113.067 32.54 119.547 32.54ZM119.547 29.84C114.687 29.84 111.537 26.03 111.537 21.38C111.537 16.73 114.687 12.92 119.547 12.92C124.407 12.92 127.557 16.73 127.557 21.38C127.557 26.03 124.407 29.84 119.547 29.84Z" fill="white"/>
</svg>
