<svg width="448" height="471" viewBox="0 0 448 471" fill="none" xmlns="http://www.w3.org/2000/svg">
<rect width="448" height="471" fill="#C4C4C4"/>
<path d="M304.438 166.938H143.562C140.14 166.938 137.375 169.703 137.375 173.125V296.875C137.375 300.297 140.14 303.062 143.562 303.062H304.438C307.86 303.062 310.625 300.297 310.625 296.875V173.125C310.625 169.703 307.86 166.938 304.438 166.938ZM296.703 289.141H151.297V281.426L178.077 249.657L207.1 284.075L252.25 230.553L296.703 283.262V289.141ZM296.703 264.043L253.429 212.725C252.811 211.99 251.689 211.99 251.07 212.725L207.1 264.855L179.257 231.848C178.638 231.113 177.516 231.113 176.898 231.848L151.297 262.206V180.859H296.703V264.043ZM183.781 224.172C186.016 224.172 188.228 223.732 190.293 222.877C192.357 222.022 194.233 220.768 195.813 219.188C197.393 217.608 198.647 215.732 199.502 213.668C200.357 211.603 200.797 209.391 200.797 207.156C200.797 204.922 200.357 202.709 199.502 200.645C198.647 198.58 197.393 196.704 195.813 195.124C194.233 193.544 192.357 192.291 190.293 191.436C188.228 190.581 186.016 190.141 183.781 190.141C179.268 190.141 174.94 191.933 171.749 195.124C168.558 198.315 166.766 202.643 166.766 207.156C166.766 211.669 168.558 215.997 171.749 219.188C174.94 222.379 179.268 224.172 183.781 224.172ZM183.781 201.742C186.778 201.742 189.195 204.159 189.195 207.156C189.195 210.153 186.778 212.57 183.781 212.57C180.784 212.57 178.367 210.153 178.367 207.156C178.367 204.159 180.784 201.742 183.781 201.742Z" fill="white"/>
</svg>
