<svg width="57" height="21" viewBox="0 0 57 21" fill="none" xmlns="http://www.w3.org/2000/svg">
<g clip-path="url(#clip0)">
<path d="M27.0258 10.2104V16.3414H24.9258V1.20694H30.4953C31.8388 1.1828 33.1301 1.65349 34.1084 2.52246C35.0866 3.33108 35.6345 4.50177 35.6084 5.70866C35.6345 6.92763 35.0866 8.09832 34.1084 8.91901C33.1301 9.7759 31.9301 10.2104 30.5084 10.2104H27.0258ZM27.0258 3.06556V8.35177H30.5475C31.3301 8.3759 32.0866 8.08625 32.6214 7.56728C33.7301 6.57763 33.7432 4.94832 32.6736 3.92246L32.6214 3.87418C32.0866 3.34315 31.3301 3.05349 30.5475 3.07763L27.0258 3.06556ZM40.4475 5.64832C41.9997 5.64832 43.2258 6.03452 44.1258 6.79487C45.0258 7.56728 45.4693 8.61728 45.4693 9.95694V16.3294H43.4606V14.8931H43.3693C42.4953 16.0759 41.3475 16.6673 39.8997 16.6673C38.6736 16.6673 37.6301 16.3294 36.8084 15.6535C35.9997 15.0259 35.5432 14.0966 35.5693 13.119C35.5693 12.0449 36.0127 11.2 36.8866 10.5604C37.7606 9.92073 38.9345 9.60694 40.3953 9.60694C41.6475 9.60694 42.6649 9.82418 43.4736 10.2345V9.78797C43.4736 9.12418 43.1606 8.49659 42.6127 8.07418C42.0519 7.61556 41.3345 7.36211 40.591 7.36211C39.4171 7.36211 38.491 7.82073 37.7997 8.73797L35.9475 7.66384C36.9519 6.32418 38.4519 5.64832 40.4475 5.64832ZM37.7345 13.1673C37.7345 13.6742 37.9953 14.1449 38.4258 14.4345C38.8953 14.7725 39.4693 14.9535 40.0562 14.9414C40.9432 14.9414 41.791 14.6156 42.4171 14.0363C43.1084 13.4328 43.4606 12.7207 43.4606 11.9C42.8084 11.4173 41.8953 11.1759 40.7214 11.1759C39.8736 11.1759 39.1562 11.369 38.5823 11.7431C38.0214 12.1294 37.7345 12.6 37.7345 13.1673ZM56.9997 5.98625L49.9823 20.9035H47.8171L50.4258 15.6897L45.8084 5.99832H48.091L51.4171 13.4328H51.4693L54.7171 5.99832L56.9997 5.98625Z" fill="#1D1F1E"/>
<path d="M18.5345 8.88267C18.5345 8.29129 18.4824 7.69992 18.378 7.12061H9.52148V10.4637H14.5954C14.3867 11.5378 13.7084 12.5034 12.7171 13.1068V15.2792H15.7432C17.5171 13.7706 18.5345 11.5378 18.5345 8.88267Z" fill="#4285F4"/>
<path d="M9.52172 17.3794C12.0522 17.3794 14.1913 16.6069 15.7435 15.2794L12.7174 13.1069C11.8695 13.638 10.7869 13.9397 9.52172 13.9397C7.06955 13.9397 4.99563 12.4069 4.25216 10.3552H1.13477V12.6001C2.72607 15.5207 5.9739 17.3794 9.52172 17.3794Z" fill="#34A853"/>
<path d="M4.25194 10.3553C3.86064 9.28116 3.86064 8.11047 4.25194 7.02426V4.7915H1.13455C0.47216 5.99957 0.126953 7.33513 0.126953 8.68978C0.126953 10.0444 0.47216 11.38 1.13455 12.5881L4.25194 10.3553Z" fill="#FBBC04"/>
<path d="M9.52172 3.43969C10.8652 3.41555 12.1565 3.88624 13.1217 4.74314L15.7956 2.269C14.1 0.78452 11.8565 -0.024101 9.52172 3.69351e-05C5.9739 3.69351e-05 2.72607 1.85866 1.13477 4.79142L4.25216 7.03624C4.99563 4.97245 7.06955 3.43969 9.52172 3.43969Z" fill="#EA4335"/>
</g>
<defs>
<clipPath id="clip0">
<rect width="57" height="21" fill="white"/>
</clipPath>
</defs>
</svg>
