<svg width="51" height="21" viewBox="0 0 51 21" fill="none" xmlns="http://www.w3.org/2000/svg">
<g clip-path="url(#clip0)">
<path d="M9.32541 2.70742C8.72775 3.41675 7.7715 3.97621 6.81525 3.89629C6.69572 2.9372 7.16388 1.91817 7.71174 1.28877C8.30939 0.559467 9.35529 0.0399619 10.202 0C10.3016 0.999049 9.9131 1.97812 9.32541 2.70742ZM10.192 4.08611C8.80744 4.00619 7.62209 4.87536 6.96467 4.87536C6.29728 4.87536 5.29123 4.12607 4.19552 4.14605C2.77111 4.16603 1.44631 4.97526 0.719158 6.26403C-0.774983 8.84158 0.330681 12.6579 1.77502 14.7559C2.48224 15.795 3.32892 16.9339 4.44455 16.8939C5.50041 16.854 5.91877 16.2046 7.19377 16.2046C8.47873 16.2046 8.84728 16.8939 9.96291 16.8739C11.1184 16.8539 11.8455 15.8349 12.5528 14.7959C13.3596 13.617 13.6883 12.4681 13.7082 12.4082C13.6883 12.3882 11.477 11.539 11.457 8.98145C11.4371 6.84348 13.2002 5.82445 13.2799 5.76451C12.2838 4.28592 10.7299 4.12607 10.192 4.08611ZM18.1906 1.18887V16.764H20.6012V11.4391H23.9381C26.9862 11.4391 29.1278 9.3411 29.1278 6.304C29.1278 3.26689 27.026 1.18887 24.0178 1.18887H18.1906ZM20.6012 3.22693H23.3803C25.4721 3.22693 26.6674 4.34586 26.6674 6.31399C26.6674 8.28211 25.4721 9.41104 23.3703 9.41104H20.6012V3.22693ZM33.5305 16.8839C35.0446 16.8839 36.449 16.1147 37.0865 14.8958H37.1363V16.764H39.3676V9.01142C39.3676 6.76356 37.5746 5.31494 34.8154 5.31494C32.2555 5.31494 30.3629 6.78354 30.2932 8.80162H32.4647C32.644 7.84253 33.5305 7.21313 34.7457 7.21313C36.2199 7.21313 37.0467 7.90247 37.0467 9.17127V10.0304L34.0385 10.2103C31.2395 10.3801 29.7254 11.529 29.7254 13.5271C29.7254 15.5452 31.2893 16.8839 33.5305 16.8839ZM34.1779 15.0357C32.893 15.0357 32.0762 14.4163 32.0762 13.4672C32.0762 12.4881 32.8631 11.9186 34.3672 11.8287L37.0467 11.6589V12.5381C37.0467 13.9967 35.8115 15.0357 34.1779 15.0357ZM42.3459 21C44.6967 21 45.8024 20.1009 46.7686 17.3735L51.002 5.4648H48.5516L45.7127 14.666H45.6629L42.824 5.4648H40.3039L44.3879 16.804L44.1688 17.4933C43.8002 18.6622 43.2026 19.1118 42.1367 19.1118C41.9475 19.1118 41.5789 19.0918 41.4295 19.0718V20.9401C41.569 20.98 42.1666 21 42.3459 21Z" fill="black"/>
</g>
<defs>
<clipPath id="clip0">
<rect width="51" height="21" fill="white"/>
</clipPath>
</defs>
</svg>
