<svg width="79" height="21" viewBox="0 0 79 21" fill="none" xmlns="http://www.w3.org/2000/svg">
<path d="M29.4407 4.29492H25.0835C24.9393 4.29483 24.7998 4.3462 24.6901 4.43977C24.5804 4.53334 24.5078 4.66297 24.4853 4.80529L22.7231 15.9652C22.715 16.017 22.7182 16.0699 22.7326 16.1203C22.7469 16.1707 22.772 16.2175 22.8062 16.2573C22.8403 16.2971 22.8827 16.329 22.9304 16.3508C22.9781 16.3727 23.03 16.384 23.0824 16.3839H25.1625C25.3069 16.384 25.4465 16.3325 25.5562 16.2388C25.6659 16.1451 25.7384 16.0154 25.7608 15.8729L26.2361 12.8629C26.2584 12.7206 26.3308 12.5909 26.4404 12.4972C26.55 12.4035 26.6894 12.352 26.8337 12.3519H28.213C31.0831 12.3519 32.7395 10.9646 33.1721 8.21556C33.3671 7.01283 33.1804 6.06783 32.6166 5.40601C31.9973 4.67929 30.899 4.29492 29.4407 4.29492ZM29.9433 8.37083C29.705 9.93247 28.5105 9.93247 27.3554 9.93247H26.698L27.1592 7.01601C27.1727 6.93069 27.2163 6.85298 27.282 6.79687C27.3478 6.74075 27.4314 6.70992 27.5179 6.70992H27.8192C28.6061 6.70992 29.3483 6.70992 29.7318 7.15792C29.9605 7.42519 30.0306 7.82229 29.9433 8.37083ZM42.4648 8.32056H40.3783C40.2919 8.32056 40.2082 8.35139 40.1425 8.4075C40.0767 8.46362 40.0332 8.54132 40.0196 8.62665L39.9273 9.20956L39.7814 8.99829C39.3297 8.34347 38.3224 8.12456 37.3171 8.12456C35.0114 8.12456 33.0422 9.86883 32.6586 12.3156C32.4592 13.5362 32.7427 14.7033 33.4359 15.5172C34.0717 16.2656 34.9815 16.5774 36.0639 16.5774C37.9217 16.5774 38.9519 15.3842 38.9519 15.3842L38.8589 15.9633C38.8506 16.0151 38.8536 16.068 38.8678 16.1185C38.882 16.169 38.9069 16.2158 38.941 16.2557C38.975 16.2956 39.0173 16.3277 39.0649 16.3497C39.1126 16.3718 39.1644 16.3832 39.2169 16.3833H41.0963C41.2407 16.3834 41.3803 16.3319 41.49 16.2382C41.5997 16.1445 41.6722 16.0147 41.6946 15.8723L42.8222 8.73929C42.8305 8.68763 42.8275 8.63478 42.8134 8.58441C42.7992 8.53403 42.7743 8.48732 42.7403 8.4475C42.7063 8.40769 42.6641 8.37572 42.6165 8.3538C42.569 8.33188 42.5172 8.32054 42.4648 8.32056ZM39.5565 12.3767C39.3552 13.5674 38.4091 14.3667 37.2024 14.3667C36.5965 14.3667 36.1123 14.1726 35.8014 13.8047C35.4931 13.4395 35.3758 12.9196 35.474 12.3405C35.6619 11.16 36.6239 10.3346 37.8121 10.3346C38.4046 10.3346 38.8863 10.5313 39.2035 10.9023C39.5214 11.2771 39.6476 11.8002 39.5565 12.3767ZM53.5771 8.32056H51.4804C51.3815 8.32071 51.2842 8.34497 51.1968 8.39121C51.1094 8.43745 51.0346 8.50429 50.979 8.58592L48.0872 12.8406L46.8614 8.75201C46.8238 8.62731 46.747 8.51802 46.6423 8.44032C46.5377 8.36261 46.4108 8.32062 46.2804 8.32056H44.22C44.1622 8.3204 44.1052 8.33405 44.0537 8.36036C44.0022 8.38667 43.9577 8.42489 43.924 8.47183C43.8903 8.51876 43.8683 8.57306 43.8598 8.63021C43.8514 8.68736 43.8567 8.7457 43.8754 8.80038L46.1848 15.57L44.0136 18.6316C43.975 18.6858 43.9521 18.7497 43.9475 18.8161C43.9428 18.8825 43.9565 18.9489 43.9871 19.0081C44.0177 19.0672 44.064 19.1168 44.1209 19.1514C44.1778 19.186 44.2432 19.2043 44.3099 19.2043H46.404C46.5018 19.2044 46.5981 19.1809 46.6848 19.1356C46.7714 19.0904 46.8458 19.0249 46.9016 18.9447L53.8752 8.8901C53.913 8.83571 53.9352 8.77201 53.9393 8.70593C53.9435 8.63984 53.9294 8.57388 53.8987 8.51521C53.868 8.45653 53.8218 8.40737 53.7651 8.37306C53.7084 8.33875 53.6434 8.32059 53.5771 8.32056Z" fill="#253B80"/>
<path d="M60.5189 4.29483H56.1611C56.017 4.29489 55.8776 4.34632 55.7681 4.43988C55.6585 4.53344 55.586 4.66298 55.5635 4.80519L53.8013 15.9651C53.7931 16.0168 53.7963 16.0696 53.8105 16.12C53.8247 16.1704 53.8497 16.2171 53.8837 16.2569C53.9178 16.2967 53.96 16.3287 54.0076 16.3506C54.0552 16.3725 54.107 16.3838 54.1594 16.3838H56.3956C56.4965 16.3837 56.594 16.3476 56.6706 16.282C56.7472 16.2165 56.7979 16.1257 56.8135 16.0262L57.3137 12.8628C57.336 12.7205 57.4084 12.5908 57.518 12.4971C57.6276 12.4034 57.767 12.3519 57.9113 12.3518H59.2899C62.1607 12.3518 63.8165 10.9646 64.2497 8.21546C64.4453 7.01273 64.2574 6.06773 63.6935 5.40592C63.0749 4.67919 61.9772 4.29483 60.5189 4.29483ZM61.0216 8.37073C60.7839 9.93237 59.5894 9.93237 58.4337 9.93237H57.7768L58.2387 7.01592C58.252 6.93059 58.2953 6.85282 58.361 6.79667C58.4267 6.74053 58.5103 6.70972 58.5968 6.70983H58.8981C59.6843 6.70983 60.4271 6.70983 60.8107 7.15783C61.0394 7.4251 61.1088 7.82219 61.0216 8.37073ZM73.5424 8.32046H71.4572C71.3707 8.32022 71.287 8.35098 71.2213 8.40715C71.1556 8.46332 71.1123 8.54117 71.0992 8.62655L71.0068 9.20946L70.8602 8.99819C70.4085 8.34337 69.4019 8.12446 68.3966 8.12446C66.0909 8.12446 64.1223 9.86873 63.7388 12.3156C63.54 13.5361 63.8222 14.7032 64.5154 15.5171C65.1525 16.2655 66.061 16.5773 67.1434 16.5773C69.0012 16.5773 70.0314 15.3841 70.0314 15.3841L69.9384 15.9632C69.9301 16.0151 69.9331 16.0681 69.9474 16.1187C69.9616 16.1693 69.9867 16.2162 70.0209 16.2561C70.055 16.2961 70.0975 16.3281 70.1453 16.35C70.1931 16.372 70.2451 16.3833 70.2977 16.3832H72.1765C72.3207 16.3831 72.4602 16.3316 72.5697 16.2379C72.6793 16.1442 72.7518 16.0145 72.7741 15.8722L73.9024 8.73919C73.9104 8.68737 73.9071 8.63443 73.8926 8.58401C73.8782 8.53359 73.853 8.48689 73.8188 8.44711C73.7846 8.40733 73.7422 8.37541 73.6945 8.35355C73.6468 8.33169 73.5949 8.3204 73.5424 8.32046ZM70.6341 12.3766C70.434 13.5673 69.4867 14.3666 68.28 14.3666C67.6754 14.3666 67.1899 14.1725 66.879 13.8046C66.5707 13.4394 66.4547 12.9195 66.5516 12.3404C66.7408 11.1599 67.7015 10.3346 68.8897 10.3346C69.4822 10.3346 69.9638 10.5312 70.2811 10.9022C70.6003 11.277 70.7265 11.8001 70.6341 12.3766ZM76.0022 4.60092L74.2139 15.9651C74.2057 16.0168 74.2088 16.0696 74.2231 16.12C74.2373 16.1704 74.2623 16.2171 74.2963 16.2569C74.3303 16.2967 74.3726 16.3287 74.4202 16.3506C74.4678 16.3725 74.5196 16.3838 74.572 16.3838H76.3699C76.6687 16.3838 76.9222 16.1675 76.9681 15.8728L78.7316 4.71355C78.7398 4.66183 78.7366 4.60894 78.7224 4.55853C78.7082 4.50813 78.6832 4.46139 78.6492 4.42155C78.6152 4.3817 78.5729 4.34968 78.5253 4.3277C78.4777 4.30571 78.426 4.29428 78.3735 4.29419H76.3603C76.2739 4.2945 76.1904 4.32553 76.1248 4.38173C76.0591 4.43794 76.0157 4.51564 76.0022 4.60092Z" fill="#179BD7"/>
<path d="M4.62897 18.5525L4.96217 16.4385L4.21995 16.4213H0.675781L3.1388 0.82216C3.14613 0.774497 3.17037 0.731053 3.20709 0.699748C3.24381 0.668442 3.29057 0.65136 3.33885 0.651614H9.31482C11.2987 0.651614 12.6679 1.06398 13.3827 1.87789C13.7178 2.2597 13.9312 2.6587 14.0344 3.0978C14.1427 3.55852 14.1446 4.10898 14.0389 4.78034L14.0312 4.82934V5.25952L14.3664 5.44916C14.6222 5.57862 14.8521 5.75375 15.0449 5.96589C15.3316 6.29234 15.517 6.70725 15.5953 7.19916C15.6762 7.70507 15.6495 8.30707 15.517 8.98861C15.364 9.77261 15.1169 10.4554 14.783 11.0142C14.4885 11.5147 14.0924 11.9482 13.6203 12.2869C13.1769 12.6012 12.65 12.8399 12.0543 12.9926C11.4771 13.1428 10.819 13.2185 10.0972 13.2185H9.63209C9.29953 13.2185 8.97652 13.3382 8.72295 13.5526C8.46975 13.7694 8.30178 14.0688 8.24895 14.3977L8.21391 14.588L7.62523 18.3139L7.59848 18.4507C7.59147 18.494 7.57936 18.5156 7.56152 18.5302C7.54424 18.5444 7.52268 18.5522 7.50036 18.5525H4.62897Z" fill="#253B80"/>
<path d="M14.6846 4.87891C14.6667 4.99282 14.6464 5.10927 14.6234 5.22891C13.8353 9.27045 11.1391 10.6666 7.69563 10.6666H5.94234C5.52122 10.6666 5.16636 10.9721 5.10074 11.387L4.20307 17.0735L3.94887 18.6855C3.93874 18.7494 3.94261 18.8148 3.9602 18.8771C3.97779 18.9394 4.00869 18.9971 4.05078 19.0464C4.09286 19.0956 4.14512 19.1351 4.20397 19.1622C4.26281 19.1894 4.32684 19.2034 4.39165 19.2035H7.50132C7.86956 19.2035 8.18238 18.9362 8.24035 18.5735L8.27093 18.4156L8.85642 14.7044L8.89401 14.5007C8.95135 14.1367 9.2648 13.8695 9.63305 13.8695H10.0981C13.111 13.8695 15.4695 12.6476 16.1588 9.112C16.4468 7.635 16.2977 6.40172 15.5357 5.53436C15.2942 5.26605 15.0058 5.04393 14.6846 4.87891Z" fill="#179BD7"/>
<path d="M13.8591 4.55059C13.6074 4.47788 13.3514 4.42113 13.0926 4.38069C12.5812 4.30218 12.0644 4.26452 11.547 4.26805H6.86309C6.68484 4.26791 6.51241 4.33148 6.37699 4.44725C6.24156 4.56303 6.15208 4.72338 6.1247 4.89932L5.12828 11.2031L5.09961 11.387C5.13065 11.1864 5.23257 11.0034 5.38694 10.8713C5.54131 10.7392 5.73792 10.6666 5.94121 10.6667H7.6945C11.138 10.6667 13.8342 9.26987 14.6223 5.22896C14.6459 5.10932 14.6656 4.99287 14.6835 4.87896C14.4755 4.77003 14.2588 4.67871 14.0355 4.60596C13.977 4.58656 13.9182 4.5681 13.8591 4.55059Z" fill="#222D65"/>
<path d="M6.12499 4.89936C6.15213 4.72338 6.24158 4.56295 6.37707 4.44723C6.51256 4.33151 6.68512 4.26817 6.86339 4.26873H11.5473C12.1022 4.26873 12.6202 4.305 13.0929 4.38136C13.4128 4.43158 13.7283 4.50669 14.0365 4.606C14.269 4.683 14.485 4.774 14.6844 4.879C14.9188 3.38545 14.6825 2.36855 13.874 1.44773C12.9827 0.434 11.374 0 9.31557 0H3.3396C2.91912 0 2.56043 0.305455 2.49545 0.721L0.00631344 16.4805C-0.00528054 16.5537 -0.000869424 16.6285 0.0192434 16.6998C0.0393561 16.7711 0.0746933 16.8372 0.122824 16.8936C0.170955 16.95 0.230737 16.9952 0.298058 17.0263C0.365379 17.0574 0.438641 17.0735 0.512805 17.0736H4.20223L5.12857 11.2032L6.12499 4.89936Z" fill="#253B80"/>
</svg>
