<svg width="9" height="14" viewBox="0 0 9 14" fill="none" xmlns="http://www.w3.org/2000/svg">
<path d="M8.02703 0H0.972973C0.436318 0 0 0.448438 0 1V13C0 13.5516 0.436318 14 0.972973 14H8.02703C8.56368 14 9 13.5516 9 13V1C9 0.448438 8.56368 0 8.02703 0ZM7.90541 12.875H1.09459V1.125H7.90541V12.875ZM3.89189 11.2812C3.89189 11.447 3.95596 11.606 4.07 11.7232C4.18405 11.8404 4.33872 11.9062 4.5 11.9062C4.66128 11.9062 4.81596 11.8404 4.93 11.7232C5.04404 11.606 5.10811 11.447 5.10811 11.2812C5.10811 11.1155 5.04404 10.9565 4.93 10.8393C4.81596 10.7221 4.66128 10.6562 4.5 10.6562C4.33872 10.6562 4.18405 10.7221 4.07 10.8393C3.95596 10.9565 3.89189 11.1155 3.89189 11.2812Z" fill="white"/>
</svg>
