<svg width="51" height="21" viewBox="0 0 51 21" fill="none" xmlns="http://www.w3.org/2000/svg">
<g clip-path="url(#clip0)">
<path d="M9.32443 2.70742C8.72678 3.41675 7.77053 3.97621 6.81428 3.89629C6.69474 2.9372 7.16291 1.91817 7.71076 1.28877C8.30842 0.559467 9.35431 0.0399619 10.201 0C10.3006 0.999049 9.91213 1.97812 9.32443 2.70742ZM10.191 4.08611C8.80646 4.00619 7.62111 4.87536 6.96369 4.87536C6.29631 4.87536 5.29025 4.12607 4.19455 4.14605C2.77013 4.16603 1.44533 4.97526 0.718181 6.26403C-0.77596 8.84158 0.329704 12.6579 1.77404 14.7559C2.48127 15.795 3.32795 16.9339 4.44357 16.8939C5.49943 16.854 5.91779 16.2046 7.19279 16.2046C8.47775 16.2046 8.84631 16.8939 9.96193 16.8739C11.1174 16.8539 11.8445 15.8349 12.5518 14.7959C13.3586 13.617 13.6873 12.4681 13.7072 12.4082C13.6873 12.3882 11.476 11.539 11.4561 8.98145C11.4362 6.84348 13.1992 5.82445 13.2789 5.76451C12.2828 4.28592 10.7289 4.12607 10.191 4.08611ZM18.1897 1.18887V16.764H20.6002V11.4391H23.9371C26.9852 11.4391 29.1268 9.3411 29.1268 6.304C29.1268 3.26689 27.025 1.18887 24.0168 1.18887H18.1897ZM20.6002 3.22693H23.3793C25.4711 3.22693 26.6664 4.34586 26.6664 6.31399C26.6664 8.28211 25.4711 9.41104 23.3694 9.41104H20.6002V3.22693ZM33.5295 16.8839C35.0436 16.8839 36.4481 16.1147 37.0856 14.8958H37.1354V16.764H39.3666V9.01142C39.3666 6.76356 37.5737 5.31494 34.8145 5.31494C32.2545 5.31494 30.3619 6.78354 30.2922 8.80162H32.4637C32.643 7.84253 33.5295 7.21313 34.7447 7.21313C36.219 7.21313 37.0457 7.90247 37.0457 9.17127V10.0304L34.0375 10.2103C31.2385 10.3801 29.7244 11.529 29.7244 13.5271C29.7244 15.5452 31.2883 16.8839 33.5295 16.8839ZM34.177 15.0357C32.892 15.0357 32.0752 14.4163 32.0752 13.4672C32.0752 12.4881 32.8621 11.9186 34.3662 11.8287L37.0457 11.6589V12.5381C37.0457 13.9967 35.8106 15.0357 34.177 15.0357ZM42.3449 21C44.6957 21 45.8014 20.1009 46.7676 17.3735L51.001 5.4648H48.5506L45.7117 14.666H45.6619L42.8231 5.4648H40.303L44.3869 16.804L44.1678 17.4933C43.7992 18.6622 43.2016 19.1118 42.1358 19.1118C41.9465 19.1118 41.5779 19.0918 41.4285 19.0718V20.9401C41.568 20.98 42.1656 21 42.3449 21Z" fill="white"/>
</g>
<defs>
<clipPath id="clip0">
<rect width="51" height="21" fill="white"/>
</clipPath>
</defs>
</svg>
