<svg width="57" height="21" viewBox="0 0 57 21" fill="none" xmlns="http://www.w3.org/2000/svg">
<g clip-path="url(#clip0)">
<path d="M27.0268 10.2104V16.3414H24.9268V1.20694H30.4963C31.8398 1.1828 33.1311 1.65349 34.1094 2.52246C35.0876 3.33108 35.6355 4.50177 35.6094 5.70866C35.6355 6.92763 35.0876 8.09832 34.1094 8.91901C33.1311 9.7759 31.9311 10.2104 30.5094 10.2104H27.0268ZM27.0268 3.06556V8.35177H30.5485C31.3311 8.3759 32.0876 8.08625 32.6224 7.56728C33.7311 6.57763 33.7441 4.94832 32.6746 3.92246L32.6224 3.87418C32.0876 3.34315 31.3311 3.05349 30.5485 3.07763L27.0268 3.06556ZM40.4485 5.64832C42.0007 5.64832 43.2268 6.03452 44.1268 6.79487C45.0268 7.56728 45.4702 8.61728 45.4702 9.95694V16.3294H43.4615V14.8931H43.3702C42.4963 16.0759 41.3485 16.6673 39.9007 16.6673C38.6746 16.6673 37.6311 16.3294 36.8094 15.6535C36.0007 15.0259 35.5441 14.0966 35.5702 13.119C35.5702 12.0449 36.0137 11.2 36.8876 10.5604C37.7615 9.92073 38.9355 9.60694 40.3963 9.60694C41.6485 9.60694 42.6659 9.82418 43.4746 10.2345V9.78797C43.4746 9.12418 43.1615 8.49659 42.6137 8.07418C42.0528 7.61556 41.3355 7.36211 40.592 7.36211C39.4181 7.36211 38.492 7.82073 37.8007 8.73797L35.9485 7.66384C36.9528 6.32418 38.4528 5.64832 40.4485 5.64832ZM37.7354 13.1673C37.7354 13.6742 37.9963 14.1449 38.4268 14.4345C38.8963 14.7725 39.4702 14.9535 40.0572 14.9414C40.9441 14.9414 41.792 14.6156 42.4181 14.0363C43.1094 13.4328 43.4615 12.7207 43.4615 11.9C42.8094 11.4173 41.8963 11.1759 40.7224 11.1759C39.8746 11.1759 39.1572 11.369 38.5833 11.7431C38.0224 12.1294 37.7354 12.6 37.7354 13.1673ZM57.0007 5.98625L49.9833 20.9035H47.8181L50.4268 15.6897L45.8094 5.99832H48.092L51.4181 13.4328H51.4702L54.7181 5.99832L57.0007 5.98625Z" fill="white"/>
<path d="M18.5355 8.88267C18.5355 8.29129 18.4833 7.69992 18.379 7.12061H9.52246V10.4637H14.5964C14.3877 11.5378 13.7094 12.5034 12.7181 13.1068V15.2792H15.7442C17.5181 13.7706 18.5355 11.5378 18.5355 8.88267Z" fill="#4285F4"/>
<path d="M9.5227 17.3794C12.0531 17.3794 14.1923 16.6069 15.7444 15.2794L12.7183 13.1069C11.8705 13.638 10.7879 13.9397 9.5227 13.9397C7.07052 13.9397 4.99661 12.4069 4.25313 10.3552H1.13574V12.6001C2.72705 15.5207 5.97487 17.3794 9.5227 17.3794Z" fill="#34A853"/>
<path d="M4.25292 10.3553C3.86162 9.28116 3.86162 8.11047 4.25292 7.02426V4.7915H1.13553C0.473136 5.99957 0.12793 7.33513 0.12793 8.68978C0.12793 10.0444 0.473136 11.38 1.13553 12.5881L4.25292 10.3553Z" fill="#FBBC04"/>
<path d="M9.5227 3.43969C10.8662 3.41555 12.1575 3.88624 13.1227 4.74314L15.7966 2.269C14.101 0.78452 11.8575 -0.024101 9.5227 3.69351e-05C5.97487 3.69351e-05 2.72705 1.85866 1.13574 4.79142L4.25313 7.03624C4.99661 4.97245 7.07052 3.43969 9.5227 3.43969Z" fill="#EA4335"/>
</g>
<defs>
<clipPath id="clip0">
<rect width="57" height="21" fill="white"/>
</clipPath>
</defs>
</svg>
