<svg width="135" height="135" viewBox="0 0 135 135" fill="none" xmlns="http://www.w3.org/2000/svg">
<rect width="135" height="135" rx="5" fill="#C4C4C4"/>
<path d="M92.375 46.375H43.625C42.5879 46.375 41.75 47.2129 41.75 48.25V85.75C41.75 86.7871 42.5879 87.625 43.625 87.625H92.375C93.4121 87.625 94.25 86.7871 94.25 85.75V48.25C94.25 47.2129 93.4121 46.375 92.375 46.375ZM90.0312 83.4062H45.9688V81.0684L54.084 71.4414L62.8789 81.8711L76.5605 65.6523L90.0312 81.625V83.4062ZM90.0312 75.8008L76.918 60.25C76.7305 60.0273 76.3906 60.0273 76.2031 60.25L62.8789 76.0469L54.4414 66.0449C54.2539 65.8223 53.9141 65.8223 53.7266 66.0449L45.9688 75.2441V50.5938H90.0312V75.8008ZM55.8125 63.7188C56.4896 63.7188 57.1601 63.5854 57.7857 63.3263C58.4113 63.0671 58.9797 62.6873 59.4585 62.2085C59.9373 61.7297 60.3171 61.1613 60.5763 60.5357C60.8354 59.9101 60.9688 59.2396 60.9688 58.5625C60.9688 57.8854 60.8354 57.2149 60.5763 56.5893C60.3171 55.9637 59.9373 55.3953 59.4585 54.9165C58.9797 54.4377 58.4113 54.0579 57.7857 53.7987C57.1601 53.5396 56.4896 53.4062 55.8125 53.4062C54.445 53.4062 53.1335 53.9495 52.1665 54.9165C51.1995 55.8835 50.6562 57.195 50.6562 58.5625C50.6562 59.93 51.1995 61.2415 52.1665 62.2085C53.1335 63.1755 54.445 63.7188 55.8125 63.7188ZM55.8125 56.9219C56.7207 56.9219 57.4531 57.6543 57.4531 58.5625C57.4531 59.4707 56.7207 60.2031 55.8125 60.2031C54.9043 60.2031 54.1719 59.4707 54.1719 58.5625C54.1719 57.6543 54.9043 56.9219 55.8125 56.9219Z" fill="white"/>
</svg>
