<svg width="18" height="18" viewBox="0 0 18 18" fill="none" xmlns="http://www.w3.org/2000/svg">
<path fill-rule="evenodd" clip-rule="evenodd" d="M18 9C18 11.3869 17.0518 13.6761 15.364 15.364C13.6761 17.0518 11.3869 18 9 18C6.61305 18 4.32387 17.0518 2.63604 15.364C0.948212 13.6761 0 11.3869 0 9C0 6.61305 0.948212 4.32387 2.63604 2.63604C4.32387 0.948212 6.61305 0 9 0C11.3869 0 13.6761 0.948212 15.364 2.63604C17.0518 4.32387 18 6.61305 18 9ZM7.39125 6.78713H5.90625C5.8725 4.66537 7.515 3.9375 9.00675 3.9375C10.5784 3.9375 12.0139 4.75875 12.0139 6.4575C12.0139 7.6725 11.2995 8.25075 10.6144 8.77162C9.78525 9.4005 9.47813 9.63562 9.47813 10.4434V10.8427H8.00663L7.99875 10.3219C7.956 9.279 8.55562 8.63663 9.31275 8.0865C9.9765 7.587 10.3984 7.2585 10.3984 6.54413C10.3984 5.616 9.69187 5.23013 8.92013 5.23013C7.9065 5.23013 7.39237 5.9085 7.39237 6.78713H7.39125ZM8.79862 14.0355C8.14163 14.0355 7.6635 13.5922 7.6635 12.9926C7.6635 12.3716 8.14163 11.9351 8.79975 11.9351C9.48487 11.9351 9.95625 12.3716 9.95625 12.9926C9.95625 13.5922 9.48375 14.0355 8.79862 14.0355Z" fill="black"/>
</svg>
