<svg width="24" height="24" viewBox="0 0 24 24" fill="none" xmlns="http://www.w3.org/2000/svg">
<path d="M14.0003 17.9999C14.2655 17.9999 14.5199 17.8945 14.7074 17.707C14.8949 17.5195 15.0003 17.2651 15.0003 16.9999V14.9999C15.0003 14.7347 14.8949 14.4803 14.7074 14.2928C14.5199 14.1053 14.2655 13.9999 14.0003 13.9999C13.7351 13.9999 13.4807 14.1053 13.2932 14.2928C13.1056 14.4803 13.0003 14.7347 13.0003 14.9999V16.9999C13.0003 17.2651 13.1056 17.5195 13.2932 17.707C13.4807 17.8945 13.7351 17.9999 14.0003 17.9999ZM10.0003 17.9999C10.2655 17.9999 10.5199 17.8945 10.7074 17.707C10.8949 17.5195 11.0003 17.2651 11.0003 16.9999V14.9999C11.0003 14.7347 10.8949 14.4803 10.7074 14.2928C10.5199 14.1053 10.2655 13.9999 10.0003 13.9999C9.73506 13.9999 9.48071 14.1053 9.29317 14.2928C9.10564 14.4803 9.00028 14.7347 9.00028 14.9999V16.9999C9.00028 17.2651 9.10564 17.5195 9.29317 17.707C9.48071 17.8945 9.73506 17.9999 10.0003 17.9999ZM19.0003 5.99991H17.6203L15.8903 2.5499C15.8374 2.42296 15.7589 2.30828 15.6598 2.21303C15.5606 2.11779 15.4428 2.04402 15.3138 1.99635C15.1848 1.94867 15.0474 1.92811 14.9101 1.93595C14.7728 1.94379 14.6386 1.97986 14.5159 2.04191C14.3932 2.10396 14.2846 2.19065 14.1969 2.29657C14.1092 2.40249 14.0443 2.52536 14.0062 2.6575C13.9681 2.78964 13.9577 2.92821 13.9756 3.06455C13.9935 3.20089 14.0394 3.33208 14.1103 3.44991L15.3803 5.99991H8.62028L9.89028 3.44991C9.98735 3.21681 9.99264 2.95563 9.9051 2.71879C9.81756 2.48196 9.64367 2.287 9.41834 2.17307C9.19301 2.05914 8.93292 2.03467 8.6903 2.10456C8.44767 2.17446 8.24046 2.33356 8.11028 2.5499L6.38028 5.99991H5.00028C4.29347 6.01066 3.61316 6.27065 3.07933 6.73404C2.5455 7.19742 2.19245 7.83443 2.08245 8.53271C1.97245 9.23099 2.11256 9.94569 2.47807 10.5508C2.84358 11.1558 3.41101 11.6124 4.08028 11.8399L4.82028 19.2999C4.8949 20.0425 5.24363 20.7306 5.79835 21.2298C6.35308 21.7291 7.07398 22.0036 7.82028 21.9999H16.2003C16.9466 22.0036 17.6675 21.7291 18.2222 21.2298C18.7769 20.7306 19.1257 20.0425 19.2003 19.2999L19.9403 11.8399C20.611 11.6117 21.1793 11.1535 21.5446 10.5464C21.9098 9.9393 22.0484 9.22254 21.9359 8.52305C21.8233 7.82356 21.4667 7.18649 20.9294 6.72468C20.3921 6.26287 19.7087 6.00612 19.0003 5.99991ZM17.1903 19.0999C17.1654 19.3474 17.0492 19.5768 16.8643 19.7432C16.6793 19.9096 16.439 20.0012 16.1903 19.9999H7.81028C7.56151 20.0012 7.32121 19.9096 7.1363 19.7432C6.9514 19.5768 6.83515 19.3474 6.81028 19.0999L6.10028 11.9999H17.9003L17.1903 19.0999ZM19.0003 9.9999H5.00028C4.73506 9.9999 4.48071 9.89455 4.29317 9.70701C4.10564 9.51948 4.00028 9.26512 4.00028 8.99991C4.00028 8.73469 4.10564 8.48033 4.29317 8.2928C4.48071 8.10526 4.73506 7.99991 5.00028 7.99991H19.0003C19.2655 7.99991 19.5199 8.10526 19.7074 8.2928C19.8949 8.48033 20.0003 8.73469 20.0003 8.99991C20.0003 9.26512 19.8949 9.51948 19.7074 9.70701C19.5199 9.89455 19.2655 9.9999 19.0003 9.9999Z" fill="white"/>
</svg>
