<svg width="92" height="92" viewBox="0 0 92 92" fill="none" xmlns="http://www.w3.org/2000/svg">
<rect width="92" height="92" rx="46" fill="#C4C4C4"/>
<path d="M66.3125 25.8125H25.6875C24.8232 25.8125 24.125 26.5107 24.125 27.375V58.625C24.125 59.4893 24.8232 60.1875 25.6875 60.1875H66.3125C67.1768 60.1875 67.875 59.4893 67.875 58.625V27.375C67.875 26.5107 67.1768 25.8125 66.3125 25.8125ZM64.3594 56.6719H27.6406V54.7236L34.4033 46.7012L41.7324 55.3926L53.1338 41.877L64.3594 55.1875V56.6719ZM64.3594 50.334L53.4316 37.375C53.2754 37.1895 52.9922 37.1895 52.8359 37.375L41.7324 50.5391L34.7012 42.2041C34.5449 42.0186 34.2617 42.0186 34.1055 42.2041L27.6406 49.8701V29.3281H64.3594V50.334ZM35.8438 40.2656C36.408 40.2656 36.9668 40.1545 37.4881 39.9385C38.0094 39.7226 38.4831 39.4061 38.8821 39.0071C39.2811 38.6081 39.5976 38.1344 39.8135 37.6131C40.0295 37.0918 40.1406 36.533 40.1406 35.9688C40.1406 35.4045 40.0295 34.8457 39.8135 34.3244C39.5976 33.8031 39.2811 33.3294 38.8821 32.9304C38.4831 32.5314 38.0094 32.2149 37.4881 31.999C36.9668 31.783 36.408 31.6719 35.8438 31.6719C34.7041 31.6719 33.6112 32.1246 32.8054 32.9304C31.9996 33.7362 31.5469 34.8291 31.5469 35.9688C31.5469 37.1084 31.9996 38.2013 32.8054 39.0071C33.6112 39.8129 34.7041 40.2656 35.8438 40.2656ZM35.8438 34.6016C36.6006 34.6016 37.2109 35.2119 37.2109 35.9688C37.2109 36.7256 36.6006 37.3359 35.8438 37.3359C35.0869 37.3359 34.4766 36.7256 34.4766 35.9688C34.4766 35.2119 35.0869 34.6016 35.8438 34.6016Z" fill="white"/>
</svg>
